<mxfile host="app.diagrams.net" modified="2023-06-05T17:55:00.046Z" agent="Mozilla/5.0 (Windows NT 10.0; Win64; x64) AppleWebKit/537.36 (KHTML, like Gecko) Chrome/113.0.0.0 Safari/537.36" etag="TpCGtXYr31TfJETUJ3Ux" version="21.3.7" type="github">
  <diagram name="第 1 页" id="vQkbOmzHpk5NCahhzt69">
    <mxGraphModel dx="-3774" dy="-3594" grid="1" gridSize="10" guides="1" tooltips="1" connect="1" arrows="1" fold="1" page="1" pageScale="1" pageWidth="827" pageHeight="1169" math="0" shadow="0">
      <root>
        <mxCell id="0" />
        <mxCell id="1" parent="0" />
        <UserObject label="" plantUmlData="{&quot;data&quot;:&quot;@startuml\n\nstart\n:商家进入食堂订餐平台主界面;\n:点击文件;\nif (订单导入、订单导出、退出) then (点击订单导入)\n  :导入生成好的订单;\nelse if (点击订单导出)\n  :连接到打单机进行打单;\nelse (点击退出)\n  :直接退出平台;\nendif\n:点击顾客;\nif (顾客新增和顾客查询) then (点击顾客新增)\n  :顾客录入界面;\n  :填写顾客信息并保存;\n  :传入到顾客信息数据表并返回上一级菜单;\nelse if (点击顾客查询)\n  :顾客信息查询界面;\n  :填写顾客姓名和顾客手机进行查询;\n  :查询到的顾客信息显示在列表中;\n  if (点击修改) then (修改顾客信息)\n    :修改顾客信息;\n  else if (点击删除) then (删除顾客信息并弹出确认)\n    if (选择是) then (删除信息)\n      :删除信息;\n    else (选择否)\n      :跳转至查询页面;\n    endif\n  endif\nendif\n:返回上一级菜单;\n:点击菜品;\nif (菜品新增和菜品查询) then (点击菜品新增)\n  :菜品录入界面;\n  :填写菜品信息并提交;\n  :数据传到菜品数据表中并返回上一级菜单;\nelse if (点击菜品查询)\n  :菜品查找界面;\n  :填写菜品号、菜品名、菜品类进行查询;\n  :查询到的菜品信息显示在列表中;\n  if (点击修改) then (修改菜品信息)\n    :修改菜品信息;\n  else if (点击删除) then (删除菜品信息并弹出确认)\n    if (选择是) then (删除信息)\n      :删除信息;\n    else (选择否)\n      :跳转至查询页面;\n    endif\n  endif\nendif\n:返回上一级菜单;\n:点击菜单;\nif (菜单新增和菜单查询) then (点击菜单新增)\n  :菜单生成界面;\n  :填写菜单信息并保存;\n  :生成菜单并返回上一级菜单;\nelse if (点击菜单查询)\n  :菜单查找界面;\n  :填写菜单号、菜单名和日期进行查询;\n  :查询到的菜单显示在列表中;\n  :点击取消;\nendif\n:返回上一级菜单;\n:点击订单;\nif (订单新增和订单查询) then (点击订单新增)\n  :订单录入界面;\n  :填写订单信息并提交;\n  :数据传到今日订单中并返回上一级菜单;\nelse if (点击订单查询)\n  :订单查询界面;\n  :填写订单号、手机号、日期时间、顾客姓名、地址详情进行查询;\n  :查询到的订单显示在列表中;\n  :点击打单;\n  :连接到打单机进行打单;\n  :点击打单机设置;\nendif\n:返回上一级菜单;\n:点击打单;\n:连接到打单机进行打单;\n:点击打单机设置;\n\nstop\n\n@enduml&quot;,&quot;format&quot;:&quot;svg&quot;}" id="xhdSlIaJTLVG0YADLOY7-1">
          <mxCell style="shape=image;noLabel=1;verticalAlign=top;aspect=fixed;imageAspect=0;image=data:image/svg+xml,PD94bWwgdmVyc2lvbj0iMS4wIiBlbmNvZGluZz0idXMtYXNjaWkiIHN0YW5kYWxvbmU9Im5vIj8+PHN2ZyB4bWxucz0iaHR0cDovL3d3dy53My5vcmcvMjAwMC9zdmciIHhtbG5zOnhsaW5rPSJodHRwOi8vd3d3LnczLm9yZy8xOTk5L3hsaW5rIiBjb250ZW50U3R5bGVUeXBlPSJ0ZXh0L2NzcyIgaGVpZ2h0PSIyNTI2cHgiIHByZXNlcnZlQXNwZWN0UmF0aW89Im5vbmUiIHN0eWxlPSJ3aWR0aDo3MTRweDtoZWlnaHQ6MjUyNnB4O2JhY2tncm91bmQ6I0ZGRkZGRjsiIHZlcnNpb249IjEuMSIgdmlld0JveD0iMCAwIDcxNCAyNTI2IiB3aWR0aD0iNzE0cHgiIHpvb21BbmRQYW49Im1hZ25pZnkiPjxkZWZzLz48Zz48ZWxsaXBzZSBjeD0iMzY0IiBjeT0iMjAiIGZpbGw9IiMyMjIyMjIiIHJ4PSIxMCIgcnk9IjEwIiBzdHlsZT0ic3Ryb2tlOiMyMjIyMjI7c3Ryb2tlLXdpZHRoOjEuMDsiLz48cmVjdCBmaWxsPSIjRjFGMUYxIiBoZWlnaHQ9IjMyLjg0MzgiIHJ4PSIxMi41IiByeT0iMTIuNSIgc3R5bGU9InN0cm9rZTojMTgxODE4O3N0cm9rZS13aWR0aDowLjU7IiB3aWR0aD0iMTc2IiB4PSIyNzYiIHk9IjUwIi8+PHRleHQgZmlsbD0iIzAwMDAwMCIgZm9udC1mYW1pbHk9InNhbnMtc2VyaWYiIGZvbnQtc2l6ZT0iMTIiIGxlbmd0aEFkanVzdD0ic3BhY2luZyIgdGV4dExlbmd0aD0iMTU2IiB4PSIyODYiIHk9IjcxLjM0MzgiPiYjMjE4MzA7JiMyMzQ3ODsmIzM2ODI3OyYjMjA4Mzc7JiMzOTEzNTsmIzIyNTMwOyYjMzU3NDY7JiMzOTE4NDsmIzI0MTc5OyYjMjE0ODg7JiMyMDAyNzsmIzMwMDI4OyYjMzg3NTQ7PC90ZXh0PjxyZWN0IGZpbGw9IiNGMUYxRjEiIGhlaWdodD0iMzIuODQzOCIgcng9IjEyLjUiIHJ5PSIxMi41IiBzdHlsZT0ic3Ryb2tlOiMxODE4MTg7c3Ryb2tlLXdpZHRoOjAuNTsiIHdpZHRoPSI2OCIgeD0iMzMwIiB5PSIxMDIuODQzOCIvPjx0ZXh0IGZpbGw9IiMwMDAwMDAiIGZvbnQtZmFtaWx5PSJzYW5zLXNlcmlmIiBmb250LXNpemU9IjEyIiBsZW5ndGhBZGp1c3Q9InNwYWNpbmciIHRleHRMZW5ndGg9IjQ4IiB4PSIzNDAiIHk9IjEyNC4xODc1Ij4mIzI4ODU3OyYjMjA5ODc7JiMyNTk5MTsmIzIwMjE0OzwvdGV4dD48cG9seWdvbiBmaWxsPSIjRjFGMUYxIiBwb2ludHM9IjE2MiwxNTUuNjg3NSwyOTQsMTU1LjY4NzUsMzA2LDE2Ny42ODc1LDI5NCwxNzkuNjg3NSwxNjIsMTc5LjY4NzUsMTUwLDE2Ny42ODc1LDE2MiwxNTUuNjg3NSIgc3R5bGU9InN0cm9rZTojMTgxODE4O3N0cm9rZS13aWR0aDowLjU7Ii8+PHRleHQgZmlsbD0iIzAwMDAwMCIgZm9udC1mYW1pbHk9InNhbnMtc2VyaWYiIGZvbnQtc2l6ZT0iMTEiIGxlbmd0aEFkanVzdD0ic3BhY2luZyIgdGV4dExlbmd0aD0iNjYiIHg9IjIzMiIgeT0iMTkwLjA4NTkiPiYjMjg4NTc7JiMyMDk4NzsmIzM1NzQ2OyYjMjEzMzM7JiMyMzU0ODsmIzIwODM3OzwvdGV4dD48dGV4dCBmaWxsPSIjMDAwMDAwIiBmb250LWZhbWlseT0ic2Fucy1zZXJpZiIgZm9udC1zaXplPSIxMSIgbGVuZ3RoQWRqdXN0PSJzcGFjaW5nIiB0ZXh0TGVuZ3RoPSIxMzIiIHg9IjE2MiIgeT0iMTcyLjE5OTIiPiYjMzU3NDY7JiMyMTMzMzsmIzIzNTQ4OyYjMjA4Mzc7JiMxMjI4OTsmIzM1NzQ2OyYjMjEzMzM7JiMyMzU0ODsmIzIwOTg2OyYjMTIyODk7JiMzNjg2NDsmIzIwOTg2OzwvdGV4dD48cmVjdCBmaWxsPSIjRjFGMUYxIiBoZWlnaHQ9IjMyLjg0MzgiIHJ4PSIxMi41IiByeT0iMTIuNSIgc3R5bGU9InN0cm9rZTojMTgxODE4O3N0cm9rZS13aWR0aDowLjU7IiB3aWR0aD0iMTE2IiB4PSIxNzAiIHk9IjIxMS40NjA5Ii8+PHRleHQgZmlsbD0iIzAwMDAwMCIgZm9udC1mYW1pbHk9InNhbnMtc2VyaWYiIGZvbnQtc2l6ZT0iMTIiIGxlbmd0aEFkanVzdD0ic3BhY2luZyIgdGV4dExlbmd0aD0iOTYiIHg9IjE4MCIgeT0iMjMyLjgwNDciPiYjMjM1NDg7JiMyMDgzNzsmIzI5OTgzOyYjMjUxMDQ7JiMyMjkwOTsmIzMwMzQwOyYjMzU3NDY7JiMyMTMzMzs8L3RleHQ+PHBvbHlnb24gZmlsbD0iI0YxRjFGMSIgcG9pbnRzPSIzNjMsMTU1LjY4NzUsNDI5LDE1NS42ODc1LDQ0MSwxNjcuNjg3NSw0MjksMTc5LjY4NzUsMzYzLDE3OS42ODc1LDM1MSwxNjcuNjg3NSwzNjMsMTU1LjY4NzUiIHN0eWxlPSJzdHJva2U6IzE4MTgxODtzdHJva2Utd2lkdGg6MC41OyIvPjx0ZXh0IGZpbGw9IiMwMDAwMDAiIGZvbnQtZmFtaWx5PSJzYW5zLXNlcmlmIiBmb250LXNpemU9IjExIiBsZW5ndGhBZGp1c3Q9InNwYWNpbmciIHRleHRMZW5ndGg9IjY2IiB4PSIzNjMiIHk9IjE3Mi4xOTkyIj4mIzI4ODU3OyYjMjA5ODc7JiMzNTc0NjsmIzIxMzMzOyYjMjM1NDg7JiMyMDk4Njs8L3RleHQ+PHRleHQgZmlsbD0iIzAwMDAwMCIgZm9udC1mYW1pbHk9InNhbnMtc2VyaWYiIGZvbnQtc2l6ZT0iMTEiIGxlbmd0aEFkanVzdD0ic3BhY2luZyIgdGV4dExlbmd0aD0iNDQiIHg9IjQ0MSIgeT0iMTY2LjMxMjUiPiYjMjg4NTc7JiMyMDk4NzsmIzM2ODY0OyYjMjA5ODY7PC90ZXh0PjxyZWN0IGZpbGw9IiNGMUYxRjEiIGhlaWdodD0iMzIuODQzOCIgcng9IjEyLjUiIHJ5PSIxMi41IiBzdHlsZT0ic3Ryb2tlOiMxODE4MTg7c3Ryb2tlLXdpZHRoOjAuNTsiIHdpZHRoPSIxNDAiIHg9IjMyNiIgeT0iMTk5LjY4NzUiLz48dGV4dCBmaWxsPSIjMDAwMDAwIiBmb250LWZhbWlseT0ic2Fucy1zZXJpZiIgZm9udC1zaXplPSIxMiIgbGVuZ3RoQWRqdXN0PSJzcGFjaW5nIiB0ZXh0TGVuZ3RoPSIxMjAiIHg9IjMzNiIgeT0iMjIxLjAzMTMiPiYjMzY4MzA7JiMyNTUwOTsmIzIxMDQwOyYjMjUxNzE7JiMyMTMzMzsmIzI2NDI2OyYjMzY4Mjc7JiMzNDg5MjsmIzI1MTcxOyYjMjEzMzM7PC90ZXh0PjxyZWN0IGZpbGw9IiNGMUYxRjEiIGhlaWdodD0iMzIuODQzOCIgcng9IjEyLjUiIHJ5PSIxMi41IiBzdHlsZT0ic3Ryb2tlOiMxODE4MTg7c3Ryb2tlLXdpZHRoOjAuNTsiIHdpZHRoPSI5MiIgeD0iNDg2IiB5PSIyMDguNTc0MiIvPjx0ZXh0IGZpbGw9IiMwMDAwMDAiIGZvbnQtZmFtaWx5PSJzYW5zLXNlcmlmIiBmb250LXNpemU9IjEyIiBsZW5ndGhBZGp1c3Q9InNwYWNpbmciIHRleHRMZW5ndGg9IjcyIiB4PSI0OTYiIHk9IjIyOS45MTgiPiYjMzA0NTI7JiMyNTUwOTsmIzM2ODY0OyYjMjA5ODY7JiMyNDE3OTsmIzIxNDg4OzwvdGV4dD48cmVjdCBmaWxsPSIjRjFGMUYxIiBoZWlnaHQ9IjMyLjg0MzgiIHJ4PSIxMi41IiByeT0iMTIuNSIgc3R5bGU9InN0cm9rZTojMTgxODE4O3N0cm9rZS13aWR0aDowLjU7IiB3aWR0aD0iNjgiIHg9IjMzMCIgeT0iMjg0LjMwNDciLz48dGV4dCBmaWxsPSIjMDAwMDAwIiBmb250LWZhbWlseT0ic2Fucy1zZXJpZiIgZm9udC1zaXplPSIxMiIgbGVuZ3RoQWRqdXN0PSJzcGFjaW5nIiB0ZXh0TGVuZ3RoPSI0OCIgeD0iMzQwIiB5PSIzMDUuNjQ4NCI+JiMyODg1NzsmIzIwOTg3OyYjMzkwMzg7JiMyMzQ1ODs8L3RleHQ+PHBvbHlnb24gZmlsbD0iI0YxRjFGMSIgcG9pbnRzPSI3OS41LDMzNy4xNDg0LDE3OC41LDMzNy4xNDg0LDE5MC41LDM0OS4xNDg0LDE3OC41LDM2MS4xNDg0LDc5LjUsMzYxLjE0ODQsNjcuNSwzNDkuMTQ4NCw3OS41LDMzNy4xNDg0IiBzdHlsZT0ic3Ryb2tlOiMxODE4MTg7c3Ryb2tlLXdpZHRoOjAuNTsiLz48dGV4dCBmaWxsPSIjMDAwMDAwIiBmb250LWZhbWlseT0ic2Fucy1zZXJpZiIgZm9udC1zaXplPSIxMSIgbGVuZ3RoQWRqdXN0PSJzcGFjaW5nIiB0ZXh0TGVuZ3RoPSI2NiIgeD0iMTMzIiB5PSIzNzEuNTQ2OSI+JiMyODg1NzsmIzIwOTg3OyYjMzkwMzg7JiMyMzQ1ODsmIzI2MDMyOyYjMjI2ODY7PC90ZXh0Pjx0ZXh0IGZpbGw9IiMwMDAwMDAiIGZvbnQtZmFtaWx5PSJzYW5zLXNlcmlmIiBmb250LXNpemU9IjExIiBsZW5ndGhBZGp1c3Q9InNwYWNpbmciIHRleHRMZW5ndGg9Ijk5IiB4PSI3OS41IiB5PSIzNTMuNjYwMiI+JiMzOTAzODsmIzIzNDU4OyYjMjYwMzI7JiMyMjY4NjsmIzIxNjQ0OyYjMzkwMzg7JiMyMzQ1ODsmIzI2NTk3OyYjMzU4MTA7PC90ZXh0PjxyZWN0IGZpbGw9IiNGMUYxRjEiIGhlaWdodD0iMzIuODQzOCIgcng9IjEyLjUiIHJ5PSIxMi41IiBzdHlsZT0ic3Ryb2tlOiMxODE4MTg7c3Ryb2tlLXdpZHRoOjAuNTsiIHdpZHRoPSI5MiIgeD0iODMiIHk9IjM5Mi45MjE5Ii8+PHRleHQgZmlsbD0iIzAwMDAwMCIgZm9udC1mYW1pbHk9InNhbnMtc2VyaWYiIGZvbnQtc2l6ZT0iMTIiIGxlbmd0aEFkanVzdD0ic3BhY2luZyIgdGV4dExlbmd0aD0iNzIiIHg9IjkzIiB5PSI0MTQuMjY1NiI+JiMzOTAzODsmIzIzNDU4OyYjMjQ0MDU7JiMyMDgzNzsmIzMwMDI4OyYjMzg3NTQ7PC90ZXh0PjxyZWN0IGZpbGw9IiNGMUYxRjEiIGhlaWdodD0iMzIuODQzOCIgcng9IjEyLjUiIHJ5PSIxMi41IiBzdHlsZT0ic3Ryb2tlOiMxODE4MTg7c3Ryb2tlLXdpZHRoOjAuNTsiIHdpZHRoPSIxMjgiIHg9IjY1IiB5PSI0NTcuNTM5MSIvPjx0ZXh0IGZpbGw9IiMwMDAwMDAiIGZvbnQtZmFtaWx5PSJzYW5zLXNlcmlmIiBmb250LXNpemU9IjEyIiBsZW5ndGhBZGp1c3Q9InNwYWNpbmciIHRleHRMZW5ndGg9IjEwOCIgeD0iNzUiIHk9IjQ3OC44ODI4Ij4mIzIyNjM1OyYjMjA4ODk7JiMzOTAzODsmIzIzNDU4OyYjMjA0NDk7JiMyNDY4NzsmIzI0MTgyOyYjMjA0NDU7JiMyMzM4NDs8L3RleHQ+PHJlY3QgZmlsbD0iI0YxRjFGMSIgaGVpZ2h0PSIzMi44NDM4IiByeD0iMTIuNSIgcnk9IjEyLjUiIHN0eWxlPSJzdHJva2U6IzE4MTgxODtzdHJva2Utd2lkdGg6MC41OyIgd2lkdGg9IjIzNiIgeD0iMTEiIHk9IjUyMi4xNTYzIi8+PHRleHQgZmlsbD0iIzAwMDAwMCIgZm9udC1mYW1pbHk9InNhbnMtc2VyaWYiIGZvbnQtc2l6ZT0iMTIiIGxlbmd0aEFkanVzdD0ic3BhY2luZyIgdGV4dExlbmd0aD0iMjE2IiB4PSIyMSIgeT0iNTQzLjUiPiYjMjAyNTY7JiMyMDgzNzsmIzIxMDQwOyYjMzkwMzg7JiMyMzQ1ODsmIzIwNDQ5OyYjMjQ2ODc7JiMyNTk2ODsmIzI1NDU0OyYjMzQ5MjA7JiMyNDE4MjsmIzM2ODIwOyYjMjIyMzg7JiMxOTk3ODsmIzE5OTY4OyYjMzI0MjM7JiMzMzc1NjsmIzIxMzMzOzwvdGV4dD48cG9seWdvbiBmaWxsPSIjRjFGMUYxIiBwb2ludHM9IjQzNCwzMzcuMTQ4NCw1MDAsMzM3LjE0ODQsNTEyLDM0OS4xNDg0LDUwMCwzNjEuMTQ4NCw0MzQsMzYxLjE0ODQsNDIyLDM0OS4xNDg0LDQzNCwzMzcuMTQ4NCIgc3R5bGU9InN0cm9rZTojMTgxODE4O3N0cm9rZS13aWR0aDowLjU7Ii8+PHRleHQgZmlsbD0iIzAwMDAwMCIgZm9udC1mYW1pbHk9InNhbnMtc2VyaWYiIGZvbnQtc2l6ZT0iMTEiIGxlbmd0aEFkanVzdD0ic3BhY2luZyIgdGV4dExlbmd0aD0iNjYiIHg9IjQzNCIgeT0iMzUzLjY2MDIiPiYjMjg4NTc7JiMyMDk4NzsmIzM5MDM4OyYjMjM0NTg7JiMyNjU5NzsmIzM1ODEwOzwvdGV4dD48cmVjdCBmaWxsPSIjRjFGMUYxIiBoZWlnaHQ9IjMyLjg0MzgiIHJ4PSIxMi41IiByeT0iMTIuNSIgc3R5bGU9InN0cm9rZTojMTgxODE4O3N0cm9rZS13aWR0aDowLjU7IiB3aWR0aD0iMTE2IiB4PSI0MDkiIHk9IjM4MS4xNDg0Ii8+PHRleHQgZmlsbD0iIzAwMDAwMCIgZm9udC1mYW1pbHk9InNhbnMtc2VyaWYiIGZvbnQtc2l6ZT0iMTIiIGxlbmd0aEFkanVzdD0ic3BhY2luZyIgdGV4dExlbmd0aD0iOTYiIHg9IjQxOSIgeT0iNDAyLjQ5MjIiPiYjMzkwMzg7JiMyMzQ1ODsmIzIwNDQ5OyYjMjQ2ODc7JiMyNjU5NzsmIzM1ODEwOyYjMzAwMjg7JiMzODc1NDs8L3RleHQ+PHJlY3QgZmlsbD0iI0YxRjFGMSIgaGVpZ2h0PSIzMi44NDM4IiByeD0iMTIuNSIgcnk9IjEyLjUiIHN0eWxlPSJzdHJva2U6IzE4MTgxODtzdHJva2Utd2lkdGg6MC41OyIgd2lkdGg9IjIwMCIgeD0iMzY3IiB5PSI0NDUuNzY1NiIvPjx0ZXh0IGZpbGw9IiMwMDAwMDAiIGZvbnQtZmFtaWx5PSJzYW5zLXNlcmlmIiBmb250LXNpemU9IjEyIiBsZW5ndGhBZGp1c3Q9InNwYWNpbmciIHRleHRMZW5ndGg9IjE4MCIgeD0iMzc3IiB5PSI0NjcuMTA5NCI+JiMyMjYzNTsmIzIwODg5OyYjMzkwMzg7JiMyMzQ1ODsmIzIyOTk1OyYjMjE1MTc7JiMyMTY0NDsmIzM5MDM4OyYjMjM0NTg7JiMyNTE2MzsmIzI2NDI2OyYjMzY4Mjc7JiMzNDg5MjsmIzI2NTk3OyYjMzU4MTA7PC90ZXh0PjxyZWN0IGZpbGw9IiNGMUYxRjEiIGhlaWdodD0iMzIuODQzOCIgcng9IjEyLjUiIHJ5PSIxMi41IiBzdHlsZT0ic3Ryb2tlOiMxODE4MTg7c3Ryb2tlLXdpZHRoOjAuNTsiIHdpZHRoPSIxODgiIHg9IjM3MyIgeT0iNTEwLjM4MjgiLz48dGV4dCBmaWxsPSIjMDAwMDAwIiBmb250LWZhbWlseT0ic2Fucy1zZXJpZiIgZm9udC1zaXplPSIxMiIgbGVuZ3RoQWRqdXN0PSJzcGFjaW5nIiB0ZXh0TGVuZ3RoPSIxNjgiIHg9IjM4MyIgeT0iNTMxLjcyNjYiPiYjMjY1OTc7JiMzNTgxMDsmIzIxMDQwOyYjMzAzNDA7JiMzOTAzODsmIzIzNDU4OyYjMjA0NDk7JiMyNDY4NzsmIzI2MTc0OyYjMzEwMzQ7JiMyMjMxMjsmIzIxMDE1OyYjMzQ5MjA7JiMyMDAxMzs8L3RleHQ+PHBvbHlnb24gZmlsbD0iI0YxRjFGMSIgcG9pbnRzPSIyOTEsNTc1LDMzNSw1NzUsMzQ3LDU4NywzMzUsNTk5LDI5MSw1OTksMjc5LDU4NywyOTEsNTc1IiBzdHlsZT0ic3Ryb2tlOiMxODE4MTg7c3Ryb2tlLXdpZHRoOjAuNTsiLz48dGV4dCBmaWxsPSIjMDAwMDAwIiBmb250LWZhbWlseT0ic2Fucy1zZXJpZiIgZm9udC1zaXplPSIxMSIgbGVuZ3RoQWRqdXN0PSJzcGFjaW5nIiB0ZXh0TGVuZ3RoPSI2NiIgeD0iMzE3IiB5PSI2MDkuMzk4NCI+JiMyMDQ2MjsmIzI1OTEzOyYjMzkwMzg7JiMyMzQ1ODsmIzIwNDQ5OyYjMjQ2ODc7PC90ZXh0Pjx0ZXh0IGZpbGw9IiMwMDAwMDAiIGZvbnQtZmFtaWx5PSJzYW5zLXNlcmlmIiBmb250LXNpemU9IjExIiBsZW5ndGhBZGp1c3Q9InNwYWNpbmciIHRleHRMZW5ndGg9IjQ0IiB4PSIyOTEiIHk9IjU5MS41MTE3Ij4mIzI4ODU3OyYjMjA5ODc7JiMyMDQ2MjsmIzI1OTEzOzwvdGV4dD48cmVjdCBmaWxsPSIjRjFGMUYxIiBoZWlnaHQ9IjMyLjg0MzgiIHJ4PSIxMi41IiByeT0iMTIuNSIgc3R5bGU9InN0cm9rZTojMTgxODE4O3N0cm9rZS13aWR0aDowLjU7IiB3aWR0aD0iOTIiIHg9IjI2NyIgeT0iNjMwLjc3MzQiLz48dGV4dCBmaWxsPSIjMDAwMDAwIiBmb250LWZhbWlseT0ic2Fucy1zZXJpZiIgZm9udC1zaXplPSIxMiIgbGVuZ3RoQWRqdXN0PSJzcGFjaW5nIiB0ZXh0TGVuZ3RoPSI3MiIgeD0iMjc3IiB5PSI2NTIuMTE3MiI+JiMyMDQ2MjsmIzI1OTEzOyYjMzkwMzg7JiMyMzQ1ODsmIzIwNDQ5OyYjMjQ2ODc7PC90ZXh0Pjxwb2x5Z29uIGZpbGw9IiNGMUYxRjEiIHBvaW50cz0iNDc0LDU3NSw1MTgsNTc1LDUzMCw1ODcsNTE4LDU5OSw0NzQsNTk5LDQ2Miw1ODcsNDc0LDU3NSIgc3R5bGU9InN0cm9rZTojMTgxODE4O3N0cm9rZS13aWR0aDowLjU7Ii8+PHRleHQgZmlsbD0iIzAwMDAwMCIgZm9udC1mYW1pbHk9InNhbnMtc2VyaWYiIGZvbnQtc2l6ZT0iMTEiIGxlbmd0aEFkanVzdD0ic3BhY2luZyIgdGV4dExlbmd0aD0iMTIxIiB4PSI1MDAiIHk9IjYwOS4zOTg0Ij4mIzIxMDI0OyYjMzg1MDA7JiMzOTAzODsmIzIzNDU4OyYjMjA0NDk7JiMyNDY4NzsmIzI0MTgyOyYjMjQzNzc7JiMyMDk4NjsmIzMwODMwOyYjMzU3NDg7PC90ZXh0Pjx0ZXh0IGZpbGw9IiMwMDAwMDAiIGZvbnQtZmFtaWx5PSJzYW5zLXNlcmlmIiBmb250LXNpemU9IjExIiBsZW5ndGhBZGp1c3Q9InNwYWNpbmciIHRleHRMZW5ndGg9IjQ0IiB4PSI0NzQiIHk9IjU5MS41MTE3Ij4mIzI4ODU3OyYjMjA5ODc7JiMyMTAyNDsmIzM4NTAwOzwvdGV4dD48cG9seWdvbiBmaWxsPSIjRjFGMUYxIiBwb2ludHM9IjQ3OS41LDYzMC43NzM0LDUxMi41LDYzMC43NzM0LDUyNC41LDY0Mi43NzM0LDUxMi41LDY1NC43NzM0LDQ3OS41LDY1NC43NzM0LDQ2Ny41LDY0Mi43NzM0LDQ3OS41LDYzMC43NzM0IiBzdHlsZT0ic3Ryb2tlOiMxODE4MTg7c3Ryb2tlLXdpZHRoOjAuNTsiLz48dGV4dCBmaWxsPSIjMDAwMDAwIiBmb250LWZhbWlseT0ic2Fucy1zZXJpZiIgZm9udC1zaXplPSIxMSIgbGVuZ3RoQWRqdXN0PSJzcGFjaW5nIiB0ZXh0TGVuZ3RoPSIzMyIgeD0iNDc5LjUiIHk9IjY0Ny4yODUyIj4mIzM2ODczOyYjMjUzMjE7JiMyNjE1OTs8L3RleHQ+PHRleHQgZmlsbD0iIzAwMDAwMCIgZm9udC1mYW1pbHk9InNhbnMtc2VyaWYiIGZvbnQtc2l6ZT0iMTEiIGxlbmd0aEFkanVzdD0ic3BhY2luZyIgdGV4dExlbmd0aD0iNDQiIHg9IjQyMy41IiB5PSI2NDEuMzk4NCI+JiMyMTAyNDsmIzM4NTAwOyYjMjA0NDk7JiMyNDY4Nzs8L3RleHQ+PHRleHQgZmlsbD0iIzAwMDAwMCIgZm9udC1mYW1pbHk9InNhbnMtc2VyaWYiIGZvbnQtc2l6ZT0iMTEiIGxlbmd0aEFkanVzdD0ic3BhY2luZyIgdGV4dExlbmd0aD0iMzMiIHg9IjUyNC41IiB5PSI2NDEuMzk4NCI+JiMzNjg3MzsmIzI1MzIxOyYjMjE1NDI7PC90ZXh0PjxyZWN0IGZpbGw9IiNGMUYxRjEiIGhlaWdodD0iMzIuODQzOCIgcng9IjEyLjUiIHJ5PSIxMi41IiBzdHlsZT0ic3Ryb2tlOiMxODE4MTg7c3Ryb2tlLXdpZHRoOjAuNTsiIHdpZHRoPSI2OCIgeD0iNDA5IiB5PSI2NjQuNzczNCIvPjx0ZXh0IGZpbGw9IiMwMDAwMDAiIGZvbnQtZmFtaWx5PSJzYW5zLXNlcmlmIiBmb250LXNpemU9IjEyIiBsZW5ndGhBZGp1c3Q9InNwYWNpbmciIHRleHRMZW5ndGg9IjQ4IiB4PSI0MTkiIHk9IjY4Ni4xMTcyIj4mIzIxMDI0OyYjMzg1MDA7JiMyMDQ0OTsmIzI0Njg3OzwvdGV4dD48cmVjdCBmaWxsPSIjRjFGMUYxIiBoZWlnaHQ9IjMyLjg0MzgiIHJ4PSIxMi41IiByeT0iMTIuNSIgc3R5bGU9InN0cm9rZTojMTgxODE4O3N0cm9rZS13aWR0aDowLjU7IiB3aWR0aD0iMTA0IiB4PSI0OTciIHk9IjY2NC43NzM0Ii8+PHRleHQgZmlsbD0iIzAwMDAwMCIgZm9udC1mYW1pbHk9InNhbnMtc2VyaWYiIGZvbnQtc2l6ZT0iMTIiIGxlbmd0aEFkanVzdD0ic3BhY2luZyIgdGV4dExlbmd0aD0iODQiIHg9IjUwNyIgeT0iNjg2LjExNzIiPiYjMzYzMzk7JiMzNjcxNjsmIzMzMjY3OyYjMjY1OTc7JiMzNTgxMDsmIzM5MDI5OyYjMzg3NTQ7PC90ZXh0Pjxwb2x5Z29uIGZpbGw9IiNGMUYxRjEiIHBvaW50cz0iNDk2LDcwMy42MTcyLDUwOCw3MTUuNjE3Miw0OTYsNzI3LjYxNzIsNDg0LDcxNS42MTcyLDQ5Niw3MDMuNjE3MiIgc3R5bGU9InN0cm9rZTojMTgxODE4O3N0cm9rZS13aWR0aDowLjU7Ii8+PHJlY3QgZmlsbD0iI0YxRjFGMSIgaGVpZ2h0PSIzMi44NDM4IiByeD0iMTIuNSIgcnk9IjEyLjUiIHN0eWxlPSJzdHJva2U6IzE4MTgxODtzdHJva2Utd2lkdGg6MC41OyIgd2lkdGg9IjEwNCIgeD0iMzEyIiB5PSI3ODcuNjE3MiIvPjx0ZXh0IGZpbGw9IiMwMDAwMDAiIGZvbnQtZmFtaWx5PSJzYW5zLXNlcmlmIiBmb250LXNpemU9IjEyIiBsZW5ndGhBZGp1c3Q9InNwYWNpbmciIHRleHRMZW5ndGg9Ijg0IiB4PSIzMjIiIHk9IjgwOC45NjA5Ij4mIzM2ODIwOyYjMjIyMzg7JiMxOTk3ODsmIzE5OTY4OyYjMzI0MjM7JiMzMzc1NjsmIzIxMzMzOzwvdGV4dD48cmVjdCBmaWxsPSIjRjFGMUYxIiBoZWlnaHQ9IjMyLjg0MzgiIHJ4PSIxMi41IiByeT0iMTIuNSIgc3R5bGU9InN0cm9rZTojMTgxODE4O3N0cm9rZS13aWR0aDowLjU7IiB3aWR0aD0iNjgiIHg9IjMzMCIgeT0iODQwLjQ2MDkiLz48dGV4dCBmaWxsPSIjMDAwMDAwIiBmb250LWZhbWlseT0ic2Fucy1zZXJpZiIgZm9udC1zaXplPSIxMiIgbGVuZ3RoQWRqdXN0PSJzcGFjaW5nIiB0ZXh0TGVuZ3RoPSI0OCIgeD0iMzQwIiB5PSI4NjEuODA0NyI+JiMyODg1NzsmIzIwOTg3OyYjMzM3NTY7JiMyMTY5Nzs8L3RleHQ+PHBvbHlnb24gZmlsbD0iI0YxRjFGMSIgcG9pbnRzPSI3OS41LDg5My4zMDQ3LDE3OC41LDg5My4zMDQ3LDE5MC41LDkwNS4zMDQ3LDE3OC41LDkxNy4zMDQ3LDc5LjUsOTE3LjMwNDcsNjcuNSw5MDUuMzA0Nyw3OS41LDg5My4zMDQ3IiBzdHlsZT0ic3Ryb2tlOiMxODE4MTg7c3Ryb2tlLXdpZHRoOjAuNTsiLz48dGV4dCBmaWxsPSIjMDAwMDAwIiBmb250LWZhbWlseT0ic2Fucy1zZXJpZiIgZm9udC1zaXplPSIxMSIgbGVuZ3RoQWRqdXN0PSJzcGFjaW5nIiB0ZXh0TGVuZ3RoPSI2NiIgeD0iMTMzIiB5PSI5MjcuNzAzMSI+JiMyODg1NzsmIzIwOTg3OyYjMzM3NTY7JiMyMTY5NzsmIzI2MDMyOyYjMjI2ODY7PC90ZXh0Pjx0ZXh0IGZpbGw9IiMwMDAwMDAiIGZvbnQtZmFtaWx5PSJzYW5zLXNlcmlmIiBmb250LXNpemU9IjExIiBsZW5ndGhBZGp1c3Q9InNwYWNpbmciIHRleHRMZW5ndGg9Ijk5IiB4PSI3OS41IiB5PSI5MDkuODE2NCI+JiMzMzc1NjsmIzIxNjk3OyYjMjYwMzI7JiMyMjY4NjsmIzIxNjQ0OyYjMzM3NTY7JiMyMTY5NzsmIzI2NTk3OyYjMzU4MTA7PC90ZXh0PjxyZWN0IGZpbGw9IiNGMUYxRjEiIGhlaWdodD0iMzIuODQzOCIgcng9IjEyLjUiIHJ5PSIxMi41IiBzdHlsZT0ic3Ryb2tlOiMxODE4MTg7c3Ryb2tlLXdpZHRoOjAuNTsiIHdpZHRoPSI5MiIgeD0iODMiIHk9Ijk0OS4wNzgxIi8+PHRleHQgZmlsbD0iIzAwMDAwMCIgZm9udC1mYW1pbHk9InNhbnMtc2VyaWYiIGZvbnQtc2l6ZT0iMTIiIGxlbmd0aEFkanVzdD0ic3BhY2luZyIgdGV4dExlbmd0aD0iNzIiIHg9IjkzIiB5PSI5NzAuNDIxOSI+JiMzMzc1NjsmIzIxNjk3OyYjMjQ0MDU7JiMyMDgzNzsmIzMwMDI4OyYjMzg3NTQ7PC90ZXh0PjxyZWN0IGZpbGw9IiNGMUYxRjEiIGhlaWdodD0iMzIuODQzOCIgcng9IjEyLjUiIHJ5PSIxMi41IiBzdHlsZT0ic3Ryb2tlOiMxODE4MTg7c3Ryb2tlLXdpZHRoOjAuNTsiIHdpZHRoPSIxMjgiIHg9IjY1IiB5PSIxMDEzLjY5NTMiLz48dGV4dCBmaWxsPSIjMDAwMDAwIiBmb250LWZhbWlseT0ic2Fucy1zZXJpZiIgZm9udC1zaXplPSIxMiIgbGVuZ3RoQWRqdXN0PSJzcGFjaW5nIiB0ZXh0TGVuZ3RoPSIxMDgiIHg9Ijc1IiB5PSIxMDM1LjAzOTEiPiYjMjI2MzU7JiMyMDg4OTsmIzMzNzU2OyYjMjE2OTc7JiMyMDQ0OTsmIzI0Njg3OyYjMjQxODI7JiMyNTU1MjsmIzIwMTMyOzwvdGV4dD48cmVjdCBmaWxsPSIjRjFGMUYxIiBoZWlnaHQ9IjMyLjg0MzgiIHJ4PSIxMi41IiByeT0iMTIuNSIgc3R5bGU9InN0cm9rZTojMTgxODE4O3N0cm9rZS13aWR0aDowLjU7IiB3aWR0aD0iMjM2IiB4PSIxMSIgeT0iMTA3OC4zMTI1Ii8+PHRleHQgZmlsbD0iIzAwMDAwMCIgZm9udC1mYW1pbHk9InNhbnMtc2VyaWYiIGZvbnQtc2l6ZT0iMTIiIGxlbmd0aEFkanVzdD0ic3BhY2luZyIgdGV4dExlbmd0aD0iMjE2IiB4PSIyMSIgeT0iMTA5OS42NTYzIj4mIzI1OTY4OyYjMjU0NTQ7JiMyMDI1NjsmIzIxMDQwOyYjMzM3NTY7JiMyMTY5NzsmIzI1OTY4OyYjMjU0NTQ7JiMzNDkyMDsmIzIwMDEzOyYjMjQxODI7JiMzNjgyMDsmIzIyMjM4OyYjMTk5Nzg7JiMxOTk2ODsmIzMyNDIzOyYjMzM3NTY7JiMyMTMzMzs8L3RleHQ+PHBvbHlnb24gZmlsbD0iI0YxRjFGMSIgcG9pbnRzPSI0MzQsODkzLjMwNDcsNTAwLDg5My4zMDQ3LDUxMiw5MDUuMzA0Nyw1MDAsOTE3LjMwNDcsNDM0LDkxNy4zMDQ3LDQyMiw5MDUuMzA0Nyw0MzQsODkzLjMwNDciIHN0eWxlPSJzdHJva2U6IzE4MTgxODtzdHJva2Utd2lkdGg6MC41OyIvPjx0ZXh0IGZpbGw9IiMwMDAwMDAiIGZvbnQtZmFtaWx5PSJzYW5zLXNlcmlmIiBmb250LXNpemU9IjExIiBsZW5ndGhBZGp1c3Q9InNwYWNpbmciIHRleHRMZW5ndGg9IjY2IiB4PSI0MzQiIHk9IjkwOS44MTY0Ij4mIzI4ODU3OyYjMjA5ODc7JiMzMzc1NjsmIzIxNjk3OyYjMjY1OTc7JiMzNTgxMDs8L3RleHQ+PHJlY3QgZmlsbD0iI0YxRjFGMSIgaGVpZ2h0PSIzMi44NDM4IiByeD0iMTIuNSIgcnk9IjEyLjUiIHN0eWxlPSJzdHJva2U6IzE4MTgxODtzdHJva2Utd2lkdGg6MC41OyIgd2lkdGg9IjkyIiB4PSI0MjEiIHk9IjkzNy4zMDQ3Ii8+PHRleHQgZmlsbD0iIzAwMDAwMCIgZm9udC1mYW1pbHk9InNhbnMtc2VyaWYiIGZvbnQtc2l6ZT0iMTIiIGxlbmd0aEFkanVzdD0ic3BhY2luZyIgdGV4dExlbmd0aD0iNzIiIHg9IjQzMSIgeT0iOTU4LjY0ODQiPiYjMzM3NTY7JiMyMTY5NzsmIzI2NTk3OyYjMjUyMTQ7JiMzMDAyODsmIzM4NzU0OzwvdGV4dD48cmVjdCBmaWxsPSIjRjFGMUYxIiBoZWlnaHQ9IjMyLjg0MzgiIHJ4PSIxMi41IiByeT0iMTIuNSIgc3R5bGU9InN0cm9rZTojMTgxODE4O3N0cm9rZS13aWR0aDowLjU7IiB3aWR0aD0iMjI0IiB4PSIzNTUiIHk9IjEwMDEuOTIxOSIvPjx0ZXh0IGZpbGw9IiMwMDAwMDAiIGZvbnQtZmFtaWx5PSJzYW5zLXNlcmlmIiBmb250LXNpemU9IjEyIiBsZW5ndGhBZGp1c3Q9InNwYWNpbmciIHRleHRMZW5ndGg9IjIwNCIgeD0iMzY1IiB5PSIxMDIzLjI2NTYiPiYjMjI2MzU7JiMyMDg4OTsmIzMzNzU2OyYjMjE2OTc7JiMyMTQ5NTsmIzEyMjg5OyYjMzM3NTY7JiMyMTY5NzsmIzIxNTE3OyYjMTIyODk7JiMzMzc1NjsmIzIxNjk3OyYjMzE4Njc7JiMzNjgyNzsmIzM0ODkyOyYjMjY1OTc7JiMzNTgxMDs8L3RleHQ+PHJlY3QgZmlsbD0iI0YxRjFGMSIgaGVpZ2h0PSIzMi44NDM4IiByeD0iMTIuNSIgcnk9IjEyLjUiIHN0eWxlPSJzdHJva2U6IzE4MTgxODtzdHJva2Utd2lkdGg6MC41OyIgd2lkdGg9IjE4OCIgeD0iMzczIiB5PSIxMDY2LjUzOTEiLz48dGV4dCBmaWxsPSIjMDAwMDAwIiBmb250LWZhbWlseT0ic2Fucy1zZXJpZiIgZm9udC1zaXplPSIxMiIgbGVuZ3RoQWRqdXN0PSJzcGFjaW5nIiB0ZXh0TGVuZ3RoPSIxNjgiIHg9IjM4MyIgeT0iMTA4Ny44ODI4Ij4mIzI2NTk3OyYjMzU4MTA7JiMyMTA0MDsmIzMwMzQwOyYjMzM3NTY7JiMyMTY5NzsmIzIwNDQ5OyYjMjQ2ODc7JiMyNjE3NDsmIzMxMDM0OyYjMjIzMTI7JiMyMTAxNTsmIzM0OTIwOyYjMjAwMTM7PC90ZXh0Pjxwb2x5Z29uIGZpbGw9IiNGMUYxRjEiIHBvaW50cz0iMjkxLDExMzEuMTU2MywzMzUsMTEzMS4xNTYzLDM0NywxMTQzLjE1NjMsMzM1LDExNTUuMTU2MywyOTEsMTE1NS4xNTYzLDI3OSwxMTQzLjE1NjMsMjkxLDExMzEuMTU2MyIgc3R5bGU9InN0cm9rZTojMTgxODE4O3N0cm9rZS13aWR0aDowLjU7Ii8+PHRleHQgZmlsbD0iIzAwMDAwMCIgZm9udC1mYW1pbHk9InNhbnMtc2VyaWYiIGZvbnQtc2l6ZT0iMTEiIGxlbmd0aEFkanVzdD0ic3BhY2luZyIgdGV4dExlbmd0aD0iNjYiIHg9IjMxNyIgeT0iMTE2NS41NTQ3Ij4mIzIwNDYyOyYjMjU5MTM7JiMzMzc1NjsmIzIxNjk3OyYjMjA0NDk7JiMyNDY4Nzs8L3RleHQ+PHRleHQgZmlsbD0iIzAwMDAwMCIgZm9udC1mYW1pbHk9InNhbnMtc2VyaWYiIGZvbnQtc2l6ZT0iMTEiIGxlbmd0aEFkanVzdD0ic3BhY2luZyIgdGV4dExlbmd0aD0iNDQiIHg9IjI5MSIgeT0iMTE0Ny42NjgiPiYjMjg4NTc7JiMyMDk4NzsmIzIwNDYyOyYjMjU5MTM7PC90ZXh0PjxyZWN0IGZpbGw9IiNGMUYxRjEiIGhlaWdodD0iMzIuODQzOCIgcng9IjEyLjUiIHJ5PSIxMi41IiBzdHlsZT0ic3Ryb2tlOiMxODE4MTg7c3Ryb2tlLXdpZHRoOjAuNTsiIHdpZHRoPSI5MiIgeD0iMjY3IiB5PSIxMTg2LjkyOTciLz48dGV4dCBmaWxsPSIjMDAwMDAwIiBmb250LWZhbWlseT0ic2Fucy1zZXJpZiIgZm9udC1zaXplPSIxMiIgbGVuZ3RoQWRqdXN0PSJzcGFjaW5nIiB0ZXh0TGVuZ3RoPSI3MiIgeD0iMjc3IiB5PSIxMjA4LjI3MzQiPiYjMjA0NjI7JiMyNTkxMzsmIzMzNzU2OyYjMjE2OTc7JiMyMDQ0OTsmIzI0Njg3OzwvdGV4dD48cG9seWdvbiBmaWxsPSIjRjFGMUYxIiBwb2ludHM9IjQ3NCwxMTMxLjE1NjMsNTE4LDExMzEuMTU2Myw1MzAsMTE0My4xNTYzLDUxOCwxMTU1LjE1NjMsNDc0LDExNTUuMTU2Myw0NjIsMTE0My4xNTYzLDQ3NCwxMTMxLjE1NjMiIHN0eWxlPSJzdHJva2U6IzE4MTgxODtzdHJva2Utd2lkdGg6MC41OyIvPjx0ZXh0IGZpbGw9IiMwMDAwMDAiIGZvbnQtZmFtaWx5PSJzYW5zLXNlcmlmIiBmb250LXNpemU9IjExIiBsZW5ndGhBZGp1c3Q9InNwYWNpbmciIHRleHRMZW5ndGg9IjEyMSIgeD0iNTAwIiB5PSIxMTY1LjU1NDciPiYjMjEwMjQ7JiMzODUwMDsmIzMzNzU2OyYjMjE2OTc7JiMyMDQ0OTsmIzI0Njg3OyYjMjQxODI7JiMyNDM3NzsmIzIwOTg2OyYjMzA4MzA7JiMzNTc0ODs8L3RleHQ+PHRleHQgZmlsbD0iIzAwMDAwMCIgZm9udC1mYW1pbHk9InNhbnMtc2VyaWYiIGZvbnQtc2l6ZT0iMTEiIGxlbmd0aEFkanVzdD0ic3BhY2luZyIgdGV4dExlbmd0aD0iNDQiIHg9IjQ3NCIgeT0iMTE0Ny42NjgiPiYjMjg4NTc7JiMyMDk4NzsmIzIxMDI0OyYjMzg1MDA7PC90ZXh0Pjxwb2x5Z29uIGZpbGw9IiNGMUYxRjEiIHBvaW50cz0iNDc5LjUsMTE4Ni45Mjk3LDUxMi41LDExODYuOTI5Nyw1MjQuNSwxMTk4LjkyOTcsNTEyLjUsMTIxMC45Mjk3LDQ3OS41LDEyMTAuOTI5Nyw0NjcuNSwxMTk4LjkyOTcsNDc5LjUsMTE4Ni45Mjk3IiBzdHlsZT0ic3Ryb2tlOiMxODE4MTg7c3Ryb2tlLXdpZHRoOjAuNTsiLz48dGV4dCBmaWxsPSIjMDAwMDAwIiBmb250LWZhbWlseT0ic2Fucy1zZXJpZiIgZm9udC1zaXplPSIxMSIgbGVuZ3RoQWRqdXN0PSJzcGFjaW5nIiB0ZXh0TGVuZ3RoPSIzMyIgeD0iNDc5LjUiIHk9IjEyMDMuNDQxNCI+JiMzNjg3MzsmIzI1MzIxOyYjMjYxNTk7PC90ZXh0Pjx0ZXh0IGZpbGw9IiMwMDAwMDAiIGZvbnQtZmFtaWx5PSJzYW5zLXNlcmlmIiBmb250LXNpemU9IjExIiBsZW5ndGhBZGp1c3Q9InNwYWNpbmciIHRleHRMZW5ndGg9IjQ0IiB4PSI0MjMuNSIgeT0iMTE5Ny41NTQ3Ij4mIzIxMDI0OyYjMzg1MDA7JiMyMDQ0OTsmIzI0Njg3OzwvdGV4dD48dGV4dCBmaWxsPSIjMDAwMDAwIiBmb250LWZhbWlseT0ic2Fucy1zZXJpZiIgZm9udC1zaXplPSIxMSIgbGVuZ3RoQWRqdXN0PSJzcGFjaW5nIiB0ZXh0TGVuZ3RoPSIzMyIgeD0iNTI0LjUiIHk9IjExOTcuNTU0NyI+JiMzNjg3MzsmIzI1MzIxOyYjMjE1NDI7PC90ZXh0PjxyZWN0IGZpbGw9IiNGMUYxRjEiIGhlaWdodD0iMzIuODQzOCIgcng9IjEyLjUiIHJ5PSIxMi41IiBzdHlsZT0ic3Ryb2tlOiMxODE4MTg7c3Ryb2tlLXdpZHRoOjAuNTsiIHdpZHRoPSI2OCIgeD0iNDA5IiB5PSIxMjIwLjkyOTciLz48dGV4dCBmaWxsPSIjMDAwMDAwIiBmb250LWZhbWlseT0ic2Fucy1zZXJpZiIgZm9udC1zaXplPSIxMiIgbGVuZ3RoQWRqdXN0PSJzcGFjaW5nIiB0ZXh0TGVuZ3RoPSI0OCIgeD0iNDE5IiB5PSIxMjQyLjI3MzQiPiYjMjEwMjQ7JiMzODUwMDsmIzIwNDQ5OyYjMjQ2ODc7PC90ZXh0PjxyZWN0IGZpbGw9IiNGMUYxRjEiIGhlaWdodD0iMzIuODQzOCIgcng9IjEyLjUiIHJ5PSIxMi41IiBzdHlsZT0ic3Ryb2tlOiMxODE4MTg7c3Ryb2tlLXdpZHRoOjAuNTsiIHdpZHRoPSIxMDQiIHg9IjQ5NyIgeT0iMTIyMC45Mjk3Ii8+PHRleHQgZmlsbD0iIzAwMDAwMCIgZm9udC1mYW1pbHk9InNhbnMtc2VyaWYiIGZvbnQtc2l6ZT0iMTIiIGxlbmd0aEFkanVzdD0ic3BhY2luZyIgdGV4dExlbmd0aD0iODQiIHg9IjUwNyIgeT0iMTI0Mi4yNzM0Ij4mIzM2MzM5OyYjMzY3MTY7JiMzMzI2NzsmIzI2NTk3OyYjMzU4MTA7JiMzOTAyOTsmIzM4NzU0OzwvdGV4dD48cG9seWdvbiBmaWxsPSIjRjFGMUYxIiBwb2ludHM9IjQ5NiwxMjU5Ljc3MzQsNTA4LDEyNzEuNzczNCw0OTYsMTI4My43NzM0LDQ4NCwxMjcxLjc3MzQsNDk2LDEyNTkuNzczNCIgc3R5bGU9InN0cm9rZTojMTgxODE4O3N0cm9rZS13aWR0aDowLjU7Ii8+PHJlY3QgZmlsbD0iI0YxRjFGMSIgaGVpZ2h0PSIzMi44NDM4IiByeD0iMTIuNSIgcnk9IjEyLjUiIHN0eWxlPSJzdHJva2U6IzE4MTgxODtzdHJva2Utd2lkdGg6MC41OyIgd2lkdGg9IjEwNCIgeD0iMzEyIiB5PSIxMzQzLjc3MzQiLz48dGV4dCBmaWxsPSIjMDAwMDAwIiBmb250LWZhbWlseT0ic2Fucy1zZXJpZiIgZm9udC1zaXplPSIxMiIgbGVuZ3RoQWRqdXN0PSJzcGFjaW5nIiB0ZXh0TGVuZ3RoPSI4NCIgeD0iMzIyIiB5PSIxMzY1LjExNzIiPiYjMzY4MjA7JiMyMjIzODsmIzE5OTc4OyYjMTk5Njg7JiMzMjQyMzsmIzMzNzU2OyYjMjEzMzM7PC90ZXh0PjxyZWN0IGZpbGw9IiNGMUYxRjEiIGhlaWdodD0iMzIuODQzOCIgcng9IjEyLjUiIHJ5PSIxMi41IiBzdHlsZT0ic3Ryb2tlOiMxODE4MTg7c3Ryb2tlLXdpZHRoOjAuNTsiIHdpZHRoPSI2OCIgeD0iMzMwIiB5PSIxMzk2LjYxNzIiLz48dGV4dCBmaWxsPSIjMDAwMDAwIiBmb250LWZhbWlseT0ic2Fucy1zZXJpZiIgZm9udC1zaXplPSIxMiIgbGVuZ3RoQWRqdXN0PSJzcGFjaW5nIiB0ZXh0TGVuZ3RoPSI0OCIgeD0iMzQwIiB5PSIxNDE3Ljk2MDkiPiYjMjg4NTc7JiMyMDk4NzsmIzMzNzU2OyYjMjEzMzM7PC90ZXh0Pjxwb2x5Z29uIGZpbGw9IiNGMUYxRjEiIHBvaW50cz0iMTczLjUsMTQ0OS40NjA5LDI3Mi41LDE0NDkuNDYwOSwyODQuNSwxNDYxLjQ2MDksMjcyLjUsMTQ3My40NjA5LDE3My41LDE0NzMuNDYwOSwxNjEuNSwxNDYxLjQ2MDksMTczLjUsMTQ0OS40NjA5IiBzdHlsZT0ic3Ryb2tlOiMxODE4MTg7c3Ryb2tlLXdpZHRoOjAuNTsiLz48dGV4dCBmaWxsPSIjMDAwMDAwIiBmb250LWZhbWlseT0ic2Fucy1zZXJpZiIgZm9udC1zaXplPSIxMSIgbGVuZ3RoQWRqdXN0PSJzcGFjaW5nIiB0ZXh0TGVuZ3RoPSI2NiIgeD0iMjI3IiB5PSIxNDgzLjg1OTQiPiYjMjg4NTc7JiMyMDk4NzsmIzMzNzU2OyYjMjEzMzM7JiMyNjAzMjsmIzIyNjg2OzwvdGV4dD48dGV4dCBmaWxsPSIjMDAwMDAwIiBmb250LWZhbWlseT0ic2Fucy1zZXJpZiIgZm9udC1zaXplPSIxMSIgbGVuZ3RoQWRqdXN0PSJzcGFjaW5nIiB0ZXh0TGVuZ3RoPSI5OSIgeD0iMTczLjUiIHk9IjE0NjUuOTcyNyI+JiMzMzc1NjsmIzIxMzMzOyYjMjYwMzI7JiMyMjY4NjsmIzIxNjQ0OyYjMzM3NTY7JiMyMTMzMzsmIzI2NTk3OyYjMzU4MTA7PC90ZXh0PjxyZWN0IGZpbGw9IiNGMUYxRjEiIGhlaWdodD0iMzIuODQzOCIgcng9IjEyLjUiIHJ5PSIxMi41IiBzdHlsZT0ic3Ryb2tlOiMxODE4MTg7c3Ryb2tlLXdpZHRoOjAuNTsiIHdpZHRoPSI5MiIgeD0iMTc3IiB5PSIxNTA1LjIzNDQiLz48dGV4dCBmaWxsPSIjMDAwMDAwIiBmb250LWZhbWlseT0ic2Fucy1zZXJpZiIgZm9udC1zaXplPSIxMiIgbGVuZ3RoQWRqdXN0PSJzcGFjaW5nIiB0ZXh0TGVuZ3RoPSI3MiIgeD0iMTg3IiB5PSIxNTI2LjU3ODEiPiYjMzM3NTY7JiMyMTMzMzsmIzI5OTgzOyYjMjUxMDQ7JiMzMDAyODsmIzM4NzU0OzwvdGV4dD48cmVjdCBmaWxsPSIjRjFGMUYxIiBoZWlnaHQ9IjMyLjg0MzgiIHJ4PSIxMi41IiByeT0iMTIuNSIgc3R5bGU9InN0cm9rZTojMTgxODE4O3N0cm9rZS13aWR0aDowLjU7IiB3aWR0aD0iMTI4IiB4PSIxNTkiIHk9IjE1NjkuODUxNiIvPjx0ZXh0IGZpbGw9IiMwMDAwMDAiIGZvbnQtZmFtaWx5PSJzYW5zLXNlcmlmIiBmb250LXNpemU9IjEyIiBsZW5ndGhBZGp1c3Q9InNwYWNpbmciIHRleHRMZW5ndGg9IjEwOCIgeD0iMTY5IiB5PSIxNTkxLjE5NTMiPiYjMjI2MzU7JiMyMDg4OTsmIzMzNzU2OyYjMjEzMzM7JiMyMDQ0OTsmIzI0Njg3OyYjMjQxODI7JiMyMDQ0NTsmIzIzMzg0OzwvdGV4dD48cmVjdCBmaWxsPSIjRjFGMUYxIiBoZWlnaHQ9IjMyLjg0MzgiIHJ4PSIxMi41IiByeT0iMTIuNSIgc3R5bGU9InN0cm9rZTojMTgxODE4O3N0cm9rZS13aWR0aDowLjU7IiB3aWR0aD0iMTY0IiB4PSIxNDEiIHk9IjE2MzQuNDY4OCIvPjx0ZXh0IGZpbGw9IiMwMDAwMDAiIGZvbnQtZmFtaWx5PSJzYW5zLXNlcmlmIiBmb250LXNpemU9IjEyIiBsZW5ndGhBZGp1c3Q9InNwYWNpbmciIHRleHRMZW5ndGg9IjE0NCIgeD0iMTUxIiB5PSIxNjU1LjgxMjUiPiYjMjk5ODM7JiMyNTEwNDsmIzMzNzU2OyYjMjEzMzM7JiMyNDE4MjsmIzM2ODIwOyYjMjIyMzg7JiMxOTk3ODsmIzE5OTY4OyYjMzI0MjM7JiMzMzc1NjsmIzIxMzMzOzwvdGV4dD48cG9seWdvbiBmaWxsPSIjRjFGMUYxIiBwb2ludHM9IjM5OCwxNDQ5LjQ2MDksNDY0LDE0NDkuNDYwOSw0NzYsMTQ2MS40NjA5LDQ2NCwxNDczLjQ2MDksMzk4LDE0NzMuNDYwOSwzODYsMTQ2MS40NjA5LDM5OCwxNDQ5LjQ2MDkiIHN0eWxlPSJzdHJva2U6IzE4MTgxODtzdHJva2Utd2lkdGg6MC41OyIvPjx0ZXh0IGZpbGw9IiMwMDAwMDAiIGZvbnQtZmFtaWx5PSJzYW5zLXNlcmlmIiBmb250LXNpemU9IjExIiBsZW5ndGhBZGp1c3Q9InNwYWNpbmciIHRleHRMZW5ndGg9IjY2IiB4PSIzOTgiIHk9IjE0NjUuOTcyNyI+JiMyODg1NzsmIzIwOTg3OyYjMzM3NTY7JiMyMTMzMzsmIzI2NTk3OyYjMzU4MTA7PC90ZXh0PjxyZWN0IGZpbGw9IiNGMUYxRjEiIGhlaWdodD0iMzIuODQzOCIgcng9IjEyLjUiIHJ5PSIxMi41IiBzdHlsZT0ic3Ryb2tlOiMxODE4MTg7c3Ryb2tlLXdpZHRoOjAuNTsiIHdpZHRoPSI5MiIgeD0iMzg1IiB5PSIxNDkzLjQ2MDkiLz48dGV4dCBmaWxsPSIjMDAwMDAwIiBmb250LWZhbWlseT0ic2Fucy1zZXJpZiIgZm9udC1zaXplPSIxMiIgbGVuZ3RoQWRqdXN0PSJzcGFjaW5nIiB0ZXh0TGVuZ3RoPSI3MiIgeD0iMzk1IiB5PSIxNTE0LjgwNDciPiYjMzM3NTY7JiMyMTMzMzsmIzI2NTk3OyYjMjUyMTQ7JiMzMDAyODsmIzM4NzU0OzwvdGV4dD48cmVjdCBmaWxsPSIjRjFGMUYxIiBoZWlnaHQ9IjMyLjg0MzgiIHJ4PSIxMi41IiByeT0iMTIuNSIgc3R5bGU9InN0cm9rZTojMTgxODE4O3N0cm9rZS13aWR0aDowLjU7IiB3aWR0aD0iMjEyIiB4PSIzMjUiIHk9IjE1NTguMDc4MSIvPjx0ZXh0IGZpbGw9IiMwMDAwMDAiIGZvbnQtZmFtaWx5PSJzYW5zLXNlcmlmIiBmb250LXNpemU9IjEyIiBsZW5ndGhBZGp1c3Q9InNwYWNpbmciIHRleHRMZW5ndGg9IjE5MiIgeD0iMzM1IiB5PSIxNTc5LjQyMTkiPiYjMjI2MzU7JiMyMDg4OTsmIzMzNzU2OyYjMjEzMzM7JiMyMTQ5NTsmIzEyMjg5OyYjMzM3NTY7JiMyMTMzMzsmIzIxNTE3OyYjMjE2NDQ7JiMyNjA4NTsmIzI2Mzk5OyYjMzY4Mjc7JiMzNDg5MjsmIzI2NTk3OyYjMzU4MTA7PC90ZXh0PjxyZWN0IGZpbGw9IiNGMUYxRjEiIGhlaWdodD0iMzIuODQzOCIgcng9IjEyLjUiIHJ5PSIxMi41IiBzdHlsZT0ic3Ryb2tlOiMxODE4MTg7c3Ryb2tlLXdpZHRoOjAuNTsiIHdpZHRoPSIxNjQiIHg9IjM0OSIgeT0iMTYyMi42OTUzIi8+PHRleHQgZmlsbD0iIzAwMDAwMCIgZm9udC1mYW1pbHk9InNhbnMtc2VyaWYiIGZvbnQtc2l6ZT0iMTIiIGxlbmd0aEFkanVzdD0ic3BhY2luZyIgdGV4dExlbmd0aD0iMTQ0IiB4PSIzNTkiIHk9IjE2NDQuMDM5MSI+JiMyNjU5NzsmIzM1ODEwOyYjMjEwNDA7JiMzMDM0MDsmIzMzNzU2OyYjMjEzMzM7JiMyNjE3NDsmIzMxMDM0OyYjMjIzMTI7JiMyMTAxNTsmIzM0OTIwOyYjMjAwMTM7PC90ZXh0PjxyZWN0IGZpbGw9IiNGMUYxRjEiIGhlaWdodD0iMzIuODQzOCIgcng9IjEyLjUiIHJ5PSIxMi41IiBzdHlsZT0ic3Ryb2tlOiMxODE4MTg7c3Ryb2tlLXdpZHRoOjAuNTsiIHdpZHRoPSI2OCIgeD0iMzk3IiB5PSIxNjg3LjMxMjUiLz48dGV4dCBmaWxsPSIjMDAwMDAwIiBmb250LWZhbWlseT0ic2Fucy1zZXJpZiIgZm9udC1zaXplPSIxMiIgbGVuZ3RoQWRqdXN0PSJzcGFjaW5nIiB0ZXh0TGVuZ3RoPSI0OCIgeD0iNDA3IiB5PSIxNzA4LjY1NjMiPiYjMjg4NTc7JiMyMDk4NzsmIzIxNDYyOyYjMjgwNDA7PC90ZXh0PjxyZWN0IGZpbGw9IiNGMUYxRjEiIGhlaWdodD0iMzIuODQzOCIgcng9IjEyLjUiIHJ5PSIxMi41IiBzdHlsZT0ic3Ryb2tlOiMxODE4MTg7c3Ryb2tlLXdpZHRoOjAuNTsiIHdpZHRoPSIxMDQiIHg9IjMxMiIgeT0iMTc2MC4xNTYzIi8+PHRleHQgZmlsbD0iIzAwMDAwMCIgZm9udC1mYW1pbHk9InNhbnMtc2VyaWYiIGZvbnQtc2l6ZT0iMTIiIGxlbmd0aEFkanVzdD0ic3BhY2luZyIgdGV4dExlbmd0aD0iODQiIHg9IjMyMiIgeT0iMTc4MS41Ij4mIzM2ODIwOyYjMjIyMzg7JiMxOTk3ODsmIzE5OTY4OyYjMzI0MjM7JiMzMzc1NjsmIzIxMzMzOzwvdGV4dD48cmVjdCBmaWxsPSIjRjFGMUYxIiBoZWlnaHQ9IjMyLjg0MzgiIHJ4PSIxMi41IiByeT0iMTIuNSIgc3R5bGU9InN0cm9rZTojMTgxODE4O3N0cm9rZS13aWR0aDowLjU7IiB3aWR0aD0iNjgiIHg9IjMzMCIgeT0iMTgxMyIvPjx0ZXh0IGZpbGw9IiMwMDAwMDAiIGZvbnQtZmFtaWx5PSJzYW5zLXNlcmlmIiBmb250LXNpemU9IjEyIiBsZW5ndGhBZGp1c3Q9InNwYWNpbmciIHRleHRMZW5ndGg9IjQ4IiB4PSIzNDAiIHk9IjE4MzQuMzQzOCI+JiMyODg1NzsmIzIwOTg3OyYjMzU3NDY7JiMyMTMzMzs8L3RleHQ+PHBvbHlnb24gZmlsbD0iI0YxRjFGMSIgcG9pbnRzPSIxMDEuNSwxODY1Ljg0MzgsMjAwLjUsMTg2NS44NDM4LDIxMi41LDE4NzcuODQzOCwyMDAuNSwxODg5Ljg0MzgsMTAxLjUsMTg4OS44NDM4LDg5LjUsMTg3Ny44NDM4LDEwMS41LDE4NjUuODQzOCIgc3R5bGU9InN0cm9rZTojMTgxODE4O3N0cm9rZS13aWR0aDowLjU7Ii8+PHRleHQgZmlsbD0iIzAwMDAwMCIgZm9udC1mYW1pbHk9InNhbnMtc2VyaWYiIGZvbnQtc2l6ZT0iMTEiIGxlbmd0aEFkanVzdD0ic3BhY2luZyIgdGV4dExlbmd0aD0iNjYiIHg9IjE1NSIgeT0iMTkwMC4yNDIyIj4mIzI4ODU3OyYjMjA5ODc7JiMzNTc0NjsmIzIxMzMzOyYjMjYwMzI7JiMyMjY4Njs8L3RleHQ+PHRleHQgZmlsbD0iIzAwMDAwMCIgZm9udC1mYW1pbHk9InNhbnMtc2VyaWYiIGZvbnQtc2l6ZT0iMTEiIGxlbmd0aEFkanVzdD0ic3BhY2luZyIgdGV4dExlbmd0aD0iOTkiIHg9IjEwMS41IiB5PSIxODgyLjM1NTUiPiYjMzU3NDY7JiMyMTMzMzsmIzI2MDMyOyYjMjI2ODY7JiMyMTY0NDsmIzM1NzQ2OyYjMjEzMzM7JiMyNjU5NzsmIzM1ODEwOzwvdGV4dD48cmVjdCBmaWxsPSIjRjFGMUYxIiBoZWlnaHQ9IjMyLjg0MzgiIHJ4PSIxMi41IiByeT0iMTIuNSIgc3R5bGU9InN0cm9rZTojMTgxODE4O3N0cm9rZS13aWR0aDowLjU7IiB3aWR0aD0iOTIiIHg9IjEwNSIgeT0iMTkyMS42MTcyIi8+PHRleHQgZmlsbD0iIzAwMDAwMCIgZm9udC1mYW1pbHk9InNhbnMtc2VyaWYiIGZvbnQtc2l6ZT0iMTIiIGxlbmd0aEFkanVzdD0ic3BhY2luZyIgdGV4dExlbmd0aD0iNzIiIHg9IjExNSIgeT0iMTk0Mi45NjA5Ij4mIzM1NzQ2OyYjMjEzMzM7JiMyNDQwNTsmIzIwODM3OyYjMzAwMjg7JiMzODc1NDs8L3RleHQ+PHJlY3QgZmlsbD0iI0YxRjFGMSIgaGVpZ2h0PSIzMi44NDM4IiByeD0iMTIuNSIgcnk9IjEyLjUiIHN0eWxlPSJzdHJva2U6IzE4MTgxODtzdHJva2Utd2lkdGg6MC41OyIgd2lkdGg9IjEyOCIgeD0iODciIHk9IjE5ODYuMjM0NCIvPjx0ZXh0IGZpbGw9IiMwMDAwMDAiIGZvbnQtZmFtaWx5PSJzYW5zLXNlcmlmIiBmb250LXNpemU9IjEyIiBsZW5ndGhBZGp1c3Q9InNwYWNpbmciIHRleHRMZW5ndGg9IjEwOCIgeD0iOTciIHk9IjIwMDcuNTc4MSI+JiMyMjYzNTsmIzIwODg5OyYjMzU3NDY7JiMyMTMzMzsmIzIwNDQ5OyYjMjQ2ODc7JiMyNDE4MjsmIzI1NTUyOyYjMjAxMzI7PC90ZXh0PjxyZWN0IGZpbGw9IiNGMUYxRjEiIGhlaWdodD0iMzIuODQzOCIgcng9IjEyLjUiIHJ5PSIxMi41IiBzdHlsZT0ic3Ryb2tlOiMxODE4MTg7c3Ryb2tlLXdpZHRoOjAuNTsiIHdpZHRoPSIyMjQiIHg9IjM5IiB5PSIyMDUwLjg1MTYiLz48dGV4dCBmaWxsPSIjMDAwMDAwIiBmb250LWZhbWlseT0ic2Fucy1zZXJpZiIgZm9udC1zaXplPSIxMiIgbGVuZ3RoQWRqdXN0PSJzcGFjaW5nIiB0ZXh0TGVuZ3RoPSIyMDQiIHg9IjQ5IiB5PSIyMDcyLjE5NTMiPiYjMjU5Njg7JiMyNTQ1NDsmIzIwMjU2OyYjMjEwNDA7JiMyMDE3MDsmIzI2MDg1OyYjMzU3NDY7JiMyMTMzMzsmIzIwMDEzOyYjMjQxODI7JiMzNjgyMDsmIzIyMjM4OyYjMTk5Nzg7JiMxOTk2ODsmIzMyNDIzOyYjMzM3NTY7JiMyMTMzMzs8L3RleHQ+PHBvbHlnb24gZmlsbD0iI0YxRjFGMSIgcG9pbnRzPSI0MjgsMTg2NS44NDM4LDQ5NCwxODY1Ljg0MzgsNTA2LDE4NzcuODQzOCw0OTQsMTg4OS44NDM4LDQyOCwxODg5Ljg0MzgsNDE2LDE4NzcuODQzOCw0MjgsMTg2NS44NDM4IiBzdHlsZT0ic3Ryb2tlOiMxODE4MTg7c3Ryb2tlLXdpZHRoOjAuNTsiLz48dGV4dCBmaWxsPSIjMDAwMDAwIiBmb250LWZhbWlseT0ic2Fucy1zZXJpZiIgZm9udC1zaXplPSIxMSIgbGVuZ3RoQWRqdXN0PSJzcGFjaW5nIiB0ZXh0TGVuZ3RoPSI2NiIgeD0iNDI4IiB5PSIxODgyLjM1NTUiPiYjMjg4NTc7JiMyMDk4NzsmIzM1NzQ2OyYjMjEzMzM7JiMyNjU5NzsmIzM1ODEwOzwvdGV4dD48cmVjdCBmaWxsPSIjRjFGMUYxIiBoZWlnaHQ9IjMyLjg0MzgiIHJ4PSIxMi41IiByeT0iMTIuNSIgc3R5bGU9InN0cm9rZTojMTgxODE4O3N0cm9rZS13aWR0aDowLjU7IiB3aWR0aD0iOTIiIHg9IjQxNSIgeT0iMTkwOS44NDM4Ii8+PHRleHQgZmlsbD0iIzAwMDAwMCIgZm9udC1mYW1pbHk9InNhbnMtc2VyaWYiIGZvbnQtc2l6ZT0iMTIiIGxlbmd0aEFkanVzdD0ic3BhY2luZyIgdGV4dExlbmd0aD0iNzIiIHg9IjQyNSIgeT0iMTkzMS4xODc1Ij4mIzM1NzQ2OyYjMjEzMzM7JiMyNjU5NzsmIzM1ODEwOyYjMzAwMjg7JiMzODc1NDs8L3RleHQ+PHJlY3QgZmlsbD0iI0YxRjFGMSIgaGVpZ2h0PSIzMi44NDM4IiByeD0iMTIuNSIgcnk9IjEyLjUiIHN0eWxlPSJzdHJva2U6IzE4MTgxODtzdHJva2Utd2lkdGg6MC41OyIgd2lkdGg9IjM1NiIgeD0iMjgzIiB5PSIxOTc0LjQ2MDkiLz48dGV4dCBmaWxsPSIjMDAwMDAwIiBmb250LWZhbWlseT0ic2Fucy1zZXJpZiIgZm9udC1zaXplPSIxMiIgbGVuZ3RoQWRqdXN0PSJzcGFjaW5nIiB0ZXh0TGVuZ3RoPSIzMzYiIHg9IjI5MyIgeT0iMTk5NS44MDQ3Ij4mIzIyNjM1OyYjMjA4ODk7JiMzNTc0NjsmIzIxMzMzOyYjMjE0OTU7JiMxMjI4OTsmIzI1MTYzOyYjMjY0MjY7JiMyMTQ5NTsmIzEyMjg5OyYjMjYwODU7JiMyNjM5OTsmIzI2MTAyOyYjMzgzODg7JiMxMjI4OTsmIzM5MDM4OyYjMjM0NTg7JiMyMjk5NTsmIzIxNTE3OyYjMTIyODk7JiMyMjMyMDsmIzIyMzM2OyYjMzU4MTQ7JiMyNDc3MzsmIzM2ODI3OyYjMzQ4OTI7JiMyNjU5NzsmIzM1ODEwOzwvdGV4dD48cmVjdCBmaWxsPSIjRjFGMUYxIiBoZWlnaHQ9IjMyLjg0MzgiIHJ4PSIxMi41IiByeT0iMTIuNSIgc3R5bGU9InN0cm9rZTojMTgxODE4O3N0cm9rZS13aWR0aDowLjU7IiB3aWR0aD0iMTY0IiB4PSIzNzkiIHk9IjIwMzkuMDc4MSIvPjx0ZXh0IGZpbGw9IiMwMDAwMDAiIGZvbnQtZmFtaWx5PSJzYW5zLXNlcmlmIiBmb250LXNpemU9IjEyIiBsZW5ndGhBZGp1c3Q9InNwYWNpbmciIHRleHRMZW5ndGg9IjE0NCIgeD0iMzg5IiB5PSIyMDYwLjQyMTkiPiYjMjY1OTc7JiMzNTgxMDsmIzIxMDQwOyYjMzAzNDA7JiMzNTc0NjsmIzIxMzMzOyYjMjYxNzQ7JiMzMTAzNDsmIzIyMzEyOyYjMjEwMTU7JiMzNDkyMDsmIzIwMDEzOzwvdGV4dD48cmVjdCBmaWxsPSIjRjFGMUYxIiBoZWlnaHQ9IjMyLjg0MzgiIHJ4PSIxMi41IiByeT0iMTIuNSIgc3R5bGU9InN0cm9rZTojMTgxODE4O3N0cm9rZS13aWR0aDowLjU7IiB3aWR0aD0iNjgiIHg9IjQyNyIgeT0iMjEwMy42OTUzIi8+PHRleHQgZmlsbD0iIzAwMDAwMCIgZm9udC1mYW1pbHk9InNhbnMtc2VyaWYiIGZvbnQtc2l6ZT0iMTIiIGxlbmd0aEFkanVzdD0ic3BhY2luZyIgdGV4dExlbmd0aD0iNDgiIHg9IjQzNyIgeT0iMjEyNS4wMzkxIj4mIzI4ODU3OyYjMjA5ODc7JiMyNTE3MTsmIzIxMzMzOzwvdGV4dD48cmVjdCBmaWxsPSIjRjFGMUYxIiBoZWlnaHQ9IjMyLjg0MzgiIHJ4PSIxMi41IiByeT0iMTIuNSIgc3R5bGU9InN0cm9rZTojMTgxODE4O3N0cm9rZS13aWR0aDowLjU7IiB3aWR0aD0iMTQwIiB4PSIzOTEiIHk9IjIxNTYuNTM5MSIvPjx0ZXh0IGZpbGw9IiMwMDAwMDAiIGZvbnQtZmFtaWx5PSJzYW5zLXNlcmlmIiBmb250LXNpemU9IjEyIiBsZW5ndGhBZGp1c3Q9InNwYWNpbmciIHRleHRMZW5ndGg9IjEyMCIgeD0iNDAxIiB5PSIyMTc3Ljg4MjgiPiYjMzY4MzA7JiMyNTUwOTsmIzIxMDQwOyYjMjUxNzE7JiMyMTMzMzsmIzI2NDI2OyYjMzY4Mjc7JiMzNDg5MjsmIzI1MTcxOyYjMjEzMzM7PC90ZXh0PjxyZWN0IGZpbGw9IiNGMUYxRjEiIGhlaWdodD0iMzIuODQzOCIgcng9IjEyLjUiIHJ5PSIxMi41IiBzdHlsZT0ic3Ryb2tlOiMxODE4MTg7c3Ryb2tlLXdpZHRoOjAuNTsiIHdpZHRoPSIxMDQiIHg9IjQwOSIgeT0iMjIwOS4zODI4Ii8+PHRleHQgZmlsbD0iIzAwMDAwMCIgZm9udC1mYW1pbHk9InNhbnMtc2VyaWYiIGZvbnQtc2l6ZT0iMTIiIGxlbmd0aEFkanVzdD0ic3BhY2luZyIgdGV4dExlbmd0aD0iODQiIHg9IjQxOSIgeT0iMjIzMC43MjY2Ij4mIzI4ODU3OyYjMjA5ODc7JiMyNTE3MTsmIzIxMzMzOyYjMjY0MjY7JiMzNTc3NDsmIzMyNjIyOzwvdGV4dD48cmVjdCBmaWxsPSIjRjFGMUYxIiBoZWlnaHQ9IjMyLjg0MzgiIHJ4PSIxMi41IiByeT0iMTIuNSIgc3R5bGU9InN0cm9rZTojMTgxODE4O3N0cm9rZS13aWR0aDowLjU7IiB3aWR0aD0iMTA0IiB4PSIzMTIiIHk9IjIyODIuMjI2NiIvPjx0ZXh0IGZpbGw9IiMwMDAwMDAiIGZvbnQtZmFtaWx5PSJzYW5zLXNlcmlmIiBmb250LXNpemU9IjEyIiBsZW5ndGhBZGp1c3Q9InNwYWNpbmciIHRleHRMZW5ndGg9Ijg0IiB4PSIzMjIiIHk9IjIzMDMuNTcwMyI+JiMzNjgyMDsmIzIyMjM4OyYjMTk5Nzg7JiMxOTk2ODsmIzMyNDIzOyYjMzM3NTY7JiMyMTMzMzs8L3RleHQ+PHJlY3QgZmlsbD0iI0YxRjFGMSIgaGVpZ2h0PSIzMi44NDM4IiByeD0iMTIuNSIgcnk9IjEyLjUiIHN0eWxlPSJzdHJva2U6IzE4MTgxODtzdHJva2Utd2lkdGg6MC41OyIgd2lkdGg9IjY4IiB4PSIzMzAiIHk9IjIzMzUuMDcwMyIvPjx0ZXh0IGZpbGw9IiMwMDAwMDAiIGZvbnQtZmFtaWx5PSJzYW5zLXNlcmlmIiBmb250LXNpemU9IjEyIiBsZW5ndGhBZGp1c3Q9InNwYWNpbmciIHRleHRMZW5ndGg9IjQ4IiB4PSIzNDAiIHk9IjIzNTYuNDE0MSI+JiMyODg1NzsmIzIwOTg3OyYjMjUxNzE7JiMyMTMzMzs8L3RleHQ+PHJlY3QgZmlsbD0iI0YxRjFGMSIgaGVpZ2h0PSIzMi44NDM4IiByeD0iMTIuNSIgcnk9IjEyLjUiIHN0eWxlPSJzdHJva2U6IzE4MTgxODtzdHJva2Utd2lkdGg6MC41OyIgd2lkdGg9IjE0MCIgeD0iMjk0IiB5PSIyMzg3LjkxNDEiLz48dGV4dCBmaWxsPSIjMDAwMDAwIiBmb250LWZhbWlseT0ic2Fucy1zZXJpZiIgZm9udC1zaXplPSIxMiIgbGVuZ3RoQWRqdXN0PSJzcGFjaW5nIiB0ZXh0TGVuZ3RoPSIxMjAiIHg9IjMwNCIgeT0iMjQwOS4yNTc4Ij4mIzM2ODMwOyYjMjU1MDk7JiMyMTA0MDsmIzI1MTcxOyYjMjEzMzM7JiMyNjQyNjsmIzM2ODI3OyYjMzQ4OTI7JiMyNTE3MTsmIzIxMzMzOzwvdGV4dD48cmVjdCBmaWxsPSIjRjFGMUYxIiBoZWlnaHQ9IjMyLjg0MzgiIHJ4PSIxMi41IiByeT0iMTIuNSIgc3R5bGU9InN0cm9rZTojMTgxODE4O3N0cm9rZS13aWR0aDowLjU7IiB3aWR0aD0iMTA0IiB4PSIzMTIiIHk9IjI0NDAuNzU3OCIvPjx0ZXh0IGZpbGw9IiMwMDAwMDAiIGZvbnQtZmFtaWx5PSJzYW5zLXNlcmlmIiBmb250LXNpemU9IjEyIiBsZW5ndGhBZGp1c3Q9InNwYWNpbmciIHRleHRMZW5ndGg9Ijg0IiB4PSIzMjIiIHk9IjI0NjIuMTAxNiI+JiMyODg1NzsmIzIwOTg3OyYjMjUxNzE7JiMyMTMzMzsmIzI2NDI2OyYjMzU3NzQ7JiMzMjYyMjs8L3RleHQ+PGVsbGlwc2UgY3g9IjM2NCIgY3k9IjI1MDQuNjAxNiIgZmlsbD0ibm9uZSIgcng9IjExIiByeT0iMTEiIHN0eWxlPSJzdHJva2U6IzIyMjIyMjtzdHJva2Utd2lkdGg6MS4wOyIvPjxlbGxpcHNlIGN4PSIzNjQiIGN5PSIyNTA0LjYwMTYiIGZpbGw9IiMyMjIyMjIiIHJ4PSI2IiByeT0iNiIgc3R5bGU9InN0cm9rZTojMTExMTExO3N0cm9rZS13aWR0aDoxLjA7Ii8+PGxpbmUgc3R5bGU9InN0cm9rZTojMTgxODE4O3N0cm9rZS13aWR0aDoxLjA7IiB4MT0iMzY0IiB4Mj0iMzY0IiB5MT0iMzAiIHkyPSI1MCIvPjxwb2x5Z29uIGZpbGw9IiMxODE4MTgiIHBvaW50cz0iMzYwLDQwLDM2NCw1MCwzNjgsNDAsMzY0LDQ0IiBzdHlsZT0ic3Ryb2tlOiMxODE4MTg7c3Ryb2tlLXdpZHRoOjEuMDsiLz48bGluZSBzdHlsZT0ic3Ryb2tlOiMxODE4MTg7c3Ryb2tlLXdpZHRoOjEuMDsiIHgxPSIzNjQiIHgyPSIzNjQiIHkxPSI4Mi44NDM4IiB5Mj0iMTAyLjg0MzgiLz48cG9seWdvbiBmaWxsPSIjMTgxODE4IiBwb2ludHM9IjM2MCw5Mi44NDM4LDM2NCwxMDIuODQzOCwzNjgsOTIuODQzOCwzNjQsOTYuODQzOCIgc3R5bGU9InN0cm9rZTojMTgxODE4O3N0cm9rZS13aWR0aDoxLjA7Ii8+PGxpbmUgc3R5bGU9InN0cm9rZTojMTgxODE4O3N0cm9rZS13aWR0aDoxLjA7IiB4MT0iMjI4IiB4Mj0iMjI4IiB5MT0iMTc5LjY4NzUiIHkyPSIyMTEuNDYwOSIvPjxwb2x5Z29uIGZpbGw9IiMxODE4MTgiIHBvaW50cz0iMjI0LDIwMS40NjA5LDIyOCwyMTEuNDYwOSwyMzIsMjAxLjQ2MDksMjI4LDIwNS40NjA5IiBzdHlsZT0ic3Ryb2tlOiMxODE4MTg7c3Ryb2tlLXdpZHRoOjEuMDsiLz48bGluZSBzdHlsZT0ic3Ryb2tlOiMxODE4MTg7c3Ryb2tlLXdpZHRoOjEuMDsiIHgxPSIyMjgiIHgyPSIyMjgiIHkxPSIyNDQuMzA0NyIgeTI9IjI2NC4zMDQ3Ii8+PHBvbHlnb24gZmlsbD0iIzE4MTgxOCIgcG9pbnRzPSIyMjQsMjU0LjMwNDcsMjI4LDI2NC4zMDQ3LDIzMiwyNTQuMzA0NywyMjgsMjU4LjMwNDciIHN0eWxlPSJzdHJva2U6IzE4MTgxODtzdHJva2Utd2lkdGg6MS4wOyIvPjxsaW5lIHN0eWxlPSJzdHJva2U6IzE4MTgxODtzdHJva2Utd2lkdGg6MS4wOyIgeDE9IjM5NiIgeDI9IjM5NiIgeTE9IjE3OS42ODc1IiB5Mj0iMTk5LjY4NzUiLz48cG9seWdvbiBmaWxsPSIjMTgxODE4IiBwb2ludHM9IjM5MiwxODkuNjg3NSwzOTYsMTk5LjY4NzUsNDAwLDE4OS42ODc1LDM5NiwxOTMuNjg3NSIgc3R5bGU9InN0cm9rZTojMTgxODE4O3N0cm9rZS13aWR0aDoxLjA7Ii8+PGxpbmUgc3R5bGU9InN0cm9rZTojMTgxODE4O3N0cm9rZS13aWR0aDoxLjA7IiB4MT0iMzk2IiB4Mj0iMzk2IiB5MT0iMjMyLjUzMTMiIHkyPSIyNjQuMzA0NyIvPjxwb2x5Z29uIGZpbGw9IiMxODE4MTgiIHBvaW50cz0iMzkyLDI1NC4zMDQ3LDM5NiwyNjQuMzA0Nyw0MDAsMjU0LjMwNDcsMzk2LDI1OC4zMDQ3IiBzdHlsZT0ic3Ryb2tlOiMxODE4MTg7c3Ryb2tlLXdpZHRoOjEuMDsiLz48bGluZSBzdHlsZT0ic3Ryb2tlOiMxODE4MTg7c3Ryb2tlLXdpZHRoOjEuMDsiIHgxPSIzMDYiIHgyPSIzNTEiIHkxPSIxNjcuNjg3NSIgeTI9IjE2Ny42ODc1Ii8+PHBvbHlnb24gZmlsbD0iIzE4MTgxOCIgcG9pbnRzPSIzNDEsMTYzLjY4NzUsMzUxLDE2Ny42ODc1LDM0MSwxNzEuNjg3NSwzNDUsMTY3LjY4NzUiIHN0eWxlPSJzdHJva2U6IzE4MTgxODtzdHJva2Utd2lkdGg6MS4wOyIvPjxsaW5lIHN0eWxlPSJzdHJva2U6IzE4MTgxODtzdHJva2Utd2lkdGg6MS4wOyIgeDE9IjM2NCIgeDI9IjM2NCIgeTE9IjEzNS42ODc1IiB5Mj0iMTQwLjY4NzUiLz48bGluZSBzdHlsZT0ic3Ryb2tlOiMxODE4MTg7c3Ryb2tlLXdpZHRoOjEuMDsiIHgxPSIzNjQiIHgyPSIyMjgiIHkxPSIxNDAuNjg3NSIgeTI9IjE0MC42ODc1Ii8+PGxpbmUgc3R5bGU9InN0cm9rZTojMTgxODE4O3N0cm9rZS13aWR0aDoxLjA7IiB4MT0iMjI4IiB4Mj0iMjI4IiB5MT0iMTQwLjY4NzUiIHkyPSIxNTUuNjg3NSIvPjxwb2x5Z29uIGZpbGw9IiMxODE4MTgiIHBvaW50cz0iMjI0LDE0NS42ODc1LDIyOCwxNTUuNjg3NSwyMzIsMTQ1LjY4NzUsMjI4LDE0OS42ODc1IiBzdHlsZT0ic3Ryb2tlOiMxODE4MTg7c3Ryb2tlLXdpZHRoOjEuMDsiLz48bGluZSBzdHlsZT0ic3Ryb2tlOiMxODE4MTg7c3Ryb2tlLXdpZHRoOjEuMDsiIHgxPSI0NDEiIHgyPSI1MzIiIHkxPSIxNjcuNjg3NSIgeTI9IjE2Ny42ODc1Ii8+PGxpbmUgc3R5bGU9InN0cm9rZTojMTgxODE4O3N0cm9rZS13aWR0aDoxLjA7IiB4MT0iNTMyIiB4Mj0iNTMyIiB5MT0iMTY3LjY4NzUiIHkyPSIyMDguNTc0MiIvPjxwb2x5Z29uIGZpbGw9IiMxODE4MTgiIHBvaW50cz0iNTI4LDE5OC41NzQyLDUzMiwyMDguNTc0Miw1MzYsMTk4LjU3NDIsNTMyLDIwMi41NzQyIiBzdHlsZT0ic3Ryb2tlOiMxODE4MTg7c3Ryb2tlLXdpZHRoOjEuMDsiLz48bGluZSBzdHlsZT0ic3Ryb2tlOiMxODE4MTg7c3Ryb2tlLXdpZHRoOjEuMDsiIHgxPSI1MzIiIHgyPSI1MzIiIHkxPSIyNDEuNDE4IiB5Mj0iMjY0LjMwNDciLz48cG9seWdvbiBmaWxsPSIjMTgxODE4IiBwb2ludHM9IjUyOCwyNTQuMzA0Nyw1MzIsMjY0LjMwNDcsNTM2LDI1NC4zMDQ3LDUzMiwyNTguMzA0NyIgc3R5bGU9InN0cm9rZTojMTgxODE4O3N0cm9rZS13aWR0aDoxLjA7Ii8+PGxpbmUgc3R5bGU9InN0cm9rZTojMTgxODE4O3N0cm9rZS13aWR0aDoxLjA7IiB4MT0iMjI4IiB4Mj0iNTMyIiB5MT0iMjY0LjMwNDciIHkyPSIyNjQuMzA0NyIvPjxsaW5lIHN0eWxlPSJzdHJva2U6IzE4MTgxODtzdHJva2Utd2lkdGg6MS4wOyIgeDE9IjM2NCIgeDI9IjM2NCIgeTE9IjI2NC4zMDQ3IiB5Mj0iMjg0LjMwNDciLz48cG9seWdvbiBmaWxsPSIjMTgxODE4IiBwb2ludHM9IjM2MCwyNzQuMzA0NywzNjQsMjg0LjMwNDcsMzY4LDI3NC4zMDQ3LDM2NCwyNzguMzA0NyIgc3R5bGU9InN0cm9rZTojMTgxODE4O3N0cm9rZS13aWR0aDoxLjA7Ii8+PGxpbmUgc3R5bGU9InN0cm9rZTojMTgxODE4O3N0cm9rZS13aWR0aDoxLjA7IiB4MT0iMTI5IiB4Mj0iMTI5IiB5MT0iNDI1Ljc2NTYiIHkyPSI0NTcuNTM5MSIvPjxwb2x5Z29uIGZpbGw9IiMxODE4MTgiIHBvaW50cz0iMTI1LDQ0Ny41MzkxLDEyOSw0NTcuNTM5MSwxMzMsNDQ3LjUzOTEsMTI5LDQ1MS41MzkxIiBzdHlsZT0ic3Ryb2tlOiMxODE4MTg7c3Ryb2tlLXdpZHRoOjEuMDsiLz48bGluZSBzdHlsZT0ic3Ryb2tlOiMxODE4MTg7c3Ryb2tlLXdpZHRoOjEuMDsiIHgxPSIxMjkiIHgyPSIxMjkiIHkxPSI0OTAuMzgyOCIgeTI9IjUyMi4xNTYzIi8+PHBvbHlnb24gZmlsbD0iIzE4MTgxOCIgcG9pbnRzPSIxMjUsNTEyLjE1NjMsMTI5LDUyMi4xNTYzLDEzMyw1MTIuMTU2MywxMjksNTE2LjE1NjMiIHN0eWxlPSJzdHJva2U6IzE4MTgxODtzdHJva2Utd2lkdGg6MS4wOyIvPjxsaW5lIHN0eWxlPSJzdHJva2U6IzE4MTgxODtzdHJva2Utd2lkdGg6MS4wOyIgeDE9IjQ2NyIgeDI9IjQ2NyIgeTE9IjQxMy45OTIyIiB5Mj0iNDQ1Ljc2NTYiLz48cG9seWdvbiBmaWxsPSIjMTgxODE4IiBwb2ludHM9IjQ2Myw0MzUuNzY1Niw0NjcsNDQ1Ljc2NTYsNDcxLDQzNS43NjU2LDQ2Nyw0MzkuNzY1NiIgc3R5bGU9InN0cm9rZTojMTgxODE4O3N0cm9rZS13aWR0aDoxLjA7Ii8+PGxpbmUgc3R5bGU9InN0cm9rZTojMTgxODE4O3N0cm9rZS13aWR0aDoxLjA7IiB4MT0iNDY3IiB4Mj0iNDY3IiB5MT0iNDc4LjYwOTQiIHkyPSI1MTAuMzgyOCIvPjxwb2x5Z29uIGZpbGw9IiMxODE4MTgiIHBvaW50cz0iNDYzLDUwMC4zODI4LDQ2Nyw1MTAuMzgyOCw0NzEsNTAwLjM4MjgsNDY3LDUwNC4zODI4IiBzdHlsZT0ic3Ryb2tlOiMxODE4MTg7c3Ryb2tlLXdpZHRoOjEuMDsiLz48bGluZSBzdHlsZT0ic3Ryb2tlOiMxODE4MTg7c3Ryb2tlLXdpZHRoOjEuMDsiIHgxPSI0NjcuNSIgeDI9IjQ0MyIgeTE9IjY0Mi43NzM0IiB5Mj0iNjQyLjc3MzQiLz48bGluZSBzdHlsZT0ic3Ryb2tlOiMxODE4MTg7c3Ryb2tlLXdpZHRoOjEuMDsiIHgxPSI0NDMiIHgyPSI0NDMiIHkxPSI2NDIuNzczNCIgeTI9IjY2NC43NzM0Ii8+PHBvbHlnb24gZmlsbD0iIzE4MTgxOCIgcG9pbnRzPSI0MzksNjU0Ljc3MzQsNDQzLDY2NC43NzM0LDQ0Nyw2NTQuNzczNCw0NDMsNjU4Ljc3MzQiIHN0eWxlPSJzdHJva2U6IzE4MTgxODtzdHJva2Utd2lkdGg6MS4wOyIvPjxsaW5lIHN0eWxlPSJzdHJva2U6IzE4MTgxODtzdHJva2Utd2lkdGg6MS4wOyIgeDE9IjUyNC41IiB4Mj0iNTQ5IiB5MT0iNjQyLjc3MzQiIHkyPSI2NDIuNzczNCIvPjxsaW5lIHN0eWxlPSJzdHJva2U6IzE4MTgxODtzdHJva2Utd2lkdGg6MS4wOyIgeDE9IjU0OSIgeDI9IjU0OSIgeTE9IjY0Mi43NzM0IiB5Mj0iNjY0Ljc3MzQiLz48cG9seWdvbiBmaWxsPSIjMTgxODE4IiBwb2ludHM9IjU0NSw2NTQuNzczNCw1NDksNjY0Ljc3MzQsNTUzLDY1NC43NzM0LDU0OSw2NTguNzczNCIgc3R5bGU9InN0cm9rZTojMTgxODE4O3N0cm9rZS13aWR0aDoxLjA7Ii8+PGxpbmUgc3R5bGU9InN0cm9rZTojMTgxODE4O3N0cm9rZS13aWR0aDoxLjA7IiB4MT0iNDQzIiB4Mj0iNDQzIiB5MT0iNjk3LjYxNzIiIHkyPSI3MTUuNjE3MiIvPjxsaW5lIHN0eWxlPSJzdHJva2U6IzE4MTgxODtzdHJva2Utd2lkdGg6MS4wOyIgeDE9IjQ0MyIgeDI9IjQ4NCIgeTE9IjcxNS42MTcyIiB5Mj0iNzE1LjYxNzIiLz48cG9seWdvbiBmaWxsPSIjMTgxODE4IiBwb2ludHM9IjQ3NCw3MTEuNjE3Miw0ODQsNzE1LjYxNzIsNDc0LDcxOS42MTcyLDQ3OCw3MTUuNjE3MiIgc3R5bGU9InN0cm9rZTojMTgxODE4O3N0cm9rZS13aWR0aDoxLjA7Ii8+PGxpbmUgc3R5bGU9InN0cm9rZTojMTgxODE4O3N0cm9rZS13aWR0aDoxLjA7IiB4MT0iNTQ5IiB4Mj0iNTQ5IiB5MT0iNjk3LjYxNzIiIHkyPSI3MTUuNjE3MiIvPjxsaW5lIHN0eWxlPSJzdHJva2U6IzE4MTgxODtzdHJva2Utd2lkdGg6MS4wOyIgeDE9IjU0OSIgeDI9IjUwOCIgeTE9IjcxNS42MTcyIiB5Mj0iNzE1LjYxNzIiLz48cG9seWdvbiBmaWxsPSIjMTgxODE4IiBwb2ludHM9IjUxOCw3MTEuNjE3Miw1MDgsNzE1LjYxNzIsNTE4LDcxOS42MTcyLDUxNCw3MTUuNjE3MiIgc3R5bGU9InN0cm9rZTojMTgxODE4O3N0cm9rZS13aWR0aDoxLjA7Ii8+PGxpbmUgc3R5bGU9InN0cm9rZTojMTgxODE4O3N0cm9rZS13aWR0aDoxLjA7IiB4MT0iMzEzIiB4Mj0iMzEzIiB5MT0iNTk5IiB5Mj0iNjMwLjc3MzQiLz48cG9seWdvbiBmaWxsPSIjMTgxODE4IiBwb2ludHM9IjMwOSw2MjAuNzczNCwzMTMsNjMwLjc3MzQsMzE3LDYyMC43NzM0LDMxMyw2MjQuNzczNCIgc3R5bGU9InN0cm9rZTojMTgxODE4O3N0cm9rZS13aWR0aDoxLjA7Ii8+PGxpbmUgc3R5bGU9InN0cm9rZTojMTgxODE4O3N0cm9rZS13aWR0aDoxLjA7IiB4MT0iMzEzIiB4Mj0iMzEzIiB5MT0iNjYzLjYxNzIiIHkyPSI3NDcuNjE3MiIvPjxwb2x5Z29uIGZpbGw9IiMxODE4MTgiIHBvaW50cz0iMzA5LDczNy42MTcyLDMxMyw3NDcuNjE3MiwzMTcsNzM3LjYxNzIsMzEzLDc0MS42MTcyIiBzdHlsZT0ic3Ryb2tlOiMxODE4MTg7c3Ryb2tlLXdpZHRoOjEuMDsiLz48bGluZSBzdHlsZT0ic3Ryb2tlOiMxODE4MTg7c3Ryb2tlLXdpZHRoOjEuMDsiIHgxPSI0OTYiIHgyPSI0OTYiIHkxPSI1OTkiIHkyPSI2MzAuNzczNCIvPjxwb2x5Z29uIGZpbGw9IiMxODE4MTgiIHBvaW50cz0iNDkyLDYyMC43NzM0LDQ5Niw2MzAuNzczNCw1MDAsNjIwLjc3MzQsNDk2LDYyNC43NzM0IiBzdHlsZT0ic3Ryb2tlOiMxODE4MTg7c3Ryb2tlLXdpZHRoOjEuMDsiLz48bGluZSBzdHlsZT0ic3Ryb2tlOiMxODE4MTg7c3Ryb2tlLXdpZHRoOjEuMDsiIHgxPSI0OTYiIHgyPSI0OTYiIHkxPSI3MjcuNjE3MiIgeTI9Ijc0Ny42MTcyIi8+PHBvbHlnb24gZmlsbD0iIzE4MTgxOCIgcG9pbnRzPSI0OTIsNzM3LjYxNzIsNDk2LDc0Ny42MTcyLDUwMCw3MzcuNjE3Miw0OTYsNzQxLjYxNzIiIHN0eWxlPSJzdHJva2U6IzE4MTgxODtzdHJva2Utd2lkdGg6MS4wOyIvPjxsaW5lIHN0eWxlPSJzdHJva2U6IzE4MTgxODtzdHJva2Utd2lkdGg6MS4wOyIgeDE9IjM0NyIgeDI9IjQ2MiIgeTE9IjU4NyIgeTI9IjU4NyIvPjxwb2x5Z29uIGZpbGw9IiMxODE4MTgiIHBvaW50cz0iNDUyLDU4Myw0NjIsNTg3LDQ1Miw1OTEsNDU2LDU4NyIgc3R5bGU9InN0cm9rZTojMTgxODE4O3N0cm9rZS13aWR0aDoxLjA7Ii8+PGxpbmUgc3R5bGU9InN0cm9rZTojMTgxODE4O3N0cm9rZS13aWR0aDoxLjA7IiB4MT0iNDY3IiB4Mj0iNDY3IiB5MT0iNTQzLjIyNjYiIHkyPSI1NjAiLz48bGluZSBzdHlsZT0ic3Ryb2tlOiMxODE4MTg7c3Ryb2tlLXdpZHRoOjEuMDsiIHgxPSI0NjciIHgyPSIzMTMiIHkxPSI1NjAiIHkyPSI1NjAiLz48bGluZSBzdHlsZT0ic3Ryb2tlOiMxODE4MTg7c3Ryb2tlLXdpZHRoOjEuMDsiIHgxPSIzMTMiIHgyPSIzMTMiIHkxPSI1NjAiIHkyPSI1NzUiLz48cG9seWdvbiBmaWxsPSIjMTgxODE4IiBwb2ludHM9IjMwOSw1NjUsMzEzLDU3NSwzMTcsNTY1LDMxMyw1NjkiIHN0eWxlPSJzdHJva2U6IzE4MTgxODtzdHJva2Utd2lkdGg6MS4wOyIvPjxsaW5lIHN0eWxlPSJzdHJva2U6IzE4MTgxODtzdHJva2Utd2lkdGg6MS4wOyIgeDE9IjUzMCIgeDI9IjY1MiIgeTE9IjU4NyIgeTI9IjU4NyIvPjxsaW5lIHN0eWxlPSJzdHJva2U6IzE4MTgxODtzdHJva2Utd2lkdGg6MS4wOyIgeDE9IjY1MiIgeDI9IjY1MiIgeTE9IjU4NyIgeTI9Ijc0Ny42MTcyIi8+PHBvbHlnb24gZmlsbD0iIzE4MTgxOCIgcG9pbnRzPSI2NDgsNzM3LjYxNzIsNjUyLDc0Ny42MTcyLDY1Niw3MzcuNjE3Miw2NTIsNzQxLjYxNzIiIHN0eWxlPSJzdHJva2U6IzE4MTgxODtzdHJva2Utd2lkdGg6MS4wOyIvPjxsaW5lIHN0eWxlPSJzdHJva2U6IzE4MTgxODtzdHJva2Utd2lkdGg6MS4wOyIgeDE9IjMxMyIgeDI9IjY1MiIgeTE9Ijc0Ny42MTcyIiB5Mj0iNzQ3LjYxNzIiLz48bGluZSBzdHlsZT0ic3Ryb2tlOiMxODE4MTg7c3Ryb2tlLXdpZHRoOjEuMDsiIHgxPSIxMjkiIHgyPSIxMjkiIHkxPSIzNjEuMTQ4NCIgeTI9IjM5Mi45MjE5Ii8+PHBvbHlnb24gZmlsbD0iIzE4MTgxOCIgcG9pbnRzPSIxMjUsMzgyLjkyMTksMTI5LDM5Mi45MjE5LDEzMywzODIuOTIxOSwxMjksMzg2LjkyMTkiIHN0eWxlPSJzdHJva2U6IzE4MTgxODtzdHJva2Utd2lkdGg6MS4wOyIvPjxsaW5lIHN0eWxlPSJzdHJva2U6IzE4MTgxODtzdHJva2Utd2lkdGg6MS4wOyIgeDE9IjEyOSIgeDI9IjEyOSIgeTE9IjU1NSIgeTI9Ijc2Ny42MTcyIi8+PHBvbHlnb24gZmlsbD0iIzE4MTgxOCIgcG9pbnRzPSIxMjUsNzU3LjYxNzIsMTI5LDc2Ny42MTcyLDEzMyw3NTcuNjE3MiwxMjksNzYxLjYxNzIiIHN0eWxlPSJzdHJva2U6IzE4MTgxODtzdHJva2Utd2lkdGg6MS4wOyIvPjxsaW5lIHN0eWxlPSJzdHJva2U6IzE4MTgxODtzdHJva2Utd2lkdGg6MS4wOyIgeDE9IjQ2NyIgeDI9IjQ2NyIgeTE9IjM2MS4xNDg0IiB5Mj0iMzgxLjE0ODQiLz48cG9seWdvbiBmaWxsPSIjMTgxODE4IiBwb2ludHM9IjQ2MywzNzEuMTQ4NCw0NjcsMzgxLjE0ODQsNDcxLDM3MS4xNDg0LDQ2NywzNzUuMTQ4NCIgc3R5bGU9InN0cm9rZTojMTgxODE4O3N0cm9rZS13aWR0aDoxLjA7Ii8+PGxpbmUgc3R5bGU9InN0cm9rZTojMTgxODE4O3N0cm9rZS13aWR0aDoxLjA7IiB4MT0iNDY3IiB4Mj0iNDY3IiB5MT0iNzQ3LjYxNzIiIHkyPSI3NjcuNjE3MiIvPjxwb2x5Z29uIGZpbGw9IiMxODE4MTgiIHBvaW50cz0iNDYzLDc1Ny42MTcyLDQ2Nyw3NjcuNjE3Miw0NzEsNzU3LjYxNzIsNDY3LDc2MS42MTcyIiBzdHlsZT0ic3Ryb2tlOiMxODE4MTg7c3Ryb2tlLXdpZHRoOjEuMDsiLz48bGluZSBzdHlsZT0ic3Ryb2tlOiMxODE4MTg7c3Ryb2tlLXdpZHRoOjEuMDsiIHgxPSIxOTAuNSIgeDI9IjQyMiIgeTE9IjM0OS4xNDg0IiB5Mj0iMzQ5LjE0ODQiLz48cG9seWdvbiBmaWxsPSIjMTgxODE4IiBwb2ludHM9IjQxMiwzNDUuMTQ4NCw0MjIsMzQ5LjE0ODQsNDEyLDM1My4xNDg0LDQxNiwzNDkuMTQ4NCIgc3R5bGU9InN0cm9rZTojMTgxODE4O3N0cm9rZS13aWR0aDoxLjA7Ii8+PGxpbmUgc3R5bGU9InN0cm9rZTojMTgxODE4O3N0cm9rZS13aWR0aDoxLjA7IiB4MT0iMzY0IiB4Mj0iMzY0IiB5MT0iMzE3LjE0ODQiIHkyPSIzMjIuMTQ4NCIvPjxsaW5lIHN0eWxlPSJzdHJva2U6IzE4MTgxODtzdHJva2Utd2lkdGg6MS4wOyIgeDE9IjM2NCIgeDI9IjEyOSIgeTE9IjMyMi4xNDg0IiB5Mj0iMzIyLjE0ODQiLz48bGluZSBzdHlsZT0ic3Ryb2tlOiMxODE4MTg7c3Ryb2tlLXdpZHRoOjEuMDsiIHgxPSIxMjkiIHgyPSIxMjkiIHkxPSIzMjIuMTQ4NCIgeTI9IjMzNy4xNDg0Ii8+PHBvbHlnb24gZmlsbD0iIzE4MTgxOCIgcG9pbnRzPSIxMjUsMzI3LjE0ODQsMTI5LDMzNy4xNDg0LDEzMywzMjcuMTQ4NCwxMjksMzMxLjE0ODQiIHN0eWxlPSJzdHJva2U6IzE4MTgxODtzdHJva2Utd2lkdGg6MS4wOyIvPjxsaW5lIHN0eWxlPSJzdHJva2U6IzE4MTgxODtzdHJva2Utd2lkdGg6MS4wOyIgeDE9IjUxMiIgeDI9IjY4OCIgeTE9IjM0OS4xNDg0IiB5Mj0iMzQ5LjE0ODQiLz48bGluZSBzdHlsZT0ic3Ryb2tlOiMxODE4MTg7c3Ryb2tlLXdpZHRoOjEuMDsiIHgxPSI2ODgiIHgyPSI2ODgiIHkxPSIzNDkuMTQ4NCIgeTI9Ijc2Ny42MTcyIi8+PHBvbHlnb24gZmlsbD0iIzE4MTgxOCIgcG9pbnRzPSI2ODQsNzU3LjYxNzIsNjg4LDc2Ny42MTcyLDY5Miw3NTcuNjE3Miw2ODgsNzYxLjYxNzIiIHN0eWxlPSJzdHJva2U6IzE4MTgxODtzdHJva2Utd2lkdGg6MS4wOyIvPjxsaW5lIHN0eWxlPSJzdHJva2U6IzE4MTgxODtzdHJva2Utd2lkdGg6MS4wOyIgeDE9IjEyOSIgeDI9IjY4OCIgeTE9Ijc2Ny42MTcyIiB5Mj0iNzY3LjYxNzIiLz48bGluZSBzdHlsZT0ic3Ryb2tlOiMxODE4MTg7c3Ryb2tlLXdpZHRoOjEuMDsiIHgxPSIzNjQiIHgyPSIzNjQiIHkxPSI3NjcuNjE3MiIgeTI9Ijc4Ny42MTcyIi8+PHBvbHlnb24gZmlsbD0iIzE4MTgxOCIgcG9pbnRzPSIzNjAsNzc3LjYxNzIsMzY0LDc4Ny42MTcyLDM2OCw3NzcuNjE3MiwzNjQsNzgxLjYxNzIiIHN0eWxlPSJzdHJva2U6IzE4MTgxODtzdHJva2Utd2lkdGg6MS4wOyIvPjxsaW5lIHN0eWxlPSJzdHJva2U6IzE4MTgxODtzdHJva2Utd2lkdGg6MS4wOyIgeDE9IjM2NCIgeDI9IjM2NCIgeTE9IjgyMC40NjA5IiB5Mj0iODQwLjQ2MDkiLz48cG9seWdvbiBmaWxsPSIjMTgxODE4IiBwb2ludHM9IjM2MCw4MzAuNDYwOSwzNjQsODQwLjQ2MDksMzY4LDgzMC40NjA5LDM2NCw4MzQuNDYwOSIgc3R5bGU9InN0cm9rZTojMTgxODE4O3N0cm9rZS13aWR0aDoxLjA7Ii8+PGxpbmUgc3R5bGU9InN0cm9rZTojMTgxODE4O3N0cm9rZS13aWR0aDoxLjA7IiB4MT0iMTI5IiB4Mj0iMTI5IiB5MT0iOTgxLjkyMTkiIHkyPSIxMDEzLjY5NTMiLz48cG9seWdvbiBmaWxsPSIjMTgxODE4IiBwb2ludHM9IjEyNSwxMDAzLjY5NTMsMTI5LDEwMTMuNjk1MywxMzMsMTAwMy42OTUzLDEyOSwxMDA3LjY5NTMiIHN0eWxlPSJzdHJva2U6IzE4MTgxODtzdHJva2Utd2lkdGg6MS4wOyIvPjxsaW5lIHN0eWxlPSJzdHJva2U6IzE4MTgxODtzdHJva2Utd2lkdGg6MS4wOyIgeDE9IjEyOSIgeDI9IjEyOSIgeTE9IjEwNDYuNTM5MSIgeTI9IjEwNzguMzEyNSIvPjxwb2x5Z29uIGZpbGw9IiMxODE4MTgiIHBvaW50cz0iMTI1LDEwNjguMzEyNSwxMjksMTA3OC4zMTI1LDEzMywxMDY4LjMxMjUsMTI5LDEwNzIuMzEyNSIgc3R5bGU9InN0cm9rZTojMTgxODE4O3N0cm9rZS13aWR0aDoxLjA7Ii8+PGxpbmUgc3R5bGU9InN0cm9rZTojMTgxODE4O3N0cm9rZS13aWR0aDoxLjA7IiB4MT0iNDY3IiB4Mj0iNDY3IiB5MT0iOTcwLjE0ODQiIHkyPSIxMDAxLjkyMTkiLz48cG9seWdvbiBmaWxsPSIjMTgxODE4IiBwb2ludHM9IjQ2Myw5OTEuOTIxOSw0NjcsMTAwMS45MjE5LDQ3MSw5OTEuOTIxOSw0NjcsOTk1LjkyMTkiIHN0eWxlPSJzdHJva2U6IzE4MTgxODtzdHJva2Utd2lkdGg6MS4wOyIvPjxsaW5lIHN0eWxlPSJzdHJva2U6IzE4MTgxODtzdHJva2Utd2lkdGg6MS4wOyIgeDE9IjQ2NyIgeDI9IjQ2NyIgeTE9IjEwMzQuNzY1NiIgeTI9IjEwNjYuNTM5MSIvPjxwb2x5Z29uIGZpbGw9IiMxODE4MTgiIHBvaW50cz0iNDYzLDEwNTYuNTM5MSw0NjcsMTA2Ni41MzkxLDQ3MSwxMDU2LjUzOTEsNDY3LDEwNjAuNTM5MSIgc3R5bGU9InN0cm9rZTojMTgxODE4O3N0cm9rZS13aWR0aDoxLjA7Ii8+PGxpbmUgc3R5bGU9InN0cm9rZTojMTgxODE4O3N0cm9rZS13aWR0aDoxLjA7IiB4MT0iNDY3LjUiIHgyPSI0NDMiIHkxPSIxMTk4LjkyOTciIHkyPSIxMTk4LjkyOTciLz48bGluZSBzdHlsZT0ic3Ryb2tlOiMxODE4MTg7c3Ryb2tlLXdpZHRoOjEuMDsiIHgxPSI0NDMiIHgyPSI0NDMiIHkxPSIxMTk4LjkyOTciIHkyPSIxMjIwLjkyOTciLz48cG9seWdvbiBmaWxsPSIjMTgxODE4IiBwb2ludHM9IjQzOSwxMjEwLjkyOTcsNDQzLDEyMjAuOTI5Nyw0NDcsMTIxMC45Mjk3LDQ0MywxMjE0LjkyOTciIHN0eWxlPSJzdHJva2U6IzE4MTgxODtzdHJva2Utd2lkdGg6MS4wOyIvPjxsaW5lIHN0eWxlPSJzdHJva2U6IzE4MTgxODtzdHJva2Utd2lkdGg6MS4wOyIgeDE9IjUyNC41IiB4Mj0iNTQ5IiB5MT0iMTE5OC45Mjk3IiB5Mj0iMTE5OC45Mjk3Ii8+PGxpbmUgc3R5bGU9InN0cm9rZTojMTgxODE4O3N0cm9rZS13aWR0aDoxLjA7IiB4MT0iNTQ5IiB4Mj0iNTQ5IiB5MT0iMTE5OC45Mjk3IiB5Mj0iMTIyMC45Mjk3Ii8+PHBvbHlnb24gZmlsbD0iIzE4MTgxOCIgcG9pbnRzPSI1NDUsMTIxMC45Mjk3LDU0OSwxMjIwLjkyOTcsNTUzLDEyMTAuOTI5Nyw1NDksMTIxNC45Mjk3IiBzdHlsZT0ic3Ryb2tlOiMxODE4MTg7c3Ryb2tlLXdpZHRoOjEuMDsiLz48bGluZSBzdHlsZT0ic3Ryb2tlOiMxODE4MTg7c3Ryb2tlLXdpZHRoOjEuMDsiIHgxPSI0NDMiIHgyPSI0NDMiIHkxPSIxMjUzLjc3MzQiIHkyPSIxMjcxLjc3MzQiLz48bGluZSBzdHlsZT0ic3Ryb2tlOiMxODE4MTg7c3Ryb2tlLXdpZHRoOjEuMDsiIHgxPSI0NDMiIHgyPSI0ODQiIHkxPSIxMjcxLjc3MzQiIHkyPSIxMjcxLjc3MzQiLz48cG9seWdvbiBmaWxsPSIjMTgxODE4IiBwb2ludHM9IjQ3NCwxMjY3Ljc3MzQsNDg0LDEyNzEuNzczNCw0NzQsMTI3NS43NzM0LDQ3OCwxMjcxLjc3MzQiIHN0eWxlPSJzdHJva2U6IzE4MTgxODtzdHJva2Utd2lkdGg6MS4wOyIvPjxsaW5lIHN0eWxlPSJzdHJva2U6IzE4MTgxODtzdHJva2Utd2lkdGg6MS4wOyIgeDE9IjU0OSIgeDI9IjU0OSIgeTE9IjEyNTMuNzczNCIgeTI9IjEyNzEuNzczNCIvPjxsaW5lIHN0eWxlPSJzdHJva2U6IzE4MTgxODtzdHJva2Utd2lkdGg6MS4wOyIgeDE9IjU0OSIgeDI9IjUwOCIgeTE9IjEyNzEuNzczNCIgeTI9IjEyNzEuNzczNCIvPjxwb2x5Z29uIGZpbGw9IiMxODE4MTgiIHBvaW50cz0iNTE4LDEyNjcuNzczNCw1MDgsMTI3MS43NzM0LDUxOCwxMjc1Ljc3MzQsNTE0LDEyNzEuNzczNCIgc3R5bGU9InN0cm9rZTojMTgxODE4O3N0cm9rZS13aWR0aDoxLjA7Ii8+PGxpbmUgc3R5bGU9InN0cm9rZTojMTgxODE4O3N0cm9rZS13aWR0aDoxLjA7IiB4MT0iMzEzIiB4Mj0iMzEzIiB5MT0iMTE1NS4xNTYzIiB5Mj0iMTE4Ni45Mjk3Ii8+PHBvbHlnb24gZmlsbD0iIzE4MTgxOCIgcG9pbnRzPSIzMDksMTE3Ni45Mjk3LDMxMywxMTg2LjkyOTcsMzE3LDExNzYuOTI5NywzMTMsMTE4MC45Mjk3IiBzdHlsZT0ic3Ryb2tlOiMxODE4MTg7c3Ryb2tlLXdpZHRoOjEuMDsiLz48bGluZSBzdHlsZT0ic3Ryb2tlOiMxODE4MTg7c3Ryb2tlLXdpZHRoOjEuMDsiIHgxPSIzMTMiIHgyPSIzMTMiIHkxPSIxMjE5Ljc3MzQiIHkyPSIxMzAzLjc3MzQiLz48cG9seWdvbiBmaWxsPSIjMTgxODE4IiBwb2ludHM9IjMwOSwxMjkzLjc3MzQsMzEzLDEzMDMuNzczNCwzMTcsMTI5My43NzM0LDMxMywxMjk3Ljc3MzQiIHN0eWxlPSJzdHJva2U6IzE4MTgxODtzdHJva2Utd2lkdGg6MS4wOyIvPjxsaW5lIHN0eWxlPSJzdHJva2U6IzE4MTgxODtzdHJva2Utd2lkdGg6MS4wOyIgeDE9IjQ5NiIgeDI9IjQ5NiIgeTE9IjExNTUuMTU2MyIgeTI9IjExODYuOTI5NyIvPjxwb2x5Z29uIGZpbGw9IiMxODE4MTgiIHBvaW50cz0iNDkyLDExNzYuOTI5Nyw0OTYsMTE4Ni45Mjk3LDUwMCwxMTc2LjkyOTcsNDk2LDExODAuOTI5NyIgc3R5bGU9InN0cm9rZTojMTgxODE4O3N0cm9rZS13aWR0aDoxLjA7Ii8+PGxpbmUgc3R5bGU9InN0cm9rZTojMTgxODE4O3N0cm9rZS13aWR0aDoxLjA7IiB4MT0iNDk2IiB4Mj0iNDk2IiB5MT0iMTI4My43NzM0IiB5Mj0iMTMwMy43NzM0Ii8+PHBvbHlnb24gZmlsbD0iIzE4MTgxOCIgcG9pbnRzPSI0OTIsMTI5My43NzM0LDQ5NiwxMzAzLjc3MzQsNTAwLDEyOTMuNzczNCw0OTYsMTI5Ny43NzM0IiBzdHlsZT0ic3Ryb2tlOiMxODE4MTg7c3Ryb2tlLXdpZHRoOjEuMDsiLz48bGluZSBzdHlsZT0ic3Ryb2tlOiMxODE4MTg7c3Ryb2tlLXdpZHRoOjEuMDsiIHgxPSIzNDciIHgyPSI0NjIiIHkxPSIxMTQzLjE1NjMiIHkyPSIxMTQzLjE1NjMiLz48cG9seWdvbiBmaWxsPSIjMTgxODE4IiBwb2ludHM9IjQ1MiwxMTM5LjE1NjMsNDYyLDExNDMuMTU2Myw0NTIsMTE0Ny4xNTYzLDQ1NiwxMTQzLjE1NjMiIHN0eWxlPSJzdHJva2U6IzE4MTgxODtzdHJva2Utd2lkdGg6MS4wOyIvPjxsaW5lIHN0eWxlPSJzdHJva2U6IzE4MTgxODtzdHJva2Utd2lkdGg6MS4wOyIgeDE9IjQ2NyIgeDI9IjQ2NyIgeTE9IjEwOTkuMzgyOCIgeTI9IjExMTYuMTU2MyIvPjxsaW5lIHN0eWxlPSJzdHJva2U6IzE4MTgxODtzdHJva2Utd2lkdGg6MS4wOyIgeDE9IjQ2NyIgeDI9IjMxMyIgeTE9IjExMTYuMTU2MyIgeTI9IjExMTYuMTU2MyIvPjxsaW5lIHN0eWxlPSJzdHJva2U6IzE4MTgxODtzdHJva2Utd2lkdGg6MS4wOyIgeDE9IjMxMyIgeDI9IjMxMyIgeTE9IjExMTYuMTU2MyIgeTI9IjExMzEuMTU2MyIvPjxwb2x5Z29uIGZpbGw9IiMxODE4MTgiIHBvaW50cz0iMzA5LDExMjEuMTU2MywzMTMsMTEzMS4xNTYzLDMxNywxMTIxLjE1NjMsMzEzLDExMjUuMTU2MyIgc3R5bGU9InN0cm9rZTojMTgxODE4O3N0cm9rZS13aWR0aDoxLjA7Ii8+PGxpbmUgc3R5bGU9InN0cm9rZTojMTgxODE4O3N0cm9rZS13aWR0aDoxLjA7IiB4MT0iNTMwIiB4Mj0iNjUyIiB5MT0iMTE0My4xNTYzIiB5Mj0iMTE0My4xNTYzIi8+PGxpbmUgc3R5bGU9InN0cm9rZTojMTgxODE4O3N0cm9rZS13aWR0aDoxLjA7IiB4MT0iNjUyIiB4Mj0iNjUyIiB5MT0iMTE0My4xNTYzIiB5Mj0iMTMwMy43NzM0Ii8+PHBvbHlnb24gZmlsbD0iIzE4MTgxOCIgcG9pbnRzPSI2NDgsMTI5My43NzM0LDY1MiwxMzAzLjc3MzQsNjU2LDEyOTMuNzczNCw2NTIsMTI5Ny43NzM0IiBzdHlsZT0ic3Ryb2tlOiMxODE4MTg7c3Ryb2tlLXdpZHRoOjEuMDsiLz48bGluZSBzdHlsZT0ic3Ryb2tlOiMxODE4MTg7c3Ryb2tlLXdpZHRoOjEuMDsiIHgxPSIzMTMiIHgyPSI2NTIiIHkxPSIxMzAzLjc3MzQiIHkyPSIxMzAzLjc3MzQiLz48bGluZSBzdHlsZT0ic3Ryb2tlOiMxODE4MTg7c3Ryb2tlLXdpZHRoOjEuMDsiIHgxPSIxMjkiIHgyPSIxMjkiIHkxPSI5MTcuMzA0NyIgeTI9Ijk0OS4wNzgxIi8+PHBvbHlnb24gZmlsbD0iIzE4MTgxOCIgcG9pbnRzPSIxMjUsOTM5LjA3ODEsMTI5LDk0OS4wNzgxLDEzMyw5MzkuMDc4MSwxMjksOTQzLjA3ODEiIHN0eWxlPSJzdHJva2U6IzE4MTgxODtzdHJva2Utd2lkdGg6MS4wOyIvPjxsaW5lIHN0eWxlPSJzdHJva2U6IzE4MTgxODtzdHJva2Utd2lkdGg6MS4wOyIgeDE9IjEyOSIgeDI9IjEyOSIgeTE9IjExMTEuMTU2MyIgeTI9IjEzMjMuNzczNCIvPjxwb2x5Z29uIGZpbGw9IiMxODE4MTgiIHBvaW50cz0iMTI1LDEzMTMuNzczNCwxMjksMTMyMy43NzM0LDEzMywxMzEzLjc3MzQsMTI5LDEzMTcuNzczNCIgc3R5bGU9InN0cm9rZTojMTgxODE4O3N0cm9rZS13aWR0aDoxLjA7Ii8+PGxpbmUgc3R5bGU9InN0cm9rZTojMTgxODE4O3N0cm9rZS13aWR0aDoxLjA7IiB4MT0iNDY3IiB4Mj0iNDY3IiB5MT0iOTE3LjMwNDciIHkyPSI5MzcuMzA0NyIvPjxwb2x5Z29uIGZpbGw9IiMxODE4MTgiIHBvaW50cz0iNDYzLDkyNy4zMDQ3LDQ2Nyw5MzcuMzA0Nyw0NzEsOTI3LjMwNDcsNDY3LDkzMS4zMDQ3IiBzdHlsZT0ic3Ryb2tlOiMxODE4MTg7c3Ryb2tlLXdpZHRoOjEuMDsiLz48bGluZSBzdHlsZT0ic3Ryb2tlOiMxODE4MTg7c3Ryb2tlLXdpZHRoOjEuMDsiIHgxPSI0NjciIHgyPSI0NjciIHkxPSIxMzAzLjc3MzQiIHkyPSIxMzIzLjc3MzQiLz48cG9seWdvbiBmaWxsPSIjMTgxODE4IiBwb2ludHM9IjQ2MywxMzEzLjc3MzQsNDY3LDEzMjMuNzczNCw0NzEsMTMxMy43NzM0LDQ2NywxMzE3Ljc3MzQiIHN0eWxlPSJzdHJva2U6IzE4MTgxODtzdHJva2Utd2lkdGg6MS4wOyIvPjxsaW5lIHN0eWxlPSJzdHJva2U6IzE4MTgxODtzdHJva2Utd2lkdGg6MS4wOyIgeDE9IjE5MC41IiB4Mj0iNDIyIiB5MT0iOTA1LjMwNDciIHkyPSI5MDUuMzA0NyIvPjxwb2x5Z29uIGZpbGw9IiMxODE4MTgiIHBvaW50cz0iNDEyLDkwMS4zMDQ3LDQyMiw5MDUuMzA0Nyw0MTIsOTA5LjMwNDcsNDE2LDkwNS4zMDQ3IiBzdHlsZT0ic3Ryb2tlOiMxODE4MTg7c3Ryb2tlLXdpZHRoOjEuMDsiLz48bGluZSBzdHlsZT0ic3Ryb2tlOiMxODE4MTg7c3Ryb2tlLXdpZHRoOjEuMDsiIHgxPSIzNjQiIHgyPSIzNjQiIHkxPSI4NzMuMzA0NyIgeTI9Ijg3OC4zMDQ3Ii8+PGxpbmUgc3R5bGU9InN0cm9rZTojMTgxODE4O3N0cm9rZS13aWR0aDoxLjA7IiB4MT0iMzY0IiB4Mj0iMTI5IiB5MT0iODc4LjMwNDciIHkyPSI4NzguMzA0NyIvPjxsaW5lIHN0eWxlPSJzdHJva2U6IzE4MTgxODtzdHJva2Utd2lkdGg6MS4wOyIgeDE9IjEyOSIgeDI9IjEyOSIgeTE9Ijg3OC4zMDQ3IiB5Mj0iODkzLjMwNDciLz48cG9seWdvbiBmaWxsPSIjMTgxODE4IiBwb2ludHM9IjEyNSw4ODMuMzA0NywxMjksODkzLjMwNDcsMTMzLDg4My4zMDQ3LDEyOSw4ODcuMzA0NyIgc3R5bGU9InN0cm9rZTojMTgxODE4O3N0cm9rZS13aWR0aDoxLjA7Ii8+PGxpbmUgc3R5bGU9InN0cm9rZTojMTgxODE4O3N0cm9rZS13aWR0aDoxLjA7IiB4MT0iNTEyIiB4Mj0iNjg4IiB5MT0iOTA1LjMwNDciIHkyPSI5MDUuMzA0NyIvPjxsaW5lIHN0eWxlPSJzdHJva2U6IzE4MTgxODtzdHJva2Utd2lkdGg6MS4wOyIgeDE9IjY4OCIgeDI9IjY4OCIgeTE9IjkwNS4zMDQ3IiB5Mj0iMTMyMy43NzM0Ii8+PHBvbHlnb24gZmlsbD0iIzE4MTgxOCIgcG9pbnRzPSI2ODQsMTMxMy43NzM0LDY4OCwxMzIzLjc3MzQsNjkyLDEzMTMuNzczNCw2ODgsMTMxNy43NzM0IiBzdHlsZT0ic3Ryb2tlOiMxODE4MTg7c3Ryb2tlLXdpZHRoOjEuMDsiLz48bGluZSBzdHlsZT0ic3Ryb2tlOiMxODE4MTg7c3Ryb2tlLXdpZHRoOjEuMDsiIHgxPSIxMjkiIHgyPSI2ODgiIHkxPSIxMzIzLjc3MzQiIHkyPSIxMzIzLjc3MzQiLz48bGluZSBzdHlsZT0ic3Ryb2tlOiMxODE4MTg7c3Ryb2tlLXdpZHRoOjEuMDsiIHgxPSIzNjQiIHgyPSIzNjQiIHkxPSIxMzIzLjc3MzQiIHkyPSIxMzQzLjc3MzQiLz48cG9seWdvbiBmaWxsPSIjMTgxODE4IiBwb2ludHM9IjM2MCwxMzMzLjc3MzQsMzY0LDEzNDMuNzczNCwzNjgsMTMzMy43NzM0LDM2NCwxMzM3Ljc3MzQiIHN0eWxlPSJzdHJva2U6IzE4MTgxODtzdHJva2Utd2lkdGg6MS4wOyIvPjxsaW5lIHN0eWxlPSJzdHJva2U6IzE4MTgxODtzdHJva2Utd2lkdGg6MS4wOyIgeDE9IjM2NCIgeDI9IjM2NCIgeTE9IjEzNzYuNjE3MiIgeTI9IjEzOTYuNjE3MiIvPjxwb2x5Z29uIGZpbGw9IiMxODE4MTgiIHBvaW50cz0iMzYwLDEzODYuNjE3MiwzNjQsMTM5Ni42MTcyLDM2OCwxMzg2LjYxNzIsMzY0LDEzOTAuNjE3MiIgc3R5bGU9InN0cm9rZTojMTgxODE4O3N0cm9rZS13aWR0aDoxLjA7Ii8+PGxpbmUgc3R5bGU9InN0cm9rZTojMTgxODE4O3N0cm9rZS13aWR0aDoxLjA7IiB4MT0iMjIzIiB4Mj0iMjIzIiB5MT0iMTUzOC4wNzgxIiB5Mj0iMTU2OS44NTE2Ii8+PHBvbHlnb24gZmlsbD0iIzE4MTgxOCIgcG9pbnRzPSIyMTksMTU1OS44NTE2LDIyMywxNTY5Ljg1MTYsMjI3LDE1NTkuODUxNiwyMjMsMTU2My44NTE2IiBzdHlsZT0ic3Ryb2tlOiMxODE4MTg7c3Ryb2tlLXdpZHRoOjEuMDsiLz48bGluZSBzdHlsZT0ic3Ryb2tlOiMxODE4MTg7c3Ryb2tlLXdpZHRoOjEuMDsiIHgxPSIyMjMiIHgyPSIyMjMiIHkxPSIxNjAyLjY5NTMiIHkyPSIxNjM0LjQ2ODgiLz48cG9seWdvbiBmaWxsPSIjMTgxODE4IiBwb2ludHM9IjIxOSwxNjI0LjQ2ODgsMjIzLDE2MzQuNDY4OCwyMjcsMTYyNC40Njg4LDIyMywxNjI4LjQ2ODgiIHN0eWxlPSJzdHJva2U6IzE4MTgxODtzdHJva2Utd2lkdGg6MS4wOyIvPjxsaW5lIHN0eWxlPSJzdHJva2U6IzE4MTgxODtzdHJva2Utd2lkdGg6MS4wOyIgeDE9IjQzMSIgeDI9IjQzMSIgeTE9IjE1MjYuMzA0NyIgeTI9IjE1NTguMDc4MSIvPjxwb2x5Z29uIGZpbGw9IiMxODE4MTgiIHBvaW50cz0iNDI3LDE1NDguMDc4MSw0MzEsMTU1OC4wNzgxLDQzNSwxNTQ4LjA3ODEsNDMxLDE1NTIuMDc4MSIgc3R5bGU9InN0cm9rZTojMTgxODE4O3N0cm9rZS13aWR0aDoxLjA7Ii8+PGxpbmUgc3R5bGU9InN0cm9rZTojMTgxODE4O3N0cm9rZS13aWR0aDoxLjA7IiB4MT0iNDMxIiB4Mj0iNDMxIiB5MT0iMTU5MC45MjE5IiB5Mj0iMTYyMi42OTUzIi8+PHBvbHlnb24gZmlsbD0iIzE4MTgxOCIgcG9pbnRzPSI0MjcsMTYxMi42OTUzLDQzMSwxNjIyLjY5NTMsNDM1LDE2MTIuNjk1Myw0MzEsMTYxNi42OTUzIiBzdHlsZT0ic3Ryb2tlOiMxODE4MTg7c3Ryb2tlLXdpZHRoOjEuMDsiLz48bGluZSBzdHlsZT0ic3Ryb2tlOiMxODE4MTg7c3Ryb2tlLXdpZHRoOjEuMDsiIHgxPSI0MzEiIHgyPSI0MzEiIHkxPSIxNjU1LjUzOTEiIHkyPSIxNjg3LjMxMjUiLz48cG9seWdvbiBmaWxsPSIjMTgxODE4IiBwb2ludHM9IjQyNywxNjc3LjMxMjUsNDMxLDE2ODcuMzEyNSw0MzUsMTY3Ny4zMTI1LDQzMSwxNjgxLjMxMjUiIHN0eWxlPSJzdHJva2U6IzE4MTgxODtzdHJva2Utd2lkdGg6MS4wOyIvPjxsaW5lIHN0eWxlPSJzdHJva2U6IzE4MTgxODtzdHJva2Utd2lkdGg6MS4wOyIgeDE9IjIyMyIgeDI9IjIyMyIgeTE9IjE0NzMuNDYwOSIgeTI9IjE1MDUuMjM0NCIvPjxwb2x5Z29uIGZpbGw9IiMxODE4MTgiIHBvaW50cz0iMjE5LDE0OTUuMjM0NCwyMjMsMTUwNS4yMzQ0LDIyNywxNDk1LjIzNDQsMjIzLDE0OTkuMjM0NCIgc3R5bGU9InN0cm9rZTojMTgxODE4O3N0cm9rZS13aWR0aDoxLjA7Ii8+PGxpbmUgc3R5bGU9InN0cm9rZTojMTgxODE4O3N0cm9rZS13aWR0aDoxLjA7IiB4MT0iMjIzIiB4Mj0iMjIzIiB5MT0iMTY2Ny4zMTI1IiB5Mj0iMTc0MC4xNTYzIi8+PHBvbHlnb24gZmlsbD0iIzE4MTgxOCIgcG9pbnRzPSIyMTksMTczMC4xNTYzLDIyMywxNzQwLjE1NjMsMjI3LDE3MzAuMTU2MywyMjMsMTczNC4xNTYzIiBzdHlsZT0ic3Ryb2tlOiMxODE4MTg7c3Ryb2tlLXdpZHRoOjEuMDsiLz48bGluZSBzdHlsZT0ic3Ryb2tlOiMxODE4MTg7c3Ryb2tlLXdpZHRoOjEuMDsiIHgxPSI0MzEiIHgyPSI0MzEiIHkxPSIxNDczLjQ2MDkiIHkyPSIxNDkzLjQ2MDkiLz48cG9seWdvbiBmaWxsPSIjMTgxODE4IiBwb2ludHM9IjQyNywxNDgzLjQ2MDksNDMxLDE0OTMuNDYwOSw0MzUsMTQ4My40NjA5LDQzMSwxNDg3LjQ2MDkiIHN0eWxlPSJzdHJva2U6IzE4MTgxODtzdHJva2Utd2lkdGg6MS4wOyIvPjxsaW5lIHN0eWxlPSJzdHJva2U6IzE4MTgxODtzdHJva2Utd2lkdGg6MS4wOyIgeDE9IjQzMSIgeDI9IjQzMSIgeTE9IjE3MjAuMTU2MyIgeTI9IjE3NDAuMTU2MyIvPjxwb2x5Z29uIGZpbGw9IiMxODE4MTgiIHBvaW50cz0iNDI3LDE3MzAuMTU2Myw0MzEsMTc0MC4xNTYzLDQzNSwxNzMwLjE1NjMsNDMxLDE3MzQuMTU2MyIgc3R5bGU9InN0cm9rZTojMTgxODE4O3N0cm9rZS13aWR0aDoxLjA7Ii8+PGxpbmUgc3R5bGU9InN0cm9rZTojMTgxODE4O3N0cm9rZS13aWR0aDoxLjA7IiB4MT0iMjg0LjUiIHgyPSIzODYiIHkxPSIxNDYxLjQ2MDkiIHkyPSIxNDYxLjQ2MDkiLz48cG9seWdvbiBmaWxsPSIjMTgxODE4IiBwb2ludHM9IjM3NiwxNDU3LjQ2MDksMzg2LDE0NjEuNDYwOSwzNzYsMTQ2NS40NjA5LDM4MCwxNDYxLjQ2MDkiIHN0eWxlPSJzdHJva2U6IzE4MTgxODtzdHJva2Utd2lkdGg6MS4wOyIvPjxsaW5lIHN0eWxlPSJzdHJva2U6IzE4MTgxODtzdHJva2Utd2lkdGg6MS4wOyIgeDE9IjM2NCIgeDI9IjM2NCIgeTE9IjE0MjkuNDYwOSIgeTI9IjE0MzQuNDYwOSIvPjxsaW5lIHN0eWxlPSJzdHJva2U6IzE4MTgxODtzdHJva2Utd2lkdGg6MS4wOyIgeDE9IjM2NCIgeDI9IjIyMyIgeTE9IjE0MzQuNDYwOSIgeTI9IjE0MzQuNDYwOSIvPjxsaW5lIHN0eWxlPSJzdHJva2U6IzE4MTgxODtzdHJva2Utd2lkdGg6MS4wOyIgeDE9IjIyMyIgeDI9IjIyMyIgeTE9IjE0MzQuNDYwOSIgeTI9IjE0NDkuNDYwOSIvPjxwb2x5Z29uIGZpbGw9IiMxODE4MTgiIHBvaW50cz0iMjE5LDE0MzkuNDYwOSwyMjMsMTQ0OS40NjA5LDIyNywxNDM5LjQ2MDksMjIzLDE0NDMuNDYwOSIgc3R5bGU9InN0cm9rZTojMTgxODE4O3N0cm9rZS13aWR0aDoxLjA7Ii8+PGxpbmUgc3R5bGU9InN0cm9rZTojMTgxODE4O3N0cm9rZS13aWR0aDoxLjA7IiB4MT0iNDc2IiB4Mj0iNTcyIiB5MT0iMTQ2MS40NjA5IiB5Mj0iMTQ2MS40NjA5Ii8+PGxpbmUgc3R5bGU9InN0cm9rZTojMTgxODE4O3N0cm9rZS13aWR0aDoxLjA7IiB4MT0iNTcyIiB4Mj0iNTcyIiB5MT0iMTQ2MS40NjA5IiB5Mj0iMTc0MC4xNTYzIi8+PHBvbHlnb24gZmlsbD0iIzE4MTgxOCIgcG9pbnRzPSI1NjgsMTczMC4xNTYzLDU3MiwxNzQwLjE1NjMsNTc2LDE3MzAuMTU2Myw1NzIsMTczNC4xNTYzIiBzdHlsZT0ic3Ryb2tlOiMxODE4MTg7c3Ryb2tlLXdpZHRoOjEuMDsiLz48bGluZSBzdHlsZT0ic3Ryb2tlOiMxODE4MTg7c3Ryb2tlLXdpZHRoOjEuMDsiIHgxPSIyMjMiIHgyPSI1NzIiIHkxPSIxNzQwLjE1NjMiIHkyPSIxNzQwLjE1NjMiLz48bGluZSBzdHlsZT0ic3Ryb2tlOiMxODE4MTg7c3Ryb2tlLXdpZHRoOjEuMDsiIHgxPSIzNjQiIHgyPSIzNjQiIHkxPSIxNzQwLjE1NjMiIHkyPSIxNzYwLjE1NjMiLz48cG9seWdvbiBmaWxsPSIjMTgxODE4IiBwb2ludHM9IjM2MCwxNzUwLjE1NjMsMzY0LDE3NjAuMTU2MywzNjgsMTc1MC4xNTYzLDM2NCwxNzU0LjE1NjMiIHN0eWxlPSJzdHJva2U6IzE4MTgxODtzdHJva2Utd2lkdGg6MS4wOyIvPjxsaW5lIHN0eWxlPSJzdHJva2U6IzE4MTgxODtzdHJva2Utd2lkdGg6MS4wOyIgeDE9IjM2NCIgeDI9IjM2NCIgeTE9IjE3OTMiIHkyPSIxODEzIi8+PHBvbHlnb24gZmlsbD0iIzE4MTgxOCIgcG9pbnRzPSIzNjAsMTgwMywzNjQsMTgxMywzNjgsMTgwMywzNjQsMTgwNyIgc3R5bGU9InN0cm9rZTojMTgxODE4O3N0cm9rZS13aWR0aDoxLjA7Ii8+PGxpbmUgc3R5bGU9InN0cm9rZTojMTgxODE4O3N0cm9rZS13aWR0aDoxLjA7IiB4MT0iMTUxIiB4Mj0iMTUxIiB5MT0iMTk1NC40NjA5IiB5Mj0iMTk4Ni4yMzQ0Ii8+PHBvbHlnb24gZmlsbD0iIzE4MTgxOCIgcG9pbnRzPSIxNDcsMTk3Ni4yMzQ0LDE1MSwxOTg2LjIzNDQsMTU1LDE5NzYuMjM0NCwxNTEsMTk4MC4yMzQ0IiBzdHlsZT0ic3Ryb2tlOiMxODE4MTg7c3Ryb2tlLXdpZHRoOjEuMDsiLz48bGluZSBzdHlsZT0ic3Ryb2tlOiMxODE4MTg7c3Ryb2tlLXdpZHRoOjEuMDsiIHgxPSIxNTEiIHgyPSIxNTEiIHkxPSIyMDE5LjA3ODEiIHkyPSIyMDUwLjg1MTYiLz48cG9seWdvbiBmaWxsPSIjMTgxODE4IiBwb2ludHM9IjE0NywyMDQwLjg1MTYsMTUxLDIwNTAuODUxNiwxNTUsMjA0MC44NTE2LDE1MSwyMDQ0Ljg1MTYiIHN0eWxlPSJzdHJva2U6IzE4MTgxODtzdHJva2Utd2lkdGg6MS4wOyIvPjxsaW5lIHN0eWxlPSJzdHJva2U6IzE4MTgxODtzdHJva2Utd2lkdGg6MS4wOyIgeDE9IjQ2MSIgeDI9IjQ2MSIgeTE9IjE5NDIuNjg3NSIgeTI9IjE5NzQuNDYwOSIvPjxwb2x5Z29uIGZpbGw9IiMxODE4MTgiIHBvaW50cz0iNDU3LDE5NjQuNDYwOSw0NjEsMTk3NC40NjA5LDQ2NSwxOTY0LjQ2MDksNDYxLDE5NjguNDYwOSIgc3R5bGU9InN0cm9rZTojMTgxODE4O3N0cm9rZS13aWR0aDoxLjA7Ii8+PGxpbmUgc3R5bGU9InN0cm9rZTojMTgxODE4O3N0cm9rZS13aWR0aDoxLjA7IiB4MT0iNDYxIiB4Mj0iNDYxIiB5MT0iMjAwNy4zMDQ3IiB5Mj0iMjAzOS4wNzgxIi8+PHBvbHlnb24gZmlsbD0iIzE4MTgxOCIgcG9pbnRzPSI0NTcsMjAyOS4wNzgxLDQ2MSwyMDM5LjA3ODEsNDY1LDIwMjkuMDc4MSw0NjEsMjAzMy4wNzgxIiBzdHlsZT0ic3Ryb2tlOiMxODE4MTg7c3Ryb2tlLXdpZHRoOjEuMDsiLz48bGluZSBzdHlsZT0ic3Ryb2tlOiMxODE4MTg7c3Ryb2tlLXdpZHRoOjEuMDsiIHgxPSI0NjEiIHgyPSI0NjEiIHkxPSIyMDcxLjkyMTkiIHkyPSIyMTAzLjY5NTMiLz48cG9seWdvbiBmaWxsPSIjMTgxODE4IiBwb2ludHM9IjQ1NywyMDkzLjY5NTMsNDYxLDIxMDMuNjk1Myw0NjUsMjA5My42OTUzLDQ2MSwyMDk3LjY5NTMiIHN0eWxlPSJzdHJva2U6IzE4MTgxODtzdHJva2Utd2lkdGg6MS4wOyIvPjxsaW5lIHN0eWxlPSJzdHJva2U6IzE4MTgxODtzdHJva2Utd2lkdGg6MS4wOyIgeDE9IjQ2MSIgeDI9IjQ2MSIgeTE9IjIxMzYuNTM5MSIgeTI9IjIxNTYuNTM5MSIvPjxwb2x5Z29uIGZpbGw9IiMxODE4MTgiIHBvaW50cz0iNDU3LDIxNDYuNTM5MSw0NjEsMjE1Ni41MzkxLDQ2NSwyMTQ2LjUzOTEsNDYxLDIxNTAuNTM5MSIgc3R5bGU9InN0cm9rZTojMTgxODE4O3N0cm9rZS13aWR0aDoxLjA7Ii8+PGxpbmUgc3R5bGU9InN0cm9rZTojMTgxODE4O3N0cm9rZS13aWR0aDoxLjA7IiB4MT0iNDYxIiB4Mj0iNDYxIiB5MT0iMjE4OS4zODI4IiB5Mj0iMjIwOS4zODI4Ii8+PHBvbHlnb24gZmlsbD0iIzE4MTgxOCIgcG9pbnRzPSI0NTcsMjE5OS4zODI4LDQ2MSwyMjA5LjM4MjgsNDY1LDIxOTkuMzgyOCw0NjEsMjIwMy4zODI4IiBzdHlsZT0ic3Ryb2tlOiMxODE4MTg7c3Ryb2tlLXdpZHRoOjEuMDsiLz48bGluZSBzdHlsZT0ic3Ryb2tlOiMxODE4MTg7c3Ryb2tlLXdpZHRoOjEuMDsiIHgxPSIxNTEiIHgyPSIxNTEiIHkxPSIxODg5Ljg0MzgiIHkyPSIxOTIxLjYxNzIiLz48cG9seWdvbiBmaWxsPSIjMTgxODE4IiBwb2ludHM9IjE0NywxOTExLjYxNzIsMTUxLDE5MjEuNjE3MiwxNTUsMTkxMS42MTcyLDE1MSwxOTE1LjYxNzIiIHN0eWxlPSJzdHJva2U6IzE4MTgxODtzdHJva2Utd2lkdGg6MS4wOyIvPjxsaW5lIHN0eWxlPSJzdHJva2U6IzE4MTgxODtzdHJva2Utd2lkdGg6MS4wOyIgeDE9IjE1MSIgeDI9IjE1MSIgeTE9IjIwODMuNjk1MyIgeTI9IjIyNjIuMjI2NiIvPjxwb2x5Z29uIGZpbGw9IiMxODE4MTgiIHBvaW50cz0iMTQ3LDIyNTIuMjI2NiwxNTEsMjI2Mi4yMjY2LDE1NSwyMjUyLjIyNjYsMTUxLDIyNTYuMjI2NiIgc3R5bGU9InN0cm9rZTojMTgxODE4O3N0cm9rZS13aWR0aDoxLjA7Ii8+PGxpbmUgc3R5bGU9InN0cm9rZTojMTgxODE4O3N0cm9rZS13aWR0aDoxLjA7IiB4MT0iNDYxIiB4Mj0iNDYxIiB5MT0iMTg4OS44NDM4IiB5Mj0iMTkwOS44NDM4Ii8+PHBvbHlnb24gZmlsbD0iIzE4MTgxOCIgcG9pbnRzPSI0NTcsMTg5OS44NDM4LDQ2MSwxOTA5Ljg0MzgsNDY1LDE4OTkuODQzOCw0NjEsMTkwMy44NDM4IiBzdHlsZT0ic3Ryb2tlOiMxODE4MTg7c3Ryb2tlLXdpZHRoOjEuMDsiLz48bGluZSBzdHlsZT0ic3Ryb2tlOiMxODE4MTg7c3Ryb2tlLXdpZHRoOjEuMDsiIHgxPSI0NjEiIHgyPSI0NjEiIHkxPSIyMjQyLjIyNjYiIHkyPSIyMjYyLjIyNjYiLz48cG9seWdvbiBmaWxsPSIjMTgxODE4IiBwb2ludHM9IjQ1NywyMjUyLjIyNjYsNDYxLDIyNjIuMjI2Niw0NjUsMjI1Mi4yMjY2LDQ2MSwyMjU2LjIyNjYiIHN0eWxlPSJzdHJva2U6IzE4MTgxODtzdHJva2Utd2lkdGg6MS4wOyIvPjxsaW5lIHN0eWxlPSJzdHJva2U6IzE4MTgxODtzdHJva2Utd2lkdGg6MS4wOyIgeDE9IjIxMi41IiB4Mj0iNDE2IiB5MT0iMTg3Ny44NDM4IiB5Mj0iMTg3Ny44NDM4Ii8+PHBvbHlnb24gZmlsbD0iIzE4MTgxOCIgcG9pbnRzPSI0MDYsMTg3My44NDM4LDQxNiwxODc3Ljg0MzgsNDA2LDE4ODEuODQzOCw0MTAsMTg3Ny44NDM4IiBzdHlsZT0ic3Ryb2tlOiMxODE4MTg7c3Ryb2tlLXdpZHRoOjEuMDsiLz48bGluZSBzdHlsZT0ic3Ryb2tlOiMxODE4MTg7c3Ryb2tlLXdpZHRoOjEuMDsiIHgxPSIzNjQiIHgyPSIzNjQiIHkxPSIxODQ1Ljg0MzgiIHkyPSIxODUwLjg0MzgiLz48bGluZSBzdHlsZT0ic3Ryb2tlOiMxODE4MTg7c3Ryb2tlLXdpZHRoOjEuMDsiIHgxPSIzNjQiIHgyPSIxNTEiIHkxPSIxODUwLjg0MzgiIHkyPSIxODUwLjg0MzgiLz48bGluZSBzdHlsZT0ic3Ryb2tlOiMxODE4MTg7c3Ryb2tlLXdpZHRoOjEuMDsiIHgxPSIxNTEiIHgyPSIxNTEiIHkxPSIxODUwLjg0MzgiIHkyPSIxODY1Ljg0MzgiLz48cG9seWdvbiBmaWxsPSIjMTgxODE4IiBwb2ludHM9IjE0NywxODU1Ljg0MzgsMTUxLDE4NjUuODQzOCwxNTUsMTg1NS44NDM4LDE1MSwxODU5Ljg0MzgiIHN0eWxlPSJzdHJva2U6IzE4MTgxODtzdHJva2Utd2lkdGg6MS4wOyIvPjxsaW5lIHN0eWxlPSJzdHJva2U6IzE4MTgxODtzdHJva2Utd2lkdGg6MS4wOyIgeDE9IjUwNiIgeDI9IjY3MCIgeTE9IjE4NzcuODQzOCIgeTI9IjE4NzcuODQzOCIvPjxsaW5lIHN0eWxlPSJzdHJva2U6IzE4MTgxODtzdHJva2Utd2lkdGg6MS4wOyIgeDE9IjY3MCIgeDI9IjY3MCIgeTE9IjE4NzcuODQzOCIgeTI9IjIyNjIuMjI2NiIvPjxwb2x5Z29uIGZpbGw9IiMxODE4MTgiIHBvaW50cz0iNjY2LDIyNTIuMjI2Niw2NzAsMjI2Mi4yMjY2LDY3NCwyMjUyLjIyNjYsNjcwLDIyNTYuMjI2NiIgc3R5bGU9InN0cm9rZTojMTgxODE4O3N0cm9rZS13aWR0aDoxLjA7Ii8+PGxpbmUgc3R5bGU9InN0cm9rZTojMTgxODE4O3N0cm9rZS13aWR0aDoxLjA7IiB4MT0iMTUxIiB4Mj0iNjcwIiB5MT0iMjI2Mi4yMjY2IiB5Mj0iMjI2Mi4yMjY2Ii8+PGxpbmUgc3R5bGU9InN0cm9rZTojMTgxODE4O3N0cm9rZS13aWR0aDoxLjA7IiB4MT0iMzY0IiB4Mj0iMzY0IiB5MT0iMjI2Mi4yMjY2IiB5Mj0iMjI4Mi4yMjY2Ii8+PHBvbHlnb24gZmlsbD0iIzE4MTgxOCIgcG9pbnRzPSIzNjAsMjI3Mi4yMjY2LDM2NCwyMjgyLjIyNjYsMzY4LDIyNzIuMjI2NiwzNjQsMjI3Ni4yMjY2IiBzdHlsZT0ic3Ryb2tlOiMxODE4MTg7c3Ryb2tlLXdpZHRoOjEuMDsiLz48bGluZSBzdHlsZT0ic3Ryb2tlOiMxODE4MTg7c3Ryb2tlLXdpZHRoOjEuMDsiIHgxPSIzNjQiIHgyPSIzNjQiIHkxPSIyMzE1LjA3MDMiIHkyPSIyMzM1LjA3MDMiLz48cG9seWdvbiBmaWxsPSIjMTgxODE4IiBwb2ludHM9IjM2MCwyMzI1LjA3MDMsMzY0LDIzMzUuMDcwMywzNjgsMjMyNS4wNzAzLDM2NCwyMzI5LjA3MDMiIHN0eWxlPSJzdHJva2U6IzE4MTgxODtzdHJva2Utd2lkdGg6MS4wOyIvPjxsaW5lIHN0eWxlPSJzdHJva2U6IzE4MTgxODtzdHJva2Utd2lkdGg6MS4wOyIgeDE9IjM2NCIgeDI9IjM2NCIgeTE9IjIzNjcuOTE0MSIgeTI9IjIzODcuOTE0MSIvPjxwb2x5Z29uIGZpbGw9IiMxODE4MTgiIHBvaW50cz0iMzYwLDIzNzcuOTE0MSwzNjQsMjM4Ny45MTQxLDM2OCwyMzc3LjkxNDEsMzY0LDIzODEuOTE0MSIgc3R5bGU9InN0cm9rZTojMTgxODE4O3N0cm9rZS13aWR0aDoxLjA7Ii8+PGxpbmUgc3R5bGU9InN0cm9rZTojMTgxODE4O3N0cm9rZS13aWR0aDoxLjA7IiB4MT0iMzY0IiB4Mj0iMzY0IiB5MT0iMjQyMC43NTc4IiB5Mj0iMjQ0MC43NTc4Ii8+PHBvbHlnb24gZmlsbD0iIzE4MTgxOCIgcG9pbnRzPSIzNjAsMjQzMC43NTc4LDM2NCwyNDQwLjc1NzgsMzY4LDI0MzAuNzU3OCwzNjQsMjQzNC43NTc4IiBzdHlsZT0ic3Ryb2tlOiMxODE4MTg7c3Ryb2tlLXdpZHRoOjEuMDsiLz48bGluZSBzdHlsZT0ic3Ryb2tlOiMxODE4MTg7c3Ryb2tlLXdpZHRoOjEuMDsiIHgxPSIzNjQiIHgyPSIzNjQiIHkxPSIyNDczLjYwMTYiIHkyPSIyNDkzLjYwMTYiLz48cG9seWdvbiBmaWxsPSIjMTgxODE4IiBwb2ludHM9IjM2MCwyNDgzLjYwMTYsMzY0LDI0OTMuNjAxNiwzNjgsMjQ4My42MDE2LDM2NCwyNDg3LjYwMTYiIHN0eWxlPSJzdHJva2U6IzE4MTgxODtzdHJva2Utd2lkdGg6MS4wOyIvPjwhLS1TUkM9W3JMUFRLWGYxNDd4ZDUzcGc1VUdxZ0dmTWg0Z1BMRTAwT0FBMGllNkFoYzNhbm9NV2ZYOE5CMHBvOHQyT1JDX0V0WTh6cXhFeDBzNEh5dlFkeFB4a2h3VF9sZmRQTEZoTFh0SGkxeW1aaTBUeVZXYzc3VXpSNHd1RWtEdG9zY0tPelE3S1N1T0pyb253ekxPWWprQ1VaMjB0T1VTdlBwOThuRlBzdXJsZTJPTzl0SVY0X2l2YUdwS3RIak5CUDUzT1pnVlY5RlZaTXVKTTRUa25VN283SEZVaW9WOWJ3NHBUaHZfODlINUJsYXFidXNBTlBJSjY1NFctUngzRjdTWnRNRTRLQlFtc25ZQXVMSUhMdUhMT2ZJOVd4a0szbWNZMVFhSk5fVFR4a3R3MWRaSzNrcUs1YWlwRVV6MWdtOVVZS2ZpVHRjcWpyZ0t4b2NyZTBRUWNnNHZySzlIaF9PMloycDh3U3VqYmtwMFFFRkN3dDVNYnROY3dHVzBNZlJpbWl5U0Njcmt0d0NsZFB0M1BTOFI3cFozWlpjenVnUlFnTUdrOVhrY2VTNzh2OFljdUVPTW80VFBRRTBhUkF0NElHSUFjWVZEUTI1c1RrVXFucjZ1WE55NXlkVTZUUzBfcFNrT3NFbmx2aElERG51alNISFYtQ2VXbUlwTDJfaWd4UUZrbkk1amdCM29YdXpZclI2d3RBUkdTUWdSMEpod3BRZFNIZ3NTV2NnOGo5a0dZNE9oR0tCdUVGRmJaZHF6X3lib1ZrazlQbHJIWjRJQTl2TnlMcEk5NmdFV2RyREVpRWJ6STNrWWRyMU5xcW50ZlNDWTUyRmdIQ1VXSUF2TVRTUGxjQWZhY0k5WmxnUFctenQyTTZ6RGw4VDRtN0xuV1hMYjRFYjF3NTVTOG9NS1phRHR4b0xod3dTTnkyX3JxXzBCelRDRTZ6NWpneEZ6QUZ3N3d6Q0VCTFFTVmdYN3F5bnMzVUhpY3RVZWh2c3NPZ3N1XzBmM3pITUdCcVdldE5xQ3MzMXdHM01MdnRSNUFYek1RcHA4RHV3eGFjRWVVYkN4UDg5X09pRE5nZUdqVnFoM0xmQXZnalVQOHJUQXg2NzdJZlY2dmEtdkNaaDV5dlZrSU93dmQ2VU9JeVJ3ZUg2TmR3TGJIaWtteWdtb3lvZUZ1UXoyVThMSVhyZUR3WGRVbHNTVjN6VEVYbFRURG5feXBzRTNkT0dhWnhGUkNkVGVSWmpPRnktbS1LUmw0S2tidHhfeTBdLS0+PC9nPjwvc3ZnPg==;" vertex="1" parent="1">
            <mxGeometry x="7040" y="5010" width="714" height="2526" as="geometry" />
          </mxCell>
        </UserObject>
        <UserObject label="" plantUmlData="{&quot;data&quot;:&quot;@startuml\nstart\n\n:商家进入食堂订餐平台主界面;\nswitch(点击文件)\ncase(点击订单导入)\n  :导入生成好的订单;\n  stop\ncase(点击订单导出)\n  :连接到打单机进行打单;\n  stop\ncase(点击退出)\n  :直接退出平台;\n  stop\nendswitch\n\n:商家进入食堂订餐平台主界面;\nswitch(点击顾客)\ncase(点击顾客新增)\n  :顾客录入界面;\n  :填写顾客信息并保存;\n  :传入到顾客信息数据表并返回上一级菜单;\n  stop\ncase(点击顾客查询)\n  :顾客信息查询界面;\n  :填写顾客姓名和顾客手机进行查询;\n  switch(查询到的顾客信息显示在列表中)\n  case(点击修改)\n    :修改顾客信息;\n    stop\n  case(点击删除)\n    :删除顾客信息;\n    if (确认是否删除)  then(是)\n      :删除信息;\n      stop\n    else \n      :返回上一级菜单;\n      stop\n    endif\n  case(点击取消)\n  :返回上一级菜单;\n  stop\nendswitch\n\n:商家进入食堂订餐平台主界面;\nswitch(点击菜品)\ncase(点击菜品新增)\n  :菜品录入界面;\n  :填写菜品信息并提交;\n  :数据传到菜品数据表中并返回上一级菜单;\n  stop\ncase (点击菜品查询)\n  :菜品查找界面;\n  :填写菜品号、菜品名、菜品类进行查询;\n  switch(查询到的菜品信息显示在列表中)\n  case(点击修改)\n    :修改菜品信息;\n    stop\n  case (点击删除)\n    :删除菜品信息;\n    if (确认是否删除) then (是)\n      :删除信息;\n      stop\n    else\n      :返回上一级菜单;\n      stop\n    endif\n  endswitch\ncase(点击取消)\n  :返回上一级菜单;\n  stop\nendswitch\n\n:商家进入食堂订餐平台主界面;\nswitch(点击菜单)\ncase (点击菜单新增)\n  :菜单生成界面;\n  :填写菜单信息并保存;\n  :生成菜单并返回上一级菜单;\n  stop\ncase (点击菜单查询)\n  :菜单查找界面;\n  switch(填写菜单号、菜单名和日期)\n  case(点击查询)\n    :查询到的菜单显示在列表中;\n    stop\n  case(点击取消)\n    :返回上一级菜单;\n    stop\n  endswitch\nendswitch\n\n:商家进入食堂订餐平台主界面;\nswitch(点击订单)\ncase(点击订单新增)\n  :订单录入界面;\n  switch(填写订单信息)\n  case(点击提交)\n    :数据传到今日订单中并显示;\n    :返回上一级菜单;\n    stop\n  case(点击取消)\n    :返回上一级菜单;\n    stop\n  endswitch\ncase(点击订单查询)\n  :订单查询界面;\n  :填写订单号、手机号、日期时间、顾客姓名、地址详情;\n  :查询;\n  switch(查询到的订单显示在列表中)\n  case(点击打单)\n    :连接到打单机进行打单;\n    stop\n  case(点击打单机设置)\n    :设置打单机;\n    stop\n  case(点击订单套餐打印)\n    :连接到打单机进行打单;\n    stop\n  endswitch\nendswitch\n\n\n@enduml\n&quot;,&quot;format&quot;:&quot;svg&quot;}" id="xhdSlIaJTLVG0YADLOY7-3">
          <mxCell style="shape=image;noLabel=1;verticalAlign=top;aspect=fixed;imageAspect=0;image=data:image/svg+xml,PD94bWwgdmVyc2lvbj0iMS4wIiBlbmNvZGluZz0idXMtYXNjaWkiIHN0YW5kYWxvbmU9Im5vIj8+PHN2ZyB4bWxucz0iaHR0cDovL3d3dy53My5vcmcvMjAwMC9zdmciIHhtbG5zOnhsaW5rPSJodHRwOi8vd3d3LnczLm9yZy8xOTk5L3hsaW5rIiBjb250ZW50U3R5bGVUeXBlPSJ0ZXh0L2NzcyIgaGVpZ2h0PSIxOTAycHgiIHByZXNlcnZlQXNwZWN0UmF0aW89Im5vbmUiIHN0eWxlPSJ3aWR0aDoxMDMycHg7aGVpZ2h0OjE5MDJweDtiYWNrZ3JvdW5kOiNGRkZGRkY7IiB2ZXJzaW9uPSIxLjEiIHZpZXdCb3g9IjAgMCAxMDMyIDE5MDIiIHdpZHRoPSIxMDMycHgiIHpvb21BbmRQYW49Im1hZ25pZnkiPjxkZWZzLz48Zz48ZWxsaXBzZSBjeD0iNTEwLjUiIGN5PSIyMCIgZmlsbD0iIzIyMjIyMiIgcng9IjEwIiByeT0iMTAiIHN0eWxlPSJzdHJva2U6IzIyMjIyMjtzdHJva2Utd2lkdGg6MS4wOyIvPjxyZWN0IGZpbGw9IiNGMUYxRjEiIGhlaWdodD0iMzIuODQzOCIgcng9IjEyLjUiIHJ5PSIxMi41IiBzdHlsZT0ic3Ryb2tlOiMxODE4MTg7c3Ryb2tlLXdpZHRoOjAuNTsiIHdpZHRoPSIxNzYiIHg9IjQyMi41IiB5PSI1MCIvPjx0ZXh0IGZpbGw9IiMwMDAwMDAiIGZvbnQtZmFtaWx5PSJzYW5zLXNlcmlmIiBmb250LXNpemU9IjEyIiBsZW5ndGhBZGp1c3Q9InNwYWNpbmciIHRleHRMZW5ndGg9IjE1NiIgeD0iNDMyLjUiIHk9IjcxLjM0MzgiPiYjMjE4MzA7JiMyMzQ3ODsmIzM2ODI3OyYjMjA4Mzc7JiMzOTEzNTsmIzIyNTMwOyYjMzU3NDY7JiMzOTE4NDsmIzI0MTc5OyYjMjE0ODg7JiMyMDAyNzsmIzMwMDI4OyYjMzg3NTQ7PC90ZXh0Pjxwb2x5Z29uIGZpbGw9IiNGMUYxRjEiIHBvaW50cz0iNDg4LjUsMTAyLjg0MzgsNTMyLjUsMTAyLjg0MzgsNTQ0LjUsMTE0Ljg0MzgsNTMyLjUsMTI2Ljg0MzgsNDg4LjUsMTI2Ljg0MzgsNDc2LjUsMTE0Ljg0MzgsNDg4LjUsMTAyLjg0MzgiIHN0eWxlPSJzdHJva2U6IzE4MTgxODtzdHJva2Utd2lkdGg6MC41OyIvPjx0ZXh0IGZpbGw9IiMwMDAwMDAiIGZvbnQtZmFtaWx5PSJzYW5zLXNlcmlmIiBmb250LXNpemU9IjExIiBsZW5ndGhBZGp1c3Q9InNwYWNpbmciIHRleHRMZW5ndGg9IjQ0IiB4PSI0ODguNSIgeT0iMTE5LjM1NTUiPiYjMjg4NTc7JiMyMDk4NzsmIzI1OTkxOyYjMjAyMTQ7PC90ZXh0PjxyZWN0IGZpbGw9IiNGMUYxRjEiIGhlaWdodD0iMzIuODQzOCIgcng9IjEyLjUiIHJ5PSIxMi41IiBzdHlsZT0ic3Ryb2tlOiMxODE4MTg7c3Ryb2tlLXdpZHRoOjAuNTsiIHdpZHRoPSIxMTYiIHg9IjMxMi41IiB5PSIxNjAuMzkwNiIvPjx0ZXh0IGZpbGw9IiMwMDAwMDAiIGZvbnQtZmFtaWx5PSJzYW5zLXNlcmlmIiBmb250LXNpemU9IjEyIiBsZW5ndGhBZGp1c3Q9InNwYWNpbmciIHRleHRMZW5ndGg9Ijk2IiB4PSIzMjIuNSIgeT0iMTgxLjczNDQiPiYjMjM1NDg7JiMyMDgzNzsmIzI5OTgzOyYjMjUxMDQ7JiMyMjkwOTsmIzMwMzQwOyYjMzU3NDY7JiMyMTMzMzs8L3RleHQ+PGVsbGlwc2UgY3g9IjM3MC41IiBjeT0iMjI0LjIzNDQiIGZpbGw9Im5vbmUiIHJ4PSIxMSIgcnk9IjExIiBzdHlsZT0ic3Ryb2tlOiMyMjIyMjI7c3Ryb2tlLXdpZHRoOjEuMDsiLz48ZWxsaXBzZSBjeD0iMzcwLjUiIGN5PSIyMjQuMjM0NCIgZmlsbD0iIzIyMjIyMiIgcng9IjYiIHJ5PSI2IiBzdHlsZT0ic3Ryb2tlOiMxMTExMTE7c3Ryb2tlLXdpZHRoOjEuMDsiLz48cmVjdCBmaWxsPSIjRjFGMUYxIiBoZWlnaHQ9IjMyLjg0MzgiIHJ4PSIxMi41IiByeT0iMTIuNSIgc3R5bGU9InN0cm9rZTojMTgxODE4O3N0cm9rZS13aWR0aDowLjU7IiB3aWR0aD0iMTQwIiB4PSI0NTYuNSIgeT0iMTYwLjM5MDYiLz48dGV4dCBmaWxsPSIjMDAwMDAwIiBmb250LWZhbWlseT0ic2Fucy1zZXJpZiIgZm9udC1zaXplPSIxMiIgbGVuZ3RoQWRqdXN0PSJzcGFjaW5nIiB0ZXh0TGVuZ3RoPSIxMjAiIHg9IjQ2Ni41IiB5PSIxODEuNzM0NCI+JiMzNjgzMDsmIzI1NTA5OyYjMjEwNDA7JiMyNTE3MTsmIzIxMzMzOyYjMjY0MjY7JiMzNjgyNzsmIzM0ODkyOyYjMjUxNzE7JiMyMTMzMzs8L3RleHQ+PGVsbGlwc2UgY3g9IjUyNi41IiBjeT0iMjI0LjIzNDQiIGZpbGw9Im5vbmUiIHJ4PSIxMSIgcnk9IjExIiBzdHlsZT0ic3Ryb2tlOiMyMjIyMjI7c3Ryb2tlLXdpZHRoOjEuMDsiLz48ZWxsaXBzZSBjeD0iNTI2LjUiIGN5PSIyMjQuMjM0NCIgZmlsbD0iIzIyMjIyMiIgcng9IjYiIHJ5PSI2IiBzdHlsZT0ic3Ryb2tlOiMxMTExMTE7c3Ryb2tlLXdpZHRoOjEuMDsiLz48cmVjdCBmaWxsPSIjRjFGMUYxIiBoZWlnaHQ9IjMyLjg0MzgiIHJ4PSIxMi41IiByeT0iMTIuNSIgc3R5bGU9InN0cm9rZTojMTgxODE4O3N0cm9rZS13aWR0aDowLjU7IiB3aWR0aD0iOTIiIHg9IjYxNi41IiB5PSIxNjAuMzkwNiIvPjx0ZXh0IGZpbGw9IiMwMDAwMDAiIGZvbnQtZmFtaWx5PSJzYW5zLXNlcmlmIiBmb250LXNpemU9IjEyIiBsZW5ndGhBZGp1c3Q9InNwYWNpbmciIHRleHRMZW5ndGg9IjcyIiB4PSI2MjYuNSIgeT0iMTgxLjczNDQiPiYjMzA0NTI7JiMyNTUwOTsmIzM2ODY0OyYjMjA5ODY7JiMyNDE3OTsmIzIxNDg4OzwvdGV4dD48ZWxsaXBzZSBjeD0iNjYyLjUiIGN5PSIyMjQuMjM0NCIgZmlsbD0ibm9uZSIgcng9IjExIiByeT0iMTEiIHN0eWxlPSJzdHJva2U6IzIyMjIyMjtzdHJva2Utd2lkdGg6MS4wOyIvPjxlbGxpcHNlIGN4PSI2NjIuNSIgY3k9IjIyNC4yMzQ0IiBmaWxsPSIjMjIyMjIyIiByeD0iNiIgcnk9IjYiIHN0eWxlPSJzdHJva2U6IzExMTExMTtzdHJva2Utd2lkdGg6MS4wOyIvPjxyZWN0IGZpbGw9IiNGMUYxRjEiIGhlaWdodD0iMzIuODQzOCIgcng9IjEyLjUiIHJ5PSIxMi41IiBzdHlsZT0ic3Ryb2tlOiMxODE4MTg7c3Ryb2tlLXdpZHRoOjAuNTsiIHdpZHRoPSIxNzYiIHg9IjQyMi41IiB5PSIyNDUuMjM0NCIvPjx0ZXh0IGZpbGw9IiMwMDAwMDAiIGZvbnQtZmFtaWx5PSJzYW5zLXNlcmlmIiBmb250LXNpemU9IjEyIiBsZW5ndGhBZGp1c3Q9InNwYWNpbmciIHRleHRMZW5ndGg9IjE1NiIgeD0iNDMyLjUiIHk9IjI2Ni41NzgxIj4mIzIxODMwOyYjMjM0Nzg7JiMzNjgyNzsmIzIwODM3OyYjMzkxMzU7JiMyMjUzMDsmIzM1NzQ2OyYjMzkxODQ7JiMyNDE3OTsmIzIxNDg4OyYjMjAwMjc7JiMzMDAyODsmIzM4NzU0OzwvdGV4dD48cG9seWdvbiBmaWxsPSIjRjFGMUYxIiBwb2ludHM9IjQ4OC41LDI5OC4wNzgxLDUzMi41LDI5OC4wNzgxLDU0NC41LDMxMC4wNzgxLDUzMi41LDMyMi4wNzgxLDQ4OC41LDMyMi4wNzgxLDQ3Ni41LDMxMC4wNzgxLDQ4OC41LDI5OC4wNzgxIiBzdHlsZT0ic3Ryb2tlOiMxODE4MTg7c3Ryb2tlLXdpZHRoOjAuNTsiLz48dGV4dCBmaWxsPSIjMDAwMDAwIiBmb250LWZhbWlseT0ic2Fucy1zZXJpZiIgZm9udC1zaXplPSIxMSIgbGVuZ3RoQWRqdXN0PSJzcGFjaW5nIiB0ZXh0TGVuZ3RoPSI0NCIgeD0iNDg4LjUiIHk9IjMxNC41ODk4Ij4mIzI4ODU3OyYjMjA5ODc7JiMzOTAzODsmIzIzNDU4OzwvdGV4dD48cmVjdCBmaWxsPSIjRjFGMUYxIiBoZWlnaHQ9IjMyLjg0MzgiIHJ4PSIxMi41IiByeT0iMTIuNSIgc3R5bGU9InN0cm9rZTojMTgxODE4O3N0cm9rZS13aWR0aDowLjU7IiB3aWR0aD0iOTIiIHg9IjgzIiB5PSIzNTUuNjI1Ii8+PHRleHQgZmlsbD0iIzAwMDAwMCIgZm9udC1mYW1pbHk9InNhbnMtc2VyaWYiIGZvbnQtc2l6ZT0iMTIiIGxlbmd0aEFkanVzdD0ic3BhY2luZyIgdGV4dExlbmd0aD0iNzIiIHg9IjkzIiB5PSIzNzYuOTY4OCI+JiMzOTAzODsmIzIzNDU4OyYjMjQ0MDU7JiMyMDgzNzsmIzMwMDI4OyYjMzg3NTQ7PC90ZXh0PjxyZWN0IGZpbGw9IiNGMUYxRjEiIGhlaWdodD0iMzIuODQzOCIgcng9IjEyLjUiIHJ5PSIxMi41IiBzdHlsZT0ic3Ryb2tlOiMxODE4MTg7c3Ryb2tlLXdpZHRoOjAuNTsiIHdpZHRoPSIxMjgiIHg9IjY1IiB5PSI0MDguNDY4OCIvPjx0ZXh0IGZpbGw9IiMwMDAwMDAiIGZvbnQtZmFtaWx5PSJzYW5zLXNlcmlmIiBmb250LXNpemU9IjEyIiBsZW5ndGhBZGp1c3Q9InNwYWNpbmciIHRleHRMZW5ndGg9IjEwOCIgeD0iNzUiIHk9IjQyOS44MTI1Ij4mIzIyNjM1OyYjMjA4ODk7JiMzOTAzODsmIzIzNDU4OyYjMjA0NDk7JiMyNDY4NzsmIzI0MTgyOyYjMjA0NDU7JiMyMzM4NDs8L3RleHQ+PHJlY3QgZmlsbD0iI0YxRjFGMSIgaGVpZ2h0PSIzMi44NDM4IiByeD0iMTIuNSIgcnk9IjEyLjUiIHN0eWxlPSJzdHJva2U6IzE4MTgxODtzdHJva2Utd2lkdGg6MC41OyIgd2lkdGg9IjIzNiIgeD0iMTEiIHk9IjQ2MS4zMTI1Ii8+PHRleHQgZmlsbD0iIzAwMDAwMCIgZm9udC1mYW1pbHk9InNhbnMtc2VyaWYiIGZvbnQtc2l6ZT0iMTIiIGxlbmd0aEFkanVzdD0ic3BhY2luZyIgdGV4dExlbmd0aD0iMjE2IiB4PSIyMSIgeT0iNDgyLjY1NjMiPiYjMjAyNTY7JiMyMDgzNzsmIzIxMDQwOyYjMzkwMzg7JiMyMzQ1ODsmIzIwNDQ5OyYjMjQ2ODc7JiMyNTk2ODsmIzI1NDU0OyYjMzQ5MjA7JiMyNDE4MjsmIzM2ODIwOyYjMjIyMzg7JiMxOTk3ODsmIzE5OTY4OyYjMzI0MjM7JiMzMzc1NjsmIzIxMzMzOzwvdGV4dD48ZWxsaXBzZSBjeD0iMTI5IiBjeT0iNTQwLjE1NjMiIGZpbGw9Im5vbmUiIHJ4PSIxMSIgcnk9IjExIiBzdHlsZT0ic3Ryb2tlOiMyMjIyMjI7c3Ryb2tlLXdpZHRoOjEuMDsiLz48ZWxsaXBzZSBjeD0iMTI5IiBjeT0iNTQwLjE1NjMiIGZpbGw9IiMyMjIyMjIiIHJ4PSI2IiByeT0iNiIgc3R5bGU9InN0cm9rZTojMTExMTExO3N0cm9rZS13aWR0aDoxLjA7Ii8+PHJlY3QgZmlsbD0iI0YxRjFGMSIgaGVpZ2h0PSIzMi44NDM4IiByeD0iMTIuNSIgcnk9IjEyLjUiIHN0eWxlPSJzdHJva2U6IzE4MTgxODtzdHJva2Utd2lkdGg6MC41OyIgd2lkdGg9IjExNiIgeD0iNTgwLjUiIHk9IjM1NS42MjUiLz48dGV4dCBmaWxsPSIjMDAwMDAwIiBmb250LWZhbWlseT0ic2Fucy1zZXJpZiIgZm9udC1zaXplPSIxMiIgbGVuZ3RoQWRqdXN0PSJzcGFjaW5nIiB0ZXh0TGVuZ3RoPSI5NiIgeD0iNTkwLjUiIHk9IjM3Ni45Njg4Ij4mIzM5MDM4OyYjMjM0NTg7JiMyMDQ0OTsmIzI0Njg3OyYjMjY1OTc7JiMzNTgxMDsmIzMwMDI4OyYjMzg3NTQ7PC90ZXh0PjxyZWN0IGZpbGw9IiNGMUYxRjEiIGhlaWdodD0iMzIuODQzOCIgcng9IjEyLjUiIHJ5PSIxMi41IiBzdHlsZT0ic3Ryb2tlOiMxODE4MTg7c3Ryb2tlLXdpZHRoOjAuNTsiIHdpZHRoPSIyMDAiIHg9IjUzOC41IiB5PSI0MDguNDY4OCIvPjx0ZXh0IGZpbGw9IiMwMDAwMDAiIGZvbnQtZmFtaWx5PSJzYW5zLXNlcmlmIiBmb250LXNpemU9IjEyIiBsZW5ndGhBZGp1c3Q9InNwYWNpbmciIHRleHRMZW5ndGg9IjE4MCIgeD0iNTQ4LjUiIHk9IjQyOS44MTI1Ij4mIzIyNjM1OyYjMjA4ODk7JiMzOTAzODsmIzIzNDU4OyYjMjI5OTU7JiMyMTUxNzsmIzIxNjQ0OyYjMzkwMzg7JiMyMzQ1ODsmIzI1MTYzOyYjMjY0MjY7JiMzNjgyNzsmIzM0ODkyOyYjMjY1OTc7JiMzNTgxMDs8L3RleHQ+PHBvbHlnb24gZmlsbD0iI0YxRjFGMSIgcG9pbnRzPSI1NjEuNSw0NjEuMzEyNSw3MTUuNSw0NjEuMzEyNSw3MjcuNSw0NzMuMzEyNSw3MTUuNSw0ODUuMzEyNSw1NjEuNSw0ODUuMzEyNSw1NDkuNSw0NzMuMzEyNSw1NjEuNSw0NjEuMzEyNSIgc3R5bGU9InN0cm9rZTojMTgxODE4O3N0cm9rZS13aWR0aDowLjU7Ii8+PHRleHQgZmlsbD0iIzAwMDAwMCIgZm9udC1mYW1pbHk9InNhbnMtc2VyaWYiIGZvbnQtc2l6ZT0iMTEiIGxlbmd0aEFkanVzdD0ic3BhY2luZyIgdGV4dExlbmd0aD0iMTU0IiB4PSI1NjEuNSIgeT0iNDc3LjgyNDIiPiYjMjY1OTc7JiMzNTgxMDsmIzIxMDQwOyYjMzAzNDA7JiMzOTAzODsmIzIzNDU4OyYjMjA0NDk7JiMyNDY4NzsmIzI2MTc0OyYjMzEwMzQ7JiMyMjMxMjsmIzIxMDE1OyYjMzQ5MjA7JiMyMDAxMzs8L3RleHQ+PHJlY3QgZmlsbD0iI0YxRjFGMSIgaGVpZ2h0PSIzMi44NDM4IiByeD0iMTIuNSIgcnk9IjEyLjUiIHN0eWxlPSJzdHJva2U6IzE4MTgxODtzdHJva2Utd2lkdGg6MC41OyIgd2lkdGg9IjkyIiB4PSI0MTIuNSIgeT0iNTE4Ljg1OTQiLz48dGV4dCBmaWxsPSIjMDAwMDAwIiBmb250LWZhbWlseT0ic2Fucy1zZXJpZiIgZm9udC1zaXplPSIxMiIgbGVuZ3RoQWRqdXN0PSJzcGFjaW5nIiB0ZXh0TGVuZ3RoPSI3MiIgeD0iNDIyLjUiIHk9IjU0MC4yMDMxIj4mIzIwNDYyOyYjMjU5MTM7JiMzOTAzODsmIzIzNDU4OyYjMjA0NDk7JiMyNDY4Nzs8L3RleHQ+PGVsbGlwc2UgY3g9IjQ1OC41IiBjeT0iNTgyLjcwMzEiIGZpbGw9Im5vbmUiIHJ4PSIxMSIgcnk9IjExIiBzdHlsZT0ic3Ryb2tlOiMyMjIyMjI7c3Ryb2tlLXdpZHRoOjEuMDsiLz48ZWxsaXBzZSBjeD0iNDU4LjUiIGN5PSI1ODIuNzAzMSIgZmlsbD0iIzIyMjIyMiIgcng9IjYiIHJ5PSI2IiBzdHlsZT0ic3Ryb2tlOiMxMTExMTE7c3Ryb2tlLXdpZHRoOjEuMDsiLz48cmVjdCBmaWxsPSIjRjFGMUYxIiBoZWlnaHQ9IjMyLjg0MzgiIHJ4PSIxMi41IiByeT0iMTIuNSIgc3R5bGU9InN0cm9rZTojMTgxODE4O3N0cm9rZS13aWR0aDowLjU7IiB3aWR0aD0iOTIiIHg9IjU3Ny41IiB5PSI1MTguODU5NCIvPjx0ZXh0IGZpbGw9IiMwMDAwMDAiIGZvbnQtZmFtaWx5PSJzYW5zLXNlcmlmIiBmb250LXNpemU9IjEyIiBsZW5ndGhBZGp1c3Q9InNwYWNpbmciIHRleHRMZW5ndGg9IjcyIiB4PSI1ODcuNSIgeT0iNTQwLjIwMzEiPiYjMjEwMjQ7JiMzODUwMDsmIzM5MDM4OyYjMjM0NTg7JiMyMDQ0OTsmIzI0Njg3OzwvdGV4dD48cG9seWdvbiBmaWxsPSIjRjFGMUYxIiBwb2ludHM9IjU5MC41LDU3MS43MDMxLDY1Ni41LDU3MS43MDMxLDY2OC41LDU4My43MDMxLDY1Ni41LDU5NS43MDMxLDU5MC41LDU5NS43MDMxLDU3OC41LDU4My43MDMxLDU5MC41LDU3MS43MDMxIiBzdHlsZT0ic3Ryb2tlOiMxODE4MTg7c3Ryb2tlLXdpZHRoOjAuNTsiLz48dGV4dCBmaWxsPSIjMDAwMDAwIiBmb250LWZhbWlseT0ic2Fucy1zZXJpZiIgZm9udC1zaXplPSIxMSIgbGVuZ3RoQWRqdXN0PSJzcGFjaW5nIiB0ZXh0TGVuZ3RoPSI2NiIgeD0iNTkwLjUiIHk9IjU4OC4yMTQ4Ij4mIzMwODMwOyYjMzU3NDg7JiMyNjE1OTsmIzIxNTQyOyYjMjEwMjQ7JiMzODUwMDs8L3RleHQ+PHRleHQgZmlsbD0iIzAwMDAwMCIgZm9udC1mYW1pbHk9InNhbnMtc2VyaWYiIGZvbnQtc2l6ZT0iMTEiIGxlbmd0aEFkanVzdD0ic3BhY2luZyIgdGV4dExlbmd0aD0iMTEiIHg9IjU2Ny41IiB5PSI1ODIuMzI4MSI+JiMyNjE1OTs8L3RleHQ+PHJlY3QgZmlsbD0iI0YxRjFGMSIgaGVpZ2h0PSIzMi44NDM4IiByeD0iMTIuNSIgcnk9IjEyLjUiIHN0eWxlPSJzdHJva2U6IzE4MTgxODtzdHJva2Utd2lkdGg6MC41OyIgd2lkdGg9IjY4IiB4PSI1MzQuNSIgeT0iNjA1LjcwMzEiLz48dGV4dCBmaWxsPSIjMDAwMDAwIiBmb250LWZhbWlseT0ic2Fucy1zZXJpZiIgZm9udC1zaXplPSIxMiIgbGVuZ3RoQWRqdXN0PSJzcGFjaW5nIiB0ZXh0TGVuZ3RoPSI0OCIgeD0iNTQ0LjUiIHk9IjYyNy4wNDY5Ij4mIzIxMDI0OyYjMzg1MDA7JiMyMDQ0OTsmIzI0Njg3OzwvdGV4dD48ZWxsaXBzZSBjeD0iNTY4LjUiIGN5PSI2NjkuNTQ2OSIgZmlsbD0ibm9uZSIgcng9IjExIiByeT0iMTEiIHN0eWxlPSJzdHJva2U6IzIyMjIyMjtzdHJva2Utd2lkdGg6MS4wOyIvPjxlbGxpcHNlIGN4PSI1NjguNSIgY3k9IjY2OS41NDY5IiBmaWxsPSIjMjIyMjIyIiByeD0iNiIgcnk9IjYiIHN0eWxlPSJzdHJva2U6IzExMTExMTtzdHJva2Utd2lkdGg6MS4wOyIvPjxyZWN0IGZpbGw9IiNGMUYxRjEiIGhlaWdodD0iMzIuODQzOCIgcng9IjEyLjUiIHJ5PSIxMi41IiBzdHlsZT0ic3Ryb2tlOiMxODE4MTg7c3Ryb2tlLXdpZHRoOjAuNTsiIHdpZHRoPSIxMDQiIHg9IjYyNi41IiB5PSI2MDUuNzAzMSIvPjx0ZXh0IGZpbGw9IiMwMDAwMDAiIGZvbnQtZmFtaWx5PSJzYW5zLXNlcmlmIiBmb250LXNpemU9IjEyIiBsZW5ndGhBZGp1c3Q9InNwYWNpbmciIHRleHRMZW5ndGg9Ijg0IiB4PSI2MzYuNSIgeT0iNjI3LjA0NjkiPiYjMzY4MjA7JiMyMjIzODsmIzE5OTc4OyYjMTk5Njg7JiMzMjQyMzsmIzMzNzU2OyYjMjEzMzM7PC90ZXh0PjxlbGxpcHNlIGN4PSI2NzguNSIgY3k9IjY2OS41NDY5IiBmaWxsPSJub25lIiByeD0iMTEiIHJ5PSIxMSIgc3R5bGU9InN0cm9rZTojMjIyMjIyO3N0cm9rZS13aWR0aDoxLjA7Ii8+PGVsbGlwc2UgY3g9IjY3OC41IiBjeT0iNjY5LjU0NjkiIGZpbGw9IiMyMjIyMjIiIHJ4PSI2IiByeT0iNiIgc3R5bGU9InN0cm9rZTojMTExMTExO3N0cm9rZS13aWR0aDoxLjA7Ii8+PHJlY3QgZmlsbD0iI0YxRjFGMSIgaGVpZ2h0PSIzMi44NDM4IiByeD0iMTIuNSIgcnk9IjEyLjUiIHN0eWxlPSJzdHJva2U6IzE4MTgxODtzdHJva2Utd2lkdGg6MC41OyIgd2lkdGg9IjEwNCIgeD0iNzYwLjUiIHk9IjUxOC44NTk0Ii8+PHRleHQgZmlsbD0iIzAwMDAwMCIgZm9udC1mYW1pbHk9InNhbnMtc2VyaWYiIGZvbnQtc2l6ZT0iMTIiIGxlbmd0aEFkanVzdD0ic3BhY2luZyIgdGV4dExlbmd0aD0iODQiIHg9Ijc3MC41IiB5PSI1NDAuMjAzMSI+JiMzNjgyMDsmIzIyMjM4OyYjMTk5Nzg7JiMxOTk2ODsmIzMyNDIzOyYjMzM3NTY7JiMyMTMzMzs8L3RleHQ+PGVsbGlwc2UgY3g9IjgxMi41IiBjeT0iNTgyLjcwMzEiIGZpbGw9Im5vbmUiIHJ4PSIxMSIgcnk9IjExIiBzdHlsZT0ic3Ryb2tlOiMyMjIyMjI7c3Ryb2tlLXdpZHRoOjEuMDsiLz48ZWxsaXBzZSBjeD0iODEyLjUiIGN5PSI1ODIuNzAzMSIgZmlsbD0iIzIyMjIyMiIgcng9IjYiIHJ5PSI2IiBzdHlsZT0ic3Ryb2tlOiMxMTExMTE7c3Ryb2tlLXdpZHRoOjEuMDsiLz48cmVjdCBmaWxsPSIjRjFGMUYxIiBoZWlnaHQ9IjMyLjg0MzgiIHJ4PSIxMi41IiByeT0iMTIuNSIgc3R5bGU9InN0cm9rZTojMTgxODE4O3N0cm9rZS13aWR0aDowLjU7IiB3aWR0aD0iMTc2IiB4PSI1NTAuNSIgeT0iNjkwLjU0NjkiLz48dGV4dCBmaWxsPSIjMDAwMDAwIiBmb250LWZhbWlseT0ic2Fucy1zZXJpZiIgZm9udC1zaXplPSIxMiIgbGVuZ3RoQWRqdXN0PSJzcGFjaW5nIiB0ZXh0TGVuZ3RoPSIxNTYiIHg9IjU2MC41IiB5PSI3MTEuODkwNiI+JiMyMTgzMDsmIzIzNDc4OyYjMzY4Mjc7JiMyMDgzNzsmIzM5MTM1OyYjMjI1MzA7JiMzNTc0NjsmIzM5MTg0OyYjMjQxNzk7JiMyMTQ4ODsmIzIwMDI3OyYjMzAwMjg7JiMzODc1NDs8L3RleHQ+PHBvbHlnb24gZmlsbD0iI0YxRjFGMSIgcG9pbnRzPSI2MTYuNSw3NDMuMzkwNiw2NjAuNSw3NDMuMzkwNiw2NzIuNSw3NTUuMzkwNiw2NjAuNSw3NjcuMzkwNiw2MTYuNSw3NjcuMzkwNiw2MDQuNSw3NTUuMzkwNiw2MTYuNSw3NDMuMzkwNiIgc3R5bGU9InN0cm9rZTojMTgxODE4O3N0cm9rZS13aWR0aDowLjU7Ii8+PHRleHQgZmlsbD0iIzAwMDAwMCIgZm9udC1mYW1pbHk9InNhbnMtc2VyaWYiIGZvbnQtc2l6ZT0iMTEiIGxlbmd0aEFkanVzdD0ic3BhY2luZyIgdGV4dExlbmd0aD0iNDQiIHg9IjYxNi41IiB5PSI3NTkuOTAyMyI+JiMyODg1NzsmIzIwOTg3OyYjMzM3NTY7JiMyMTY5Nzs8L3RleHQ+PHJlY3QgZmlsbD0iI0YxRjFGMSIgaGVpZ2h0PSIzMi44NDM4IiByeD0iMTIuNSIgcnk9IjEyLjUiIHN0eWxlPSJzdHJva2U6IzE4MTgxODtzdHJva2Utd2lkdGg6MC41OyIgd2lkdGg9IjkyIiB4PSIzMzUiIHk9IjgwMC45Mzc1Ii8+PHRleHQgZmlsbD0iIzAwMDAwMCIgZm9udC1mYW1pbHk9InNhbnMtc2VyaWYiIGZvbnQtc2l6ZT0iMTIiIGxlbmd0aEFkanVzdD0ic3BhY2luZyIgdGV4dExlbmd0aD0iNzIiIHg9IjM0NSIgeT0iODIyLjI4MTMiPiYjMzM3NTY7JiMyMTY5NzsmIzI0NDA1OyYjMjA4Mzc7JiMzMDAyODsmIzM4NzU0OzwvdGV4dD48cmVjdCBmaWxsPSIjRjFGMUYxIiBoZWlnaHQ9IjMyLjg0MzgiIHJ4PSIxMi41IiByeT0iMTIuNSIgc3R5bGU9InN0cm9rZTojMTgxODE4O3N0cm9rZS13aWR0aDowLjU7IiB3aWR0aD0iMTI4IiB4PSIzMTciIHk9Ijg1My43ODEzIi8+PHRleHQgZmlsbD0iIzAwMDAwMCIgZm9udC1mYW1pbHk9InNhbnMtc2VyaWYiIGZvbnQtc2l6ZT0iMTIiIGxlbmd0aEFkanVzdD0ic3BhY2luZyIgdGV4dExlbmd0aD0iMTA4IiB4PSIzMjciIHk9Ijg3NS4xMjUiPiYjMjI2MzU7JiMyMDg4OTsmIzMzNzU2OyYjMjE2OTc7JiMyMDQ0OTsmIzI0Njg3OyYjMjQxODI7JiMyNTU1MjsmIzIwMTMyOzwvdGV4dD48cmVjdCBmaWxsPSIjRjFGMUYxIiBoZWlnaHQ9IjMyLjg0MzgiIHJ4PSIxMi41IiByeT0iMTIuNSIgc3R5bGU9InN0cm9rZTojMTgxODE4O3N0cm9rZS13aWR0aDowLjU7IiB3aWR0aD0iMjM2IiB4PSIyNjMiIHk9IjkwNi42MjUiLz48dGV4dCBmaWxsPSIjMDAwMDAwIiBmb250LWZhbWlseT0ic2Fucy1zZXJpZiIgZm9udC1zaXplPSIxMiIgbGVuZ3RoQWRqdXN0PSJzcGFjaW5nIiB0ZXh0TGVuZ3RoPSIyMTYiIHg9IjI3MyIgeT0iOTI3Ljk2ODgiPiYjMjU5Njg7JiMyNTQ1NDsmIzIwMjU2OyYjMjEwNDA7JiMzMzc1NjsmIzIxNjk3OyYjMjU5Njg7JiMyNTQ1NDsmIzM0OTIwOyYjMjAwMTM7JiMyNDE4MjsmIzM2ODIwOyYjMjIyMzg7JiMxOTk3ODsmIzE5OTY4OyYjMzI0MjM7JiMzMzc1NjsmIzIxMzMzOzwvdGV4dD48ZWxsaXBzZSBjeD0iMzgxIiBjeT0iOTg0LjQxMDIiIGZpbGw9Im5vbmUiIHJ4PSIxMSIgcnk9IjExIiBzdHlsZT0ic3Ryb2tlOiMyMjIyMjI7c3Ryb2tlLXdpZHRoOjEuMDsiLz48ZWxsaXBzZSBjeD0iMzgxIiBjeT0iOTg0LjQxMDIiIGZpbGw9IiMyMjIyMjIiIHJ4PSI2IiByeT0iNiIgc3R5bGU9InN0cm9rZTojMTExMTExO3N0cm9rZS13aWR0aDoxLjA7Ii8+PHJlY3QgZmlsbD0iI0YxRjFGMSIgaGVpZ2h0PSIzMi44NDM4IiByeD0iMTIuNSIgcnk9IjEyLjUiIHN0eWxlPSJzdHJva2U6IzE4MTgxODtzdHJva2Utd2lkdGg6MC41OyIgd2lkdGg9IjkyIiB4PSI2MjMiIHk9IjgwMC45Mzc1Ii8+PHRleHQgZmlsbD0iIzAwMDAwMCIgZm9udC1mYW1pbHk9InNhbnMtc2VyaWYiIGZvbnQtc2l6ZT0iMTIiIGxlbmd0aEFkanVzdD0ic3BhY2luZyIgdGV4dExlbmd0aD0iNzIiIHg9IjYzMyIgeT0iODIyLjI4MTMiPiYjMzM3NTY7JiMyMTY5NzsmIzI2NTk3OyYjMjUyMTQ7JiMzMDAyODsmIzM4NzU0OzwvdGV4dD48cmVjdCBmaWxsPSIjRjFGMUYxIiBoZWlnaHQ9IjMyLjg0MzgiIHJ4PSIxMi41IiByeT0iMTIuNSIgc3R5bGU9InN0cm9rZTojMTgxODE4O3N0cm9rZS13aWR0aDowLjU7IiB3aWR0aD0iMjI0IiB4PSI1NTciIHk9Ijg1My43ODEzIi8+PHRleHQgZmlsbD0iIzAwMDAwMCIgZm9udC1mYW1pbHk9InNhbnMtc2VyaWYiIGZvbnQtc2l6ZT0iMTIiIGxlbmd0aEFkanVzdD0ic3BhY2luZyIgdGV4dExlbmd0aD0iMjA0IiB4PSI1NjciIHk9Ijg3NS4xMjUiPiYjMjI2MzU7JiMyMDg4OTsmIzMzNzU2OyYjMjE2OTc7JiMyMTQ5NTsmIzEyMjg5OyYjMzM3NTY7JiMyMTY5NzsmIzIxNTE3OyYjMTIyODk7JiMzMzc1NjsmIzIxNjk3OyYjMzE4Njc7JiMzNjgyNzsmIzM0ODkyOyYjMjY1OTc7JiMzNTgxMDs8L3RleHQ+PHBvbHlnb24gZmlsbD0iI0YxRjFGMSIgcG9pbnRzPSI1OTIsOTA2LjYyNSw3NDYsOTA2LjYyNSw3NTgsOTE4LjYyNSw3NDYsOTMwLjYyNSw1OTIsOTMwLjYyNSw1ODAsOTE4LjYyNSw1OTIsOTA2LjYyNSIgc3R5bGU9InN0cm9rZTojMTgxODE4O3N0cm9rZS13aWR0aDowLjU7Ii8+PHRleHQgZmlsbD0iIzAwMDAwMCIgZm9udC1mYW1pbHk9InNhbnMtc2VyaWYiIGZvbnQtc2l6ZT0iMTEiIGxlbmd0aEFkanVzdD0ic3BhY2luZyIgdGV4dExlbmd0aD0iMTU0IiB4PSI1OTIiIHk9IjkyMy4xMzY3Ij4mIzI2NTk3OyYjMzU4MTA7JiMyMTA0MDsmIzMwMzQwOyYjMzM3NTY7JiMyMTY5NzsmIzIwNDQ5OyYjMjQ2ODc7JiMyNjE3NDsmIzMxMDM0OyYjMjIzMTI7JiMyMTAxNTsmIzM0OTIwOyYjMjAwMTM7PC90ZXh0PjxyZWN0IGZpbGw9IiNGMUYxRjEiIGhlaWdodD0iMzIuODQzOCIgcng9IjEyLjUiIHJ5PSIxMi41IiBzdHlsZT0ic3Ryb2tlOiMxODE4MTg7c3Ryb2tlLXdpZHRoOjAuNTsiIHdpZHRoPSI5MiIgeD0iNTE5IiB5PSI5NzUuMTEzMyIvPjx0ZXh0IGZpbGw9IiMwMDAwMDAiIGZvbnQtZmFtaWx5PSJzYW5zLXNlcmlmIiBmb250LXNpemU9IjEyIiBsZW5ndGhBZGp1c3Q9InNwYWNpbmciIHRleHRMZW5ndGg9IjcyIiB4PSI1MjkiIHk9Ijk5Ni40NTciPiYjMjA0NjI7JiMyNTkxMzsmIzMzNzU2OyYjMjE2OTc7JiMyMDQ0OTsmIzI0Njg3OzwvdGV4dD48ZWxsaXBzZSBjeD0iNTY1IiBjeT0iMTAzOC45NTciIGZpbGw9Im5vbmUiIHJ4PSIxMSIgcnk9IjExIiBzdHlsZT0ic3Ryb2tlOiMyMjIyMjI7c3Ryb2tlLXdpZHRoOjEuMDsiLz48ZWxsaXBzZSBjeD0iNTY1IiBjeT0iMTAzOC45NTciIGZpbGw9IiMyMjIyMjIiIHJ4PSI2IiByeT0iNiIgc3R5bGU9InN0cm9rZTojMTExMTExO3N0cm9rZS13aWR0aDoxLjA7Ii8+PHJlY3QgZmlsbD0iI0YxRjFGMSIgaGVpZ2h0PSIzMi44NDM4IiByeD0iMTIuNSIgcnk9IjEyLjUiIHN0eWxlPSJzdHJva2U6IzE4MTgxODtzdHJva2Utd2lkdGg6MC41OyIgd2lkdGg9IjkyIiB4PSI3MjciIHk9Ijk3NS4xMTMzIi8+PHRleHQgZmlsbD0iIzAwMDAwMCIgZm9udC1mYW1pbHk9InNhbnMtc2VyaWYiIGZvbnQtc2l6ZT0iMTIiIGxlbmd0aEFkanVzdD0ic3BhY2luZyIgdGV4dExlbmd0aD0iNzIiIHg9IjczNyIgeT0iOTk2LjQ1NyI+JiMyMTAyNDsmIzM4NTAwOyYjMzM3NTY7JiMyMTY5NzsmIzIwNDQ5OyYjMjQ2ODc7PC90ZXh0Pjxwb2x5Z29uIGZpbGw9IiNGMUYxRjEiIHBvaW50cz0iNzQwLDEwMjcuOTU3LDgwNiwxMDI3Ljk1Nyw4MTgsMTAzOS45NTcsODA2LDEwNTEuOTU3LDc0MCwxMDUxLjk1Nyw3MjgsMTAzOS45NTcsNzQwLDEwMjcuOTU3IiBzdHlsZT0ic3Ryb2tlOiMxODE4MTg7c3Ryb2tlLXdpZHRoOjAuNTsiLz48dGV4dCBmaWxsPSIjMDAwMDAwIiBmb250LWZhbWlseT0ic2Fucy1zZXJpZiIgZm9udC1zaXplPSIxMSIgbGVuZ3RoQWRqdXN0PSJzcGFjaW5nIiB0ZXh0TGVuZ3RoPSI2NiIgeD0iNzQwIiB5PSIxMDQ0LjQ2ODgiPiYjMzA4MzA7JiMzNTc0ODsmIzI2MTU5OyYjMjE1NDI7JiMyMTAyNDsmIzM4NTAwOzwvdGV4dD48dGV4dCBmaWxsPSIjMDAwMDAwIiBmb250LWZhbWlseT0ic2Fucy1zZXJpZiIgZm9udC1zaXplPSIxMSIgbGVuZ3RoQWRqdXN0PSJzcGFjaW5nIiB0ZXh0TGVuZ3RoPSIxMSIgeD0iNzE3IiB5PSIxMDM4LjU4MiI+JiMyNjE1OTs8L3RleHQ+PHJlY3QgZmlsbD0iI0YxRjFGMSIgaGVpZ2h0PSIzMi44NDM4IiByeD0iMTIuNSIgcnk9IjEyLjUiIHN0eWxlPSJzdHJva2U6IzE4MTgxODtzdHJva2Utd2lkdGg6MC41OyIgd2lkdGg9IjY4IiB4PSI2ODQiIHk9IjEwNjEuOTU3Ii8+PHRleHQgZmlsbD0iIzAwMDAwMCIgZm9udC1mYW1pbHk9InNhbnMtc2VyaWYiIGZvbnQtc2l6ZT0iMTIiIGxlbmd0aEFkanVzdD0ic3BhY2luZyIgdGV4dExlbmd0aD0iNDgiIHg9IjY5NCIgeT0iMTA4My4zMDA4Ij4mIzIxMDI0OyYjMzg1MDA7JiMyMDQ0OTsmIzI0Njg3OzwvdGV4dD48ZWxsaXBzZSBjeD0iNzE4IiBjeT0iMTEyNS44MDA4IiBmaWxsPSJub25lIiByeD0iMTEiIHJ5PSIxMSIgc3R5bGU9InN0cm9rZTojMjIyMjIyO3N0cm9rZS13aWR0aDoxLjA7Ii8+PGVsbGlwc2UgY3g9IjcxOCIgY3k9IjExMjUuODAwOCIgZmlsbD0iIzIyMjIyMiIgcng9IjYiIHJ5PSI2IiBzdHlsZT0ic3Ryb2tlOiMxMTExMTE7c3Ryb2tlLXdpZHRoOjEuMDsiLz48cmVjdCBmaWxsPSIjRjFGMUYxIiBoZWlnaHQ9IjMyLjg0MzgiIHJ4PSIxMi41IiByeT0iMTIuNSIgc3R5bGU9InN0cm9rZTojMTgxODE4O3N0cm9rZS13aWR0aDowLjU7IiB3aWR0aD0iMTA0IiB4PSI3NzYiIHk9IjEwNjEuOTU3Ii8+PHRleHQgZmlsbD0iIzAwMDAwMCIgZm9udC1mYW1pbHk9InNhbnMtc2VyaWYiIGZvbnQtc2l6ZT0iMTIiIGxlbmd0aEFkanVzdD0ic3BhY2luZyIgdGV4dExlbmd0aD0iODQiIHg9Ijc4NiIgeT0iMTA4My4zMDA4Ij4mIzM2ODIwOyYjMjIyMzg7JiMxOTk3ODsmIzE5OTY4OyYjMzI0MjM7JiMzMzc1NjsmIzIxMzMzOzwvdGV4dD48ZWxsaXBzZSBjeD0iODI4IiBjeT0iMTEyNS44MDA4IiBmaWxsPSJub25lIiByeD0iMTEiIHJ5PSIxMSIgc3R5bGU9InN0cm9rZTojMjIyMjIyO3N0cm9rZS13aWR0aDoxLjA7Ii8+PGVsbGlwc2UgY3g9IjgyOCIgY3k9IjExMjUuODAwOCIgZmlsbD0iIzIyMjIyMiIgcng9IjYiIHJ5PSI2IiBzdHlsZT0ic3Ryb2tlOiMxMTExMTE7c3Ryb2tlLXdpZHRoOjEuMDsiLz48cmVjdCBmaWxsPSIjRjFGMUYxIiBoZWlnaHQ9IjMyLjg0MzgiIHJ4PSIxMi41IiByeT0iMTIuNSIgc3R5bGU9InN0cm9rZTojMTgxODE4O3N0cm9rZS13aWR0aDowLjU7IiB3aWR0aD0iMTA0IiB4PSI5MTAiIHk9IjgwMC45Mzc1Ii8+PHRleHQgZmlsbD0iIzAwMDAwMCIgZm9udC1mYW1pbHk9InNhbnMtc2VyaWYiIGZvbnQtc2l6ZT0iMTIiIGxlbmd0aEFkanVzdD0ic3BhY2luZyIgdGV4dExlbmd0aD0iODQiIHg9IjkyMCIgeT0iODIyLjI4MTMiPiYjMzY4MjA7JiMyMjIzODsmIzE5OTc4OyYjMTk5Njg7JiMzMjQyMzsmIzMzNzU2OyYjMjEzMzM7PC90ZXh0PjxlbGxpcHNlIGN4PSI5NjIiIGN5PSI4NjQuNzgxMyIgZmlsbD0ibm9uZSIgcng9IjExIiByeT0iMTEiIHN0eWxlPSJzdHJva2U6IzIyMjIyMjtzdHJva2Utd2lkdGg6MS4wOyIvPjxlbGxpcHNlIGN4PSI5NjIiIGN5PSI4NjQuNzgxMyIgZmlsbD0iIzIyMjIyMiIgcng9IjYiIHJ5PSI2IiBzdHlsZT0ic3Ryb2tlOiMxMTExMTE7c3Ryb2tlLXdpZHRoOjEuMDsiLz48cmVjdCBmaWxsPSIjRjFGMUYxIiBoZWlnaHQ9IjMyLjg0MzgiIHJ4PSIxMi41IiByeT0iMTIuNSIgc3R5bGU9InN0cm9rZTojMTgxODE4O3N0cm9rZS13aWR0aDowLjU7IiB3aWR0aD0iMTc2IiB4PSI1NTAuNSIgeT0iMTE0Ni44MDA4Ii8+PHRleHQgZmlsbD0iIzAwMDAwMCIgZm9udC1mYW1pbHk9InNhbnMtc2VyaWYiIGZvbnQtc2l6ZT0iMTIiIGxlbmd0aEFkanVzdD0ic3BhY2luZyIgdGV4dExlbmd0aD0iMTU2IiB4PSI1NjAuNSIgeT0iMTE2OC4xNDQ1Ij4mIzIxODMwOyYjMjM0Nzg7JiMzNjgyNzsmIzIwODM3OyYjMzkxMzU7JiMyMjUzMDsmIzM1NzQ2OyYjMzkxODQ7JiMyNDE3OTsmIzIxNDg4OyYjMjAwMjc7JiMzMDAyODsmIzM4NzU0OzwvdGV4dD48cG9seWdvbiBmaWxsPSIjRjFGMUYxIiBwb2ludHM9IjYxNi41LDExOTkuNjQ0NSw2NjAuNSwxMTk5LjY0NDUsNjcyLjUsMTIxMS42NDQ1LDY2MC41LDEyMjMuNjQ0NSw2MTYuNSwxMjIzLjY0NDUsNjA0LjUsMTIxMS42NDQ1LDYxNi41LDExOTkuNjQ0NSIgc3R5bGU9InN0cm9rZTojMTgxODE4O3N0cm9rZS13aWR0aDowLjU7Ii8+PHRleHQgZmlsbD0iIzAwMDAwMCIgZm9udC1mYW1pbHk9InNhbnMtc2VyaWYiIGZvbnQtc2l6ZT0iMTEiIGxlbmd0aEFkanVzdD0ic3BhY2luZyIgdGV4dExlbmd0aD0iNDQiIHg9IjYxNi41IiB5PSIxMjE2LjE1NjMiPiYjMjg4NTc7JiMyMDk4NzsmIzMzNzU2OyYjMjEzMzM7PC90ZXh0PjxyZWN0IGZpbGw9IiNGMUYxRjEiIGhlaWdodD0iMzIuODQzOCIgcng9IjEyLjUiIHJ5PSIxMi41IiBzdHlsZT0ic3Ryb2tlOiMxODE4MTg7c3Ryb2tlLXdpZHRoOjAuNTsiIHdpZHRoPSI5MiIgeD0iNDIyLjUiIHk9IjEyNTcuMTkxNCIvPjx0ZXh0IGZpbGw9IiMwMDAwMDAiIGZvbnQtZmFtaWx5PSJzYW5zLXNlcmlmIiBmb250LXNpemU9IjEyIiBsZW5ndGhBZGp1c3Q9InNwYWNpbmciIHRleHRMZW5ndGg9IjcyIiB4PSI0MzIuNSIgeT0iMTI3OC41MzUyIj4mIzMzNzU2OyYjMjEzMzM7JiMyOTk4MzsmIzI1MTA0OyYjMzAwMjg7JiMzODc1NDs8L3RleHQ+PHJlY3QgZmlsbD0iI0YxRjFGMSIgaGVpZ2h0PSIzMi44NDM4IiByeD0iMTIuNSIgcnk9IjEyLjUiIHN0eWxlPSJzdHJva2U6IzE4MTgxODtzdHJva2Utd2lkdGg6MC41OyIgd2lkdGg9IjEyOCIgeD0iNDA0LjUiIHk9IjEzMTAuMDM1MiIvPjx0ZXh0IGZpbGw9IiMwMDAwMDAiIGZvbnQtZmFtaWx5PSJzYW5zLXNlcmlmIiBmb250LXNpemU9IjEyIiBsZW5ndGhBZGp1c3Q9InNwYWNpbmciIHRleHRMZW5ndGg9IjEwOCIgeD0iNDE0LjUiIHk9IjEzMzEuMzc4OSI+JiMyMjYzNTsmIzIwODg5OyYjMzM3NTY7JiMyMTMzMzsmIzIwNDQ5OyYjMjQ2ODc7JiMyNDE4MjsmIzIwNDQ1OyYjMjMzODQ7PC90ZXh0PjxyZWN0IGZpbGw9IiNGMUYxRjEiIGhlaWdodD0iMzIuODQzOCIgcng9IjEyLjUiIHJ5PSIxMi41IiBzdHlsZT0ic3Ryb2tlOiMxODE4MTg7c3Ryb2tlLXdpZHRoOjAuNTsiIHdpZHRoPSIxNjQiIHg9IjM4Ni41IiB5PSIxMzc2LjgyMDMiLz48dGV4dCBmaWxsPSIjMDAwMDAwIiBmb250LWZhbWlseT0ic2Fucy1zZXJpZiIgZm9udC1zaXplPSIxMiIgbGVuZ3RoQWRqdXN0PSJzcGFjaW5nIiB0ZXh0TGVuZ3RoPSIxNDQiIHg9IjM5Ni41IiB5PSIxMzk4LjE2NDEiPiYjMjk5ODM7JiMyNTEwNDsmIzMzNzU2OyYjMjEzMzM7JiMyNDE4MjsmIzM2ODIwOyYjMjIyMzg7JiMxOTk3ODsmIzE5OTY4OyYjMzI0MjM7JiMzMzc1NjsmIzIxMzMzOzwvdGV4dD48ZWxsaXBzZSBjeD0iNDY4LjUiIGN5PSIxNDQyLjM2NzIiIGZpbGw9Im5vbmUiIHJ4PSIxMSIgcnk9IjExIiBzdHlsZT0ic3Ryb2tlOiMyMjIyMjI7c3Ryb2tlLXdpZHRoOjEuMDsiLz48ZWxsaXBzZSBjeD0iNDY4LjUiIGN5PSIxNDQyLjM2NzIiIGZpbGw9IiMyMjIyMjIiIHJ4PSI2IiByeT0iNiIgc3R5bGU9InN0cm9rZTojMTExMTExO3N0cm9rZS13aWR0aDoxLjA7Ii8+PHJlY3QgZmlsbD0iI0YxRjFGMSIgaGVpZ2h0PSIzMi44NDM4IiByeD0iMTIuNSIgcnk9IjEyLjUiIHN0eWxlPSJzdHJva2U6IzE4MTgxODtzdHJva2Utd2lkdGg6MC41OyIgd2lkdGg9IjkyIiB4PSI2OTkuNSIgeT0iMTI1Ny4xOTE0Ii8+PHRleHQgZmlsbD0iIzAwMDAwMCIgZm9udC1mYW1pbHk9InNhbnMtc2VyaWYiIGZvbnQtc2l6ZT0iMTIiIGxlbmd0aEFkanVzdD0ic3BhY2luZyIgdGV4dExlbmd0aD0iNzIiIHg9IjcwOS41IiB5PSIxMjc4LjUzNTIiPiYjMzM3NTY7JiMyMTMzMzsmIzI2NTk3OyYjMjUyMTQ7JiMzMDAyODsmIzM4NzU0OzwvdGV4dD48cG9seWdvbiBmaWxsPSIjRjFGMUYxIiBwb2ludHM9IjY3OS41LDEzMTAuMDM1Miw4MTEuNSwxMzEwLjAzNTIsODIzLjUsMTMyMi4wMzUyLDgxMS41LDEzMzQuMDM1Miw2NzkuNSwxMzM0LjAzNTIsNjY3LjUsMTMyMi4wMzUyLDY3OS41LDEzMTAuMDM1MiIgc3R5bGU9InN0cm9rZTojMTgxODE4O3N0cm9rZS13aWR0aDowLjU7Ii8+PHRleHQgZmlsbD0iIzAwMDAwMCIgZm9udC1mYW1pbHk9InNhbnMtc2VyaWYiIGZvbnQtc2l6ZT0iMTEiIGxlbmd0aEFkanVzdD0ic3BhY2luZyIgdGV4dExlbmd0aD0iMTMyIiB4PSI2NzkuNSIgeT0iMTMyNi41NDY5Ij4mIzIyNjM1OyYjMjA4ODk7JiMzMzc1NjsmIzIxMzMzOyYjMjE0OTU7JiMxMjI4OTsmIzMzNzU2OyYjMjEzMzM7JiMyMTUxNzsmIzIxNjQ0OyYjMjYwODU7JiMyNjM5OTs8L3RleHQ+PHJlY3QgZmlsbD0iI0YxRjFGMSIgaGVpZ2h0PSIzMi44NDM4IiByeD0iMTIuNSIgcnk9IjEyLjUiIHN0eWxlPSJzdHJva2U6IzE4MTgxODtzdHJva2Utd2lkdGg6MC41OyIgd2lkdGg9IjE2NCIgeD0iNTcwLjUiIHk9IjEzNzguNTIzNCIvPjx0ZXh0IGZpbGw9IiMwMDAwMDAiIGZvbnQtZmFtaWx5PSJzYW5zLXNlcmlmIiBmb250LXNpemU9IjEyIiBsZW5ndGhBZGp1c3Q9InNwYWNpbmciIHRleHRMZW5ndGg9IjE0NCIgeD0iNTgwLjUiIHk9IjEzOTkuODY3MiI+JiMyNjU5NzsmIzM1ODEwOyYjMjEwNDA7JiMzMDM0MDsmIzMzNzU2OyYjMjEzMzM7JiMyNjE3NDsmIzMxMDM0OyYjMjIzMTI7JiMyMTAxNTsmIzM0OTIwOyYjMjAwMTM7PC90ZXh0PjxlbGxpcHNlIGN4PSI2NTIuNSIgY3k9IjE0NDQuMDcwMyIgZmlsbD0ibm9uZSIgcng9IjExIiByeT0iMTEiIHN0eWxlPSJzdHJva2U6IzIyMjIyMjtzdHJva2Utd2lkdGg6MS4wOyIvPjxlbGxpcHNlIGN4PSI2NTIuNSIgY3k9IjE0NDQuMDcwMyIgZmlsbD0iIzIyMjIyMiIgcng9IjYiIHJ5PSI2IiBzdHlsZT0ic3Ryb2tlOiMxMTExMTE7c3Ryb2tlLXdpZHRoOjEuMDsiLz48cmVjdCBmaWxsPSIjRjFGMUYxIiBoZWlnaHQ9IjMyLjg0MzgiIHJ4PSIxMi41IiByeT0iMTIuNSIgc3R5bGU9InN0cm9rZTojMTgxODE4O3N0cm9rZS13aWR0aDowLjU7IiB3aWR0aD0iMTA0IiB4PSI3ODYuNSIgeT0iMTM3OC41MjM0Ii8+PHRleHQgZmlsbD0iIzAwMDAwMCIgZm9udC1mYW1pbHk9InNhbnMtc2VyaWYiIGZvbnQtc2l6ZT0iMTIiIGxlbmd0aEFkanVzdD0ic3BhY2luZyIgdGV4dExlbmd0aD0iODQiIHg9Ijc5Ni41IiB5PSIxMzk5Ljg2NzIiPiYjMzY4MjA7JiMyMjIzODsmIzE5OTc4OyYjMTk5Njg7JiMzMjQyMzsmIzMzNzU2OyYjMjEzMzM7PC90ZXh0PjxlbGxpcHNlIGN4PSI4MzguNSIgY3k9IjE0NDQuMDcwMyIgZmlsbD0ibm9uZSIgcng9IjExIiByeT0iMTEiIHN0eWxlPSJzdHJva2U6IzIyMjIyMjtzdHJva2Utd2lkdGg6MS4wOyIvPjxlbGxpcHNlIGN4PSI4MzguNSIgY3k9IjE0NDQuMDcwMyIgZmlsbD0iIzIyMjIyMiIgcng9IjYiIHJ5PSI2IiBzdHlsZT0ic3Ryb2tlOiMxMTExMTE7c3Ryb2tlLXdpZHRoOjEuMDsiLz48cmVjdCBmaWxsPSIjRjFGMUYxIiBoZWlnaHQ9IjMyLjg0MzgiIHJ4PSIxMi41IiByeT0iMTIuNSIgc3R5bGU9InN0cm9rZTojMTgxODE4O3N0cm9rZS13aWR0aDowLjU7IiB3aWR0aD0iMTc2IiB4PSI1NTAuNSIgeT0iMTQ2NS4wNzAzIi8+PHRleHQgZmlsbD0iIzAwMDAwMCIgZm9udC1mYW1pbHk9InNhbnMtc2VyaWYiIGZvbnQtc2l6ZT0iMTIiIGxlbmd0aEFkanVzdD0ic3BhY2luZyIgdGV4dExlbmd0aD0iMTU2IiB4PSI1NjAuNSIgeT0iMTQ4Ni40MTQxIj4mIzIxODMwOyYjMjM0Nzg7JiMzNjgyNzsmIzIwODM3OyYjMzkxMzU7JiMyMjUzMDsmIzM1NzQ2OyYjMzkxODQ7JiMyNDE3OTsmIzIxNDg4OyYjMjAwMjc7JiMzMDAyODsmIzM4NzU0OzwvdGV4dD48cG9seWdvbiBmaWxsPSIjRjFGMUYxIiBwb2ludHM9IjYxNi41LDE1MTcuOTE0MSw2NjAuNSwxNTE3LjkxNDEsNjcyLjUsMTUyOS45MTQxLDY2MC41LDE1NDEuOTE0MSw2MTYuNSwxNTQxLjkxNDEsNjA0LjUsMTUyOS45MTQxLDYxNi41LDE1MTcuOTE0MSIgc3R5bGU9InN0cm9rZTojMTgxODE4O3N0cm9rZS13aWR0aDowLjU7Ii8+PHRleHQgZmlsbD0iIzAwMDAwMCIgZm9udC1mYW1pbHk9InNhbnMtc2VyaWYiIGZvbnQtc2l6ZT0iMTEiIGxlbmd0aEFkanVzdD0ic3BhY2luZyIgdGV4dExlbmd0aD0iNDQiIHg9IjYxNi41IiB5PSIxNTM0LjQyNTgiPiYjMjg4NTc7JiMyMDk4NzsmIzM1NzQ2OyYjMjEzMzM7PC90ZXh0PjxyZWN0IGZpbGw9IiNGMUYxRjEiIGhlaWdodD0iMzIuODQzOCIgcng9IjEyLjUiIHJ5PSIxMi41IiBzdHlsZT0ic3Ryb2tlOiMxODE4MTg7c3Ryb2tlLXdpZHRoOjAuNTsiIHdpZHRoPSI5MiIgeD0iMzU1IiB5PSIxNTc1LjQ2MDkiLz48dGV4dCBmaWxsPSIjMDAwMDAwIiBmb250LWZhbWlseT0ic2Fucy1zZXJpZiIgZm9udC1zaXplPSIxMiIgbGVuZ3RoQWRqdXN0PSJzcGFjaW5nIiB0ZXh0TGVuZ3RoPSI3MiIgeD0iMzY1IiB5PSIxNTk2LjgwNDciPiYjMzU3NDY7JiMyMTMzMzsmIzI0NDA1OyYjMjA4Mzc7JiMzMDAyODsmIzM4NzU0OzwvdGV4dD48cG9seWdvbiBmaWxsPSIjRjFGMUYxIiBwb2ludHM9IjM2OCwxNjI4LjMwNDcsNDM0LDE2MjguMzA0Nyw0NDYsMTY0MC4zMDQ3LDQzNCwxNjUyLjMwNDcsMzY4LDE2NTIuMzA0NywzNTYsMTY0MC4zMDQ3LDM2OCwxNjI4LjMwNDciIHN0eWxlPSJzdHJva2U6IzE4MTgxODtzdHJva2Utd2lkdGg6MC41OyIvPjx0ZXh0IGZpbGw9IiMwMDAwMDAiIGZvbnQtZmFtaWx5PSJzYW5zLXNlcmlmIiBmb250LXNpemU9IjExIiBsZW5ndGhBZGp1c3Q9InNwYWNpbmciIHRleHRMZW5ndGg9IjY2IiB4PSIzNjgiIHk9IjE2NDQuODE2NCI+JiMyMjYzNTsmIzIwODg5OyYjMzU3NDY7JiMyMTMzMzsmIzIwNDQ5OyYjMjQ2ODc7PC90ZXh0PjxyZWN0IGZpbGw9IiNGMUYxRjEiIGhlaWdodD0iMzIuODQzOCIgcng9IjEyLjUiIHJ5PSIxMi41IiBzdHlsZT0ic3Ryb2tlOiMxODE4MTg7c3Ryb2tlLXdpZHRoOjAuNTsiIHdpZHRoPSIxNjQiIHg9IjI1NyIgeT0iMTY4NS44NTE2Ii8+PHRleHQgZmlsbD0iIzAwMDAwMCIgZm9udC1mYW1pbHk9InNhbnMtc2VyaWYiIGZvbnQtc2l6ZT0iMTIiIGxlbmd0aEFkanVzdD0ic3BhY2luZyIgdGV4dExlbmd0aD0iMTQ0IiB4PSIyNjciIHk9IjE3MDcuMTk1MyI+JiMyNTk2ODsmIzI1NDU0OyYjMjAyNTY7JiMyMTA0MDsmIzIwMTcwOyYjMjYwODU7JiMzNTc0NjsmIzIxMzMzOyYjMjAwMTM7JiMyNDE4MjsmIzI2MTc0OyYjMzEwMzQ7PC90ZXh0PjxyZWN0IGZpbGw9IiNGMUYxRjEiIGhlaWdodD0iMzIuODQzOCIgcng9IjEyLjUiIHJ5PSIxMi41IiBzdHlsZT0ic3Ryb2tlOiMxODE4MTg7c3Ryb2tlLXdpZHRoOjAuNTsiIHdpZHRoPSIxMDQiIHg9IjI4NyIgeT0iMTc0OC45OTIyIi8+PHRleHQgZmlsbD0iIzAwMDAwMCIgZm9udC1mYW1pbHk9InNhbnMtc2VyaWYiIGZvbnQtc2l6ZT0iMTIiIGxlbmd0aEFkanVzdD0ic3BhY2luZyIgdGV4dExlbmd0aD0iODQiIHg9IjI5NyIgeT0iMTc3MC4zMzU5Ij4mIzM2ODIwOyYjMjIyMzg7JiMxOTk3ODsmIzE5OTY4OyYjMzI0MjM7JiMzMzc1NjsmIzIxMzMzOzwvdGV4dD48ZWxsaXBzZSBjeD0iMzM5IiBjeT0iMTgyNy44MzU5IiBmaWxsPSJub25lIiByeD0iMTEiIHJ5PSIxMSIgc3R5bGU9InN0cm9rZTojMjIyMjIyO3N0cm9rZS13aWR0aDoxLjA7Ii8+PGVsbGlwc2UgY3g9IjMzOSIgY3k9IjE4MjcuODM1OSIgZmlsbD0iIzIyMjIyMiIgcng9IjYiIHJ5PSI2IiBzdHlsZT0ic3Ryb2tlOiMxMTExMTE7c3Ryb2tlLXdpZHRoOjEuMDsiLz48cmVjdCBmaWxsPSIjRjFGMUYxIiBoZWlnaHQ9IjMyLjg0MzgiIHJ4PSIxMi41IiByeT0iMTIuNSIgc3R5bGU9InN0cm9rZTojMTgxODE4O3N0cm9rZS13aWR0aDowLjU7IiB3aWR0aD0iMTA0IiB4PSI0NDEiIHk9IjE2ODUuODUxNiIvPjx0ZXh0IGZpbGw9IiMwMDAwMDAiIGZvbnQtZmFtaWx5PSJzYW5zLXNlcmlmIiBmb250LXNpemU9IjEyIiBsZW5ndGhBZGp1c3Q9InNwYWNpbmciIHRleHRMZW5ndGg9Ijg0IiB4PSI0NTEiIHk9IjE3MDcuMTk1MyI+JiMzNjgyMDsmIzIyMjM4OyYjMTk5Nzg7JiMxOTk2ODsmIzMyNDIzOyYjMzM3NTY7JiMyMTMzMzs8L3RleHQ+PGVsbGlwc2UgY3g9IjQ5MyIgY3k9IjE3NTkuOTkyMiIgZmlsbD0ibm9uZSIgcng9IjExIiByeT0iMTEiIHN0eWxlPSJzdHJva2U6IzIyMjIyMjtzdHJva2Utd2lkdGg6MS4wOyIvPjxlbGxpcHNlIGN4PSI0OTMiIGN5PSIxNzU5Ljk5MjIiIGZpbGw9IiMyMjIyMjIiIHJ4PSI2IiByeT0iNiIgc3R5bGU9InN0cm9rZTojMTExMTExO3N0cm9rZS13aWR0aDoxLjA7Ii8+PHJlY3QgZmlsbD0iI0YxRjFGMSIgaGVpZ2h0PSIzMi44NDM4IiByeD0iMTIuNSIgcnk9IjEyLjUiIHN0eWxlPSJzdHJva2U6IzE4MTgxODtzdHJva2Utd2lkdGg6MC41OyIgd2lkdGg9IjkyIiB4PSI3NDYuNSIgeT0iMTU3NS40NjA5Ii8+PHRleHQgZmlsbD0iIzAwMDAwMCIgZm9udC1mYW1pbHk9InNhbnMtc2VyaWYiIGZvbnQtc2l6ZT0iMTIiIGxlbmd0aEFkanVzdD0ic3BhY2luZyIgdGV4dExlbmd0aD0iNzIiIHg9Ijc1Ni41IiB5PSIxNTk2LjgwNDciPiYjMzU3NDY7JiMyMTMzMzsmIzI2NTk3OyYjMzU4MTA7JiMzMDAyODsmIzM4NzU0OzwvdGV4dD48cmVjdCBmaWxsPSIjRjFGMUYxIiBoZWlnaHQ9IjMyLjg0MzgiIHJ4PSIxMi41IiByeT0iMTIuNSIgc3R5bGU9InN0cm9rZTojMTgxODE4O3N0cm9rZS13aWR0aDowLjU7IiB3aWR0aD0iMzA4IiB4PSI2MzguNSIgeT0iMTYyOC4zMDQ3Ii8+PHRleHQgZmlsbD0iIzAwMDAwMCIgZm9udC1mYW1pbHk9InNhbnMtc2VyaWYiIGZvbnQtc2l6ZT0iMTIiIGxlbmd0aEFkanVzdD0ic3BhY2luZyIgdGV4dExlbmd0aD0iMjg4IiB4PSI2NDguNSIgeT0iMTY0OS42NDg0Ij4mIzIyNjM1OyYjMjA4ODk7JiMzNTc0NjsmIzIxMzMzOyYjMjE0OTU7JiMxMjI4OTsmIzI1MTYzOyYjMjY0MjY7JiMyMTQ5NTsmIzEyMjg5OyYjMjYwODU7JiMyNjM5OTsmIzI2MTAyOyYjMzgzODg7JiMxMjI4OTsmIzM5MDM4OyYjMjM0NTg7JiMyMjk5NTsmIzIxNTE3OyYjMTIyODk7JiMyMjMyMDsmIzIyMzM2OyYjMzU4MTQ7JiMyNDc3Mzs8L3RleHQ+PHJlY3QgZmlsbD0iI0YxRjFGMSIgaGVpZ2h0PSIzMi44NDM4IiByeD0iMTIuNSIgcnk9IjEyLjUiIHN0eWxlPSJzdHJva2U6IzE4MTgxODtzdHJva2Utd2lkdGg6MC41OyIgd2lkdGg9IjQ0IiB4PSI3NzAuNSIgeT0iMTY5Ni4xNDg0Ii8+PHRleHQgZmlsbD0iIzAwMDAwMCIgZm9udC1mYW1pbHk9InNhbnMtc2VyaWYiIGZvbnQtc2l6ZT0iMTIiIGxlbmd0aEFkanVzdD0ic3BhY2luZyIgdGV4dExlbmd0aD0iMjQiIHg9Ijc4MC41IiB5PSIxNzE3LjQ5MjIiPiYjMjY1OTc7JiMzNTgxMDs8L3RleHQ+PHBvbHlnb24gZmlsbD0iI0YxRjFGMSIgcG9pbnRzPSI3MjYuNSwxNzU5LjI4OTEsODU4LjUsMTc1OS4yODkxLDg3MC41LDE3NzEuMjg5MSw4NTguNSwxNzgzLjI4OTEsNzI2LjUsMTc4My4yODkxLDcxNC41LDE3NzEuMjg5MSw3MjYuNSwxNzU5LjI4OTEiIHN0eWxlPSJzdHJva2U6IzE4MTgxODtzdHJva2Utd2lkdGg6MC41OyIvPjx0ZXh0IGZpbGw9IiMwMDAwMDAiIGZvbnQtZmFtaWx5PSJzYW5zLXNlcmlmIiBmb250LXNpemU9IjExIiBsZW5ndGhBZGp1c3Q9InNwYWNpbmciIHRleHRMZW5ndGg9IjEzMiIgeD0iNzI2LjUiIHk9IjE3NzUuODAwOCI+JiMyNjU5NzsmIzM1ODEwOyYjMjEwNDA7JiMzMDM0MDsmIzM1NzQ2OyYjMjEzMzM7JiMyNjE3NDsmIzMxMDM0OyYjMjIzMTI7JiMyMTAxNTsmIzM0OTIwOyYjMjAwMTM7PC90ZXh0PjxyZWN0IGZpbGw9IiNGMUYxRjEiIGhlaWdodD0iMzIuODQzOCIgcng9IjEyLjUiIHJ5PSIxMi41IiBzdHlsZT0ic3Ryb2tlOiMxODE4MTg7c3Ryb2tlLXdpZHRoOjAuNTsiIHdpZHRoPSIxNDAiIHg9IjU2NSIgeT0iMTgxNi44MzU5Ii8+PHRleHQgZmlsbD0iIzAwMDAwMCIgZm9udC1mYW1pbHk9InNhbnMtc2VyaWYiIGZvbnQtc2l6ZT0iMTIiIGxlbmd0aEFkanVzdD0ic3BhY2luZyIgdGV4dExlbmd0aD0iMTIwIiB4PSI1NzUiIHk9IjE4MzguMTc5NyI+JiMzNjgzMDsmIzI1NTA5OyYjMjEwNDA7JiMyNTE3MTsmIzIxMzMzOyYjMjY0MjY7JiMzNjgyNzsmIzM0ODkyOyYjMjUxNzE7JiMyMTMzMzs8L3RleHQ+PGVsbGlwc2UgY3g9IjYzNSIgY3k9IjE4ODAuNjc5NyIgZmlsbD0ibm9uZSIgcng9IjExIiByeT0iMTEiIHN0eWxlPSJzdHJva2U6IzIyMjIyMjtzdHJva2Utd2lkdGg6MS4wOyIvPjxlbGxpcHNlIGN4PSI2MzUiIGN5PSIxODgwLjY3OTciIGZpbGw9IiMyMjIyMjIiIHJ4PSI2IiByeT0iNiIgc3R5bGU9InN0cm9rZTojMTExMTExO3N0cm9rZS13aWR0aDoxLjA7Ii8+PHJlY3QgZmlsbD0iI0YxRjFGMSIgaGVpZ2h0PSIzMi44NDM4IiByeD0iMTIuNSIgcnk9IjEyLjUiIHN0eWxlPSJzdHJva2U6IzE4MTgxODtzdHJva2Utd2lkdGg6MC41OyIgd2lkdGg9IjgwIiB4PSI3MjUiIHk9IjE4MTYuODM1OSIvPjx0ZXh0IGZpbGw9IiMwMDAwMDAiIGZvbnQtZmFtaWx5PSJzYW5zLXNlcmlmIiBmb250LXNpemU9IjEyIiBsZW5ndGhBZGp1c3Q9InNwYWNpbmciIHRleHRMZW5ndGg9IjYwIiB4PSI3MzUiIHk9IjE4MzguMTc5NyI+JiMzNTc3NDsmIzMyNjIyOyYjMjUxNzE7JiMyMTMzMzsmIzI2NDI2OzwvdGV4dD48ZWxsaXBzZSBjeD0iNzY1IiBjeT0iMTg4MC42Nzk3IiBmaWxsPSJub25lIiByeD0iMTEiIHJ5PSIxMSIgc3R5bGU9InN0cm9rZTojMjIyMjIyO3N0cm9rZS13aWR0aDoxLjA7Ii8+PGVsbGlwc2UgY3g9Ijc2NSIgY3k9IjE4ODAuNjc5NyIgZmlsbD0iIzIyMjIyMiIgcng9IjYiIHJ5PSI2IiBzdHlsZT0ic3Ryb2tlOiMxMTExMTE7c3Ryb2tlLXdpZHRoOjEuMDsiLz48cmVjdCBmaWxsPSIjRjFGMUYxIiBoZWlnaHQ9IjMyLjg0MzgiIHJ4PSIxMi41IiByeT0iMTIuNSIgc3R5bGU9InN0cm9rZTojMTgxODE4O3N0cm9rZS13aWR0aDowLjU7IiB3aWR0aD0iMTQwIiB4PSI4NjIiIHk9IjE4MTYuODM1OSIvPjx0ZXh0IGZpbGw9IiMwMDAwMDAiIGZvbnQtZmFtaWx5PSJzYW5zLXNlcmlmIiBmb250LXNpemU9IjEyIiBsZW5ndGhBZGp1c3Q9InNwYWNpbmciIHRleHRMZW5ndGg9IjEyMCIgeD0iODcyIiB5PSIxODM4LjE3OTciPiYjMzY4MzA7JiMyNTUwOTsmIzIxMDQwOyYjMjUxNzE7JiMyMTMzMzsmIzI2NDI2OyYjMzY4Mjc7JiMzNDg5MjsmIzI1MTcxOyYjMjEzMzM7PC90ZXh0PjxlbGxpcHNlIGN4PSI5MzIiIGN5PSIxODgwLjY3OTciIGZpbGw9Im5vbmUiIHJ4PSIxMSIgcnk9IjExIiBzdHlsZT0ic3Ryb2tlOiMyMjIyMjI7c3Ryb2tlLXdpZHRoOjEuMDsiLz48ZWxsaXBzZSBjeD0iOTMyIiBjeT0iMTg4MC42Nzk3IiBmaWxsPSIjMjIyMjIyIiByeD0iNiIgcnk9IjYiIHN0eWxlPSJzdHJva2U6IzExMTExMTtzdHJva2Utd2lkdGg6MS4wOyIvPjxsaW5lIHN0eWxlPSJzdHJva2U6IzE4MTgxODtzdHJva2Utd2lkdGg6MS4wOyIgeDE9IjUxMC41IiB4Mj0iNTEwLjUiIHkxPSIzMCIgeTI9IjUwIi8+PHBvbHlnb24gZmlsbD0iIzE4MTgxOCIgcG9pbnRzPSI1MDYuNSw0MCw1MTAuNSw1MCw1MTQuNSw0MCw1MTAuNSw0NCIgc3R5bGU9InN0cm9rZTojMTgxODE4O3N0cm9rZS13aWR0aDoxLjA7Ii8+PGxpbmUgc3R5bGU9InN0cm9rZTojMTgxODE4O3N0cm9rZS13aWR0aDoxLjA7IiB4MT0iMzcwLjUiIHgyPSIzNzAuNSIgeTE9IjE5My4yMzQ0IiB5Mj0iMjEzLjIzNDQiLz48cG9seWdvbiBmaWxsPSIjMTgxODE4IiBwb2ludHM9IjM2Ni41LDIwMy4yMzQ0LDM3MC41LDIxMy4yMzQ0LDM3NC41LDIwMy4yMzQ0LDM3MC41LDIwNy4yMzQ0IiBzdHlsZT0ic3Ryb2tlOiMxODE4MTg7c3Ryb2tlLXdpZHRoOjEuMDsiLz48bGluZSBzdHlsZT0ic3Ryb2tlOiMxODE4MTg7c3Ryb2tlLXdpZHRoOjEuMDsiIHgxPSI1MjYuNSIgeDI9IjUyNi41IiB5MT0iMTkzLjIzNDQiIHkyPSIyMTMuMjM0NCIvPjxwb2x5Z29uIGZpbGw9IiMxODE4MTgiIHBvaW50cz0iNTIyLjUsMjAzLjIzNDQsNTI2LjUsMjEzLjIzNDQsNTMwLjUsMjAzLjIzNDQsNTI2LjUsMjA3LjIzNDQiIHN0eWxlPSJzdHJva2U6IzE4MTgxODtzdHJva2Utd2lkdGg6MS4wOyIvPjxsaW5lIHN0eWxlPSJzdHJva2U6IzE4MTgxODtzdHJva2Utd2lkdGg6MS4wOyIgeDE9IjY2Mi41IiB4Mj0iNjYyLjUiIHkxPSIxOTMuMjM0NCIgeTI9IjIxMy4yMzQ0Ii8+PHBvbHlnb24gZmlsbD0iIzE4MTgxOCIgcG9pbnRzPSI2NTguNSwyMDMuMjM0NCw2NjIuNSwyMTMuMjM0NCw2NjYuNSwyMDMuMjM0NCw2NjIuNSwyMDcuMjM0NCIgc3R5bGU9InN0cm9rZTojMTgxODE4O3N0cm9rZS13aWR0aDoxLjA7Ii8+PGxpbmUgc3R5bGU9InN0cm9rZTojMTgxODE4O3N0cm9rZS13aWR0aDoxLjA7IiB4MT0iNDc2LjUiIHgyPSIzNzAuNSIgeTE9IjExNC44NDM4IiB5Mj0iMTE0Ljg0MzgiLz48bGluZSBzdHlsZT0ic3Ryb2tlOiMxODE4MTg7c3Ryb2tlLXdpZHRoOjEuMDsiIHgxPSIzNzAuNSIgeDI9IjM3MC41IiB5MT0iMTE0Ljg0MzgiIHkyPSIxNjAuMzkwNiIvPjxwb2x5Z29uIGZpbGw9IiMxODE4MTgiIHBvaW50cz0iMzY2LjUsMTUwLjM5MDYsMzcwLjUsMTYwLjM5MDYsMzc0LjUsMTUwLjM5MDYsMzcwLjUsMTU0LjM5MDYiIHN0eWxlPSJzdHJva2U6IzE4MTgxODtzdHJva2Utd2lkdGg6MS4wOyIvPjx0ZXh0IGZpbGw9IiMwMDAwMDAiIGZvbnQtZmFtaWx5PSJzYW5zLXNlcmlmIiBmb250LXNpemU9IjExIiBsZW5ndGhBZGp1c3Q9InNwYWNpbmciIHRleHRMZW5ndGg9IjY2IiB4PSIzNzAuNSIgeT0iMTQyLjEyODkiPiYjMjg4NTc7JiMyMDk4NzsmIzM1NzQ2OyYjMjEzMzM7JiMyMzU0ODsmIzIwODM3OzwvdGV4dD48bGluZSBzdHlsZT0ic3Ryb2tlOiMxODE4MTg7c3Ryb2tlLXdpZHRoOjEuMDsiIHgxPSI1NDQuNSIgeDI9IjY2Mi41IiB5MT0iMTE0Ljg0MzgiIHkyPSIxMTQuODQzOCIvPjxsaW5lIHN0eWxlPSJzdHJva2U6IzE4MTgxODtzdHJva2Utd2lkdGg6MS4wOyIgeDE9IjY2Mi41IiB4Mj0iNjYyLjUiIHkxPSIxMTQuODQzOCIgeTI9IjE2MC4zOTA2Ii8+PHBvbHlnb24gZmlsbD0iIzE4MTgxOCIgcG9pbnRzPSI2NTguNSwxNTAuMzkwNiw2NjIuNSwxNjAuMzkwNiw2NjYuNSwxNTAuMzkwNiw2NjIuNSwxNTQuMzkwNiIgc3R5bGU9InN0cm9rZTojMTgxODE4O3N0cm9rZS13aWR0aDoxLjA7Ii8+PHRleHQgZmlsbD0iIzAwMDAwMCIgZm9udC1mYW1pbHk9InNhbnMtc2VyaWYiIGZvbnQtc2l6ZT0iMTEiIGxlbmd0aEFkanVzdD0ic3BhY2luZyIgdGV4dExlbmd0aD0iNDQiIHg9IjY2Mi41IiB5PSIxNDIuMTI4OSI+JiMyODg1NzsmIzIwOTg3OyYjMzY4NjQ7JiMyMDk4Njs8L3RleHQ+PGxpbmUgc3R5bGU9InN0cm9rZTojMTgxODE4O3N0cm9rZS13aWR0aDoxLjA7IiB4MT0iNTEwLjUiIHgyPSI1MTAuNSIgeTE9IjEyNi44NDM4IiB5Mj0iMTM4LjAyNiIvPjxsaW5lIHN0eWxlPSJzdHJva2U6IzE4MTgxODtzdHJva2Utd2lkdGg6MS4wOyIgeDE9IjUxMC41IiB4Mj0iNTI2LjUiIHkxPSIxMzguMDI2IiB5Mj0iMTM4LjAyNiIvPjxsaW5lIHN0eWxlPSJzdHJva2U6IzE4MTgxODtzdHJva2Utd2lkdGg6MS4wOyIgeDE9IjUyNi41IiB4Mj0iNTI2LjUiIHkxPSIxMzguMDI2IiB5Mj0iMTYwLjM5MDYiLz48cG9seWdvbiBmaWxsPSIjMTgxODE4IiBwb2ludHM9IjUyMi41LDE1MC4zOTA2LDUyNi41LDE2MC4zOTA2LDUzMC41LDE1MC4zOTA2LDUyNi41LDE1NC4zOTA2IiBzdHlsZT0ic3Ryb2tlOiMxODE4MTg7c3Ryb2tlLXdpZHRoOjEuMDsiLz48dGV4dCBmaWxsPSIjMDAwMDAwIiBmb250LWZhbWlseT0ic2Fucy1zZXJpZiIgZm9udC1zaXplPSIxMSIgbGVuZ3RoQWRqdXN0PSJzcGFjaW5nIiB0ZXh0TGVuZ3RoPSI2NiIgeD0iNTEwLjUiIHk9IjE0My4xMjg5Ij4mIzI4ODU3OyYjMjA5ODc7JiMzNTc0NjsmIzIxMzMzOyYjMjM1NDg7JiMyMDk4Njs8L3RleHQ+PGxpbmUgc3R5bGU9InN0cm9rZTojMTgxODE4O3N0cm9rZS13aWR0aDoxLjA7IiB4MT0iNTEwLjUiIHgyPSI1MTAuNSIgeTE9IjgyLjg0MzgiIHkyPSIxMDIuODQzOCIvPjxwb2x5Z29uIGZpbGw9IiMxODE4MTgiIHBvaW50cz0iNTA2LjUsOTIuODQzOCw1MTAuNSwxMDIuODQzOCw1MTQuNSw5Mi44NDM4LDUxMC41LDk2Ljg0MzgiIHN0eWxlPSJzdHJva2U6IzE4MTgxODtzdHJva2Utd2lkdGg6MS4wOyIvPjxsaW5lIHN0eWxlPSJzdHJva2U6IzE4MTgxODtzdHJva2Utd2lkdGg6MS4wOyIgeDE9IjEyOSIgeDI9IjEyOSIgeTE9IjM4OC40Njg4IiB5Mj0iNDA4LjQ2ODgiLz48cG9seWdvbiBmaWxsPSIjMTgxODE4IiBwb2ludHM9IjEyNSwzOTguNDY4OCwxMjksNDA4LjQ2ODgsMTMzLDM5OC40Njg4LDEyOSw0MDIuNDY4OCIgc3R5bGU9InN0cm9rZTojMTgxODE4O3N0cm9rZS13aWR0aDoxLjA7Ii8+PGxpbmUgc3R5bGU9InN0cm9rZTojMTgxODE4O3N0cm9rZS13aWR0aDoxLjA7IiB4MT0iMTI5IiB4Mj0iMTI5IiB5MT0iNDQxLjMxMjUiIHkyPSI0NjEuMzEyNSIvPjxwb2x5Z29uIGZpbGw9IiMxODE4MTgiIHBvaW50cz0iMTI1LDQ1MS4zMTI1LDEyOSw0NjEuMzEyNSwxMzMsNDUxLjMxMjUsMTI5LDQ1NS4zMTI1IiBzdHlsZT0ic3Ryb2tlOiMxODE4MTg7c3Ryb2tlLXdpZHRoOjEuMDsiLz48bGluZSBzdHlsZT0ic3Ryb2tlOiMxODE4MTg7c3Ryb2tlLXdpZHRoOjEuMDsiIHgxPSIxMjkiIHgyPSIxMjkiIHkxPSI0OTQuMTU2MyIgeTI9IjUyOS4xNTYzIi8+PHBvbHlnb24gZmlsbD0iIzE4MTgxOCIgcG9pbnRzPSIxMjUsNTE5LjE1NjMsMTI5LDUyOS4xNTYzLDEzMyw1MTkuMTU2MywxMjksNTIzLjE1NjMiIHN0eWxlPSJzdHJva2U6IzE4MTgxODtzdHJva2Utd2lkdGg6MS4wOyIvPjxsaW5lIHN0eWxlPSJzdHJva2U6IzE4MTgxODtzdHJva2Utd2lkdGg6MS4wOyIgeDE9IjYzOC41IiB4Mj0iNjM4LjUiIHkxPSIzODguNDY4OCIgeTI9IjQwOC40Njg4Ii8+PHBvbHlnb24gZmlsbD0iIzE4MTgxOCIgcG9pbnRzPSI2MzQuNSwzOTguNDY4OCw2MzguNSw0MDguNDY4OCw2NDIuNSwzOTguNDY4OCw2MzguNSw0MDIuNDY4OCIgc3R5bGU9InN0cm9rZTojMTgxODE4O3N0cm9rZS13aWR0aDoxLjA7Ii8+PGxpbmUgc3R5bGU9InN0cm9rZTojMTgxODE4O3N0cm9rZS13aWR0aDoxLjA7IiB4MT0iNDU4LjUiIHgyPSI0NTguNSIgeTE9IjU1MS43MDMxIiB5Mj0iNTcxLjcwMzEiLz48cG9seWdvbiBmaWxsPSIjMTgxODE4IiBwb2ludHM9IjQ1NC41LDU2MS43MDMxLDQ1OC41LDU3MS43MDMxLDQ2Mi41LDU2MS43MDMxLDQ1OC41LDU2NS43MDMxIiBzdHlsZT0ic3Ryb2tlOiMxODE4MTg7c3Ryb2tlLXdpZHRoOjEuMDsiLz48bGluZSBzdHlsZT0ic3Ryb2tlOiMxODE4MTg7c3Ryb2tlLXdpZHRoOjEuMDsiIHgxPSI1NjguNSIgeDI9IjU2OC41IiB5MT0iNjM4LjU0NjkiIHkyPSI2NTguNTQ2OSIvPjxwb2x5Z29uIGZpbGw9IiMxODE4MTgiIHBvaW50cz0iNTY0LjUsNjQ4LjU0NjksNTY4LjUsNjU4LjU0NjksNTcyLjUsNjQ4LjU0NjksNTY4LjUsNjUyLjU0NjkiIHN0eWxlPSJzdHJva2U6IzE4MTgxODtzdHJva2Utd2lkdGg6MS4wOyIvPjxsaW5lIHN0eWxlPSJzdHJva2U6IzE4MTgxODtzdHJva2Utd2lkdGg6MS4wOyIgeDE9IjY3OC41IiB4Mj0iNjc4LjUiIHkxPSI2MzguNTQ2OSIgeTI9IjY1OC41NDY5Ii8+PHBvbHlnb24gZmlsbD0iIzE4MTgxOCIgcG9pbnRzPSI2NzQuNSw2NDguNTQ2OSw2NzguNSw2NTguNTQ2OSw2ODIuNSw2NDguNTQ2OSw2NzguNSw2NTIuNTQ2OSIgc3R5bGU9InN0cm9rZTojMTgxODE4O3N0cm9rZS13aWR0aDoxLjA7Ii8+PGxpbmUgc3R5bGU9InN0cm9rZTojMTgxODE4O3N0cm9rZS13aWR0aDoxLjA7IiB4MT0iNTc4LjUiIHgyPSI1NjguNSIgeTE9IjU4My43MDMxIiB5Mj0iNTgzLjcwMzEiLz48bGluZSBzdHlsZT0ic3Ryb2tlOiMxODE4MTg7c3Ryb2tlLXdpZHRoOjEuMDsiIHgxPSI1NjguNSIgeDI9IjU2OC41IiB5MT0iNTgzLjcwMzEiIHkyPSI2MDUuNzAzMSIvPjxwb2x5Z29uIGZpbGw9IiMxODE4MTgiIHBvaW50cz0iNTY0LjUsNTk1LjcwMzEsNTY4LjUsNjA1LjcwMzEsNTcyLjUsNTk1LjcwMzEsNTY4LjUsNTk5LjcwMzEiIHN0eWxlPSJzdHJva2U6IzE4MTgxODtzdHJva2Utd2lkdGg6MS4wOyIvPjxsaW5lIHN0eWxlPSJzdHJva2U6IzE4MTgxODtzdHJva2Utd2lkdGg6MS4wOyIgeDE9IjY2OC41IiB4Mj0iNjc4LjUiIHkxPSI1ODMuNzAzMSIgeTI9IjU4My43MDMxIi8+PGxpbmUgc3R5bGU9InN0cm9rZTojMTgxODE4O3N0cm9rZS13aWR0aDoxLjA7IiB4MT0iNjc4LjUiIHgyPSI2NzguNSIgeTE9IjU4My43MDMxIiB5Mj0iNjA1LjcwMzEiLz48cG9seWdvbiBmaWxsPSIjMTgxODE4IiBwb2ludHM9IjY3NC41LDU5NS43MDMxLDY3OC41LDYwNS43MDMxLDY4Mi41LDU5NS43MDMxLDY3OC41LDU5OS43MDMxIiBzdHlsZT0ic3Ryb2tlOiMxODE4MTg7c3Ryb2tlLXdpZHRoOjEuMDsiLz48bGluZSBzdHlsZT0ic3Ryb2tlOiMxODE4MTg7c3Ryb2tlLXdpZHRoOjEuMDsiIHgxPSI2MjMuNSIgeDI9IjYyMy41IiB5MT0iNTUxLjcwMzEiIHkyPSI1NzEuNzAzMSIvPjxwb2x5Z29uIGZpbGw9IiMxODE4MTgiIHBvaW50cz0iNjE5LjUsNTYxLjcwMzEsNjIzLjUsNTcxLjcwMzEsNjI3LjUsNTYxLjcwMzEsNjIzLjUsNTY1LjcwMzEiIHN0eWxlPSJzdHJva2U6IzE4MTgxODtzdHJva2Utd2lkdGg6MS4wOyIvPjxsaW5lIHN0eWxlPSJzdHJva2U6IzE4MTgxODtzdHJva2Utd2lkdGg6MS4wOyIgeDE9IjgxMi41IiB4Mj0iODEyLjUiIHkxPSI1NTEuNzAzMSIgeTI9IjU3MS43MDMxIi8+PHBvbHlnb24gZmlsbD0iIzE4MTgxOCIgcG9pbnRzPSI4MDguNSw1NjEuNzAzMSw4MTIuNSw1NzEuNzAzMSw4MTYuNSw1NjEuNzAzMSw4MTIuNSw1NjUuNzAzMSIgc3R5bGU9InN0cm9rZTojMTgxODE4O3N0cm9rZS13aWR0aDoxLjA7Ii8+PGxpbmUgc3R5bGU9InN0cm9rZTojMTgxODE4O3N0cm9rZS13aWR0aDoxLjA7IiB4MT0iNTQ5LjUiIHgyPSI0NTguNSIgeTE9IjQ3My4zMTI1IiB5Mj0iNDczLjMxMjUiLz48bGluZSBzdHlsZT0ic3Ryb2tlOiMxODE4MTg7c3Ryb2tlLXdpZHRoOjEuMDsiIHgxPSI0NTguNSIgeDI9IjQ1OC41IiB5MT0iNDczLjMxMjUiIHkyPSI1MTguODU5NCIvPjxwb2x5Z29uIGZpbGw9IiMxODE4MTgiIHBvaW50cz0iNDU0LjUsNTA4Ljg1OTQsNDU4LjUsNTE4Ljg1OTQsNDYyLjUsNTA4Ljg1OTQsNDU4LjUsNTEyLjg1OTQiIHN0eWxlPSJzdHJva2U6IzE4MTgxODtzdHJva2Utd2lkdGg6MS4wOyIvPjx0ZXh0IGZpbGw9IiMwMDAwMDAiIGZvbnQtZmFtaWx5PSJzYW5zLXNlcmlmIiBmb250LXNpemU9IjExIiBsZW5ndGhBZGp1c3Q9InNwYWNpbmciIHRleHRMZW5ndGg9IjQ0IiB4PSI0NTguNSIgeT0iNTAwLjU5NzciPiYjMjg4NTc7JiMyMDk4NzsmIzIwNDYyOyYjMjU5MTM7PC90ZXh0PjxsaW5lIHN0eWxlPSJzdHJva2U6IzE4MTgxODtzdHJva2Utd2lkdGg6MS4wOyIgeDE9IjcyNy41IiB4Mj0iODEyLjUiIHkxPSI0NzMuMzEyNSIgeTI9IjQ3My4zMTI1Ii8+PGxpbmUgc3R5bGU9InN0cm9rZTojMTgxODE4O3N0cm9rZS13aWR0aDoxLjA7IiB4MT0iODEyLjUiIHgyPSI4MTIuNSIgeTE9IjQ3My4zMTI1IiB5Mj0iNTE4Ljg1OTQiLz48cG9seWdvbiBmaWxsPSIjMTgxODE4IiBwb2ludHM9IjgwOC41LDUwOC44NTk0LDgxMi41LDUxOC44NTk0LDgxNi41LDUwOC44NTk0LDgxMi41LDUxMi44NTk0IiBzdHlsZT0ic3Ryb2tlOiMxODE4MTg7c3Ryb2tlLXdpZHRoOjEuMDsiLz48dGV4dCBmaWxsPSIjMDAwMDAwIiBmb250LWZhbWlseT0ic2Fucy1zZXJpZiIgZm9udC1zaXplPSIxMSIgbGVuZ3RoQWRqdXN0PSJzcGFjaW5nIiB0ZXh0TGVuZ3RoPSI0NCIgeD0iODEyLjUiIHk9IjUwMC41OTc3Ij4mIzI4ODU3OyYjMjA5ODc7JiMyMTQ2MjsmIzI4MDQwOzwvdGV4dD48bGluZSBzdHlsZT0ic3Ryb2tlOiMxODE4MTg7c3Ryb2tlLXdpZHRoOjEuMDsiIHgxPSI2MzguNSIgeDI9IjYzOC41IiB5MT0iNDg1LjMxMjUiIHkyPSI0OTYuNDk0OCIvPjxsaW5lIHN0eWxlPSJzdHJva2U6IzE4MTgxODtzdHJva2Utd2lkdGg6MS4wOyIgeDE9IjYzOC41IiB4Mj0iNjIzLjUiIHkxPSI0OTYuNDk0OCIgeTI9IjQ5Ni40OTQ4Ii8+PGxpbmUgc3R5bGU9InN0cm9rZTojMTgxODE4O3N0cm9rZS13aWR0aDoxLjA7IiB4MT0iNjIzLjUiIHgyPSI2MjMuNSIgeTE9IjQ5Ni40OTQ4IiB5Mj0iNTE4Ljg1OTQiLz48cG9seWdvbiBmaWxsPSIjMTgxODE4IiBwb2ludHM9IjYxOS41LDUwOC44NTk0LDYyMy41LDUxOC44NTk0LDYyNy41LDUwOC44NTk0LDYyMy41LDUxMi44NTk0IiBzdHlsZT0ic3Ryb2tlOiMxODE4MTg7c3Ryb2tlLXdpZHRoOjEuMDsiLz48dGV4dCBmaWxsPSIjMDAwMDAwIiBmb250LWZhbWlseT0ic2Fucy1zZXJpZiIgZm9udC1zaXplPSIxMSIgbGVuZ3RoQWRqdXN0PSJzcGFjaW5nIiB0ZXh0TGVuZ3RoPSI0NCIgeD0iNjIzLjUiIHk9IjUwMS41OTc3Ij4mIzI4ODU3OyYjMjA5ODc7JiMyMTAyNDsmIzM4NTAwOzwvdGV4dD48bGluZSBzdHlsZT0ic3Ryb2tlOiMxODE4MTg7c3Ryb2tlLXdpZHRoOjEuMDsiIHgxPSI2MzguNSIgeDI9IjYzOC41IiB5MT0iNDQxLjMxMjUiIHkyPSI0NjEuMzEyNSIvPjxwb2x5Z29uIGZpbGw9IiMxODE4MTgiIHBvaW50cz0iNjM0LjUsNDUxLjMxMjUsNjM4LjUsNDYxLjMxMjUsNjQyLjUsNDUxLjMxMjUsNjM4LjUsNDU1LjMxMjUiIHN0eWxlPSJzdHJva2U6IzE4MTgxODtzdHJva2Utd2lkdGg6MS4wOyIvPjxsaW5lIHN0eWxlPSJzdHJva2U6IzE4MTgxODtzdHJva2Utd2lkdGg6MS4wOyIgeDE9IjM4MSIgeDI9IjM4MSIgeTE9IjgzMy43ODEzIiB5Mj0iODUzLjc4MTMiLz48cG9seWdvbiBmaWxsPSIjMTgxODE4IiBwb2ludHM9IjM3Nyw4NDMuNzgxMywzODEsODUzLjc4MTMsMzg1LDg0My43ODEzLDM4MSw4NDcuNzgxMyIgc3R5bGU9InN0cm9rZTojMTgxODE4O3N0cm9rZS13aWR0aDoxLjA7Ii8+PGxpbmUgc3R5bGU9InN0cm9rZTojMTgxODE4O3N0cm9rZS13aWR0aDoxLjA7IiB4MT0iMzgxIiB4Mj0iMzgxIiB5MT0iODg2LjYyNSIgeTI9IjkwNi42MjUiLz48cG9seWdvbiBmaWxsPSIjMTgxODE4IiBwb2ludHM9IjM3Nyw4OTYuNjI1LDM4MSw5MDYuNjI1LDM4NSw4OTYuNjI1LDM4MSw5MDAuNjI1IiBzdHlsZT0ic3Ryb2tlOiMxODE4MTg7c3Ryb2tlLXdpZHRoOjEuMDsiLz48bGluZSBzdHlsZT0ic3Ryb2tlOiMxODE4MTg7c3Ryb2tlLXdpZHRoOjEuMDsiIHgxPSIzODEiIHgyPSIzODEiIHkxPSI5MzkuNDY4OCIgeTI9Ijk3My40MTAyIi8+PHBvbHlnb24gZmlsbD0iIzE4MTgxOCIgcG9pbnRzPSIzNzcsOTYzLjQxMDIsMzgxLDk3My40MTAyLDM4NSw5NjMuNDEwMiwzODEsOTY3LjQxMDIiIHN0eWxlPSJzdHJva2U6IzE4MTgxODtzdHJva2Utd2lkdGg6MS4wOyIvPjxsaW5lIHN0eWxlPSJzdHJva2U6IzE4MTgxODtzdHJva2Utd2lkdGg6MS4wOyIgeDE9IjY2OSIgeDI9IjY2OSIgeTE9IjgzMy43ODEzIiB5Mj0iODUzLjc4MTMiLz48cG9seWdvbiBmaWxsPSIjMTgxODE4IiBwb2ludHM9IjY2NSw4NDMuNzgxMyw2NjksODUzLjc4MTMsNjczLDg0My43ODEzLDY2OSw4NDcuNzgxMyIgc3R5bGU9InN0cm9rZTojMTgxODE4O3N0cm9rZS13aWR0aDoxLjA7Ii8+PGxpbmUgc3R5bGU9InN0cm9rZTojMTgxODE4O3N0cm9rZS13aWR0aDoxLjA7IiB4MT0iNTY1IiB4Mj0iNTY1IiB5MT0iMTAwNy45NTciIHkyPSIxMDI3Ljk1NyIvPjxwb2x5Z29uIGZpbGw9IiMxODE4MTgiIHBvaW50cz0iNTYxLDEwMTcuOTU3LDU2NSwxMDI3Ljk1Nyw1NjksMTAxNy45NTcsNTY1LDEwMjEuOTU3IiBzdHlsZT0ic3Ryb2tlOiMxODE4MTg7c3Ryb2tlLXdpZHRoOjEuMDsiLz48bGluZSBzdHlsZT0ic3Ryb2tlOiMxODE4MTg7c3Ryb2tlLXdpZHRoOjEuMDsiIHgxPSI3MTgiIHgyPSI3MTgiIHkxPSIxMDk0LjgwMDgiIHkyPSIxMTE0LjgwMDgiLz48cG9seWdvbiBmaWxsPSIjMTgxODE4IiBwb2ludHM9IjcxNCwxMTA0LjgwMDgsNzE4LDExMTQuODAwOCw3MjIsMTEwNC44MDA4LDcxOCwxMTA4LjgwMDgiIHN0eWxlPSJzdHJva2U6IzE4MTgxODtzdHJva2Utd2lkdGg6MS4wOyIvPjxsaW5lIHN0eWxlPSJzdHJva2U6IzE4MTgxODtzdHJva2Utd2lkdGg6MS4wOyIgeDE9IjgyOCIgeDI9IjgyOCIgeTE9IjEwOTQuODAwOCIgeTI9IjExMTQuODAwOCIvPjxwb2x5Z29uIGZpbGw9IiMxODE4MTgiIHBvaW50cz0iODI0LDExMDQuODAwOCw4MjgsMTExNC44MDA4LDgzMiwxMTA0LjgwMDgsODI4LDExMDguODAwOCIgc3R5bGU9InN0cm9rZTojMTgxODE4O3N0cm9rZS13aWR0aDoxLjA7Ii8+PGxpbmUgc3R5bGU9InN0cm9rZTojMTgxODE4O3N0cm9rZS13aWR0aDoxLjA7IiB4MT0iNzI4IiB4Mj0iNzE4IiB5MT0iMTAzOS45NTciIHkyPSIxMDM5Ljk1NyIvPjxsaW5lIHN0eWxlPSJzdHJva2U6IzE4MTgxODtzdHJva2Utd2lkdGg6MS4wOyIgeDE9IjcxOCIgeDI9IjcxOCIgeTE9IjEwMzkuOTU3IiB5Mj0iMTA2MS45NTciLz48cG9seWdvbiBmaWxsPSIjMTgxODE4IiBwb2ludHM9IjcxNCwxMDUxLjk1Nyw3MTgsMTA2MS45NTcsNzIyLDEwNTEuOTU3LDcxOCwxMDU1Ljk1NyIgc3R5bGU9InN0cm9rZTojMTgxODE4O3N0cm9rZS13aWR0aDoxLjA7Ii8+PGxpbmUgc3R5bGU9InN0cm9rZTojMTgxODE4O3N0cm9rZS13aWR0aDoxLjA7IiB4MT0iODE4IiB4Mj0iODI4IiB5MT0iMTAzOS45NTciIHkyPSIxMDM5Ljk1NyIvPjxsaW5lIHN0eWxlPSJzdHJva2U6IzE4MTgxODtzdHJva2Utd2lkdGg6MS4wOyIgeDE9IjgyOCIgeDI9IjgyOCIgeTE9IjEwMzkuOTU3IiB5Mj0iMTA2MS45NTciLz48cG9seWdvbiBmaWxsPSIjMTgxODE4IiBwb2ludHM9IjgyNCwxMDUxLjk1Nyw4MjgsMTA2MS45NTcsODMyLDEwNTEuOTU3LDgyOCwxMDU1Ljk1NyIgc3R5bGU9InN0cm9rZTojMTgxODE4O3N0cm9rZS13aWR0aDoxLjA7Ii8+PGxpbmUgc3R5bGU9InN0cm9rZTojMTgxODE4O3N0cm9rZS13aWR0aDoxLjA7IiB4MT0iNzczIiB4Mj0iNzczIiB5MT0iMTAwNy45NTciIHkyPSIxMDI3Ljk1NyIvPjxwb2x5Z29uIGZpbGw9IiMxODE4MTgiIHBvaW50cz0iNzY5LDEwMTcuOTU3LDc3MywxMDI3Ljk1Nyw3NzcsMTAxNy45NTcsNzczLDEwMjEuOTU3IiBzdHlsZT0ic3Ryb2tlOiMxODE4MTg7c3Ryb2tlLXdpZHRoOjEuMDsiLz48bGluZSBzdHlsZT0ic3Ryb2tlOiMxODE4MTg7c3Ryb2tlLXdpZHRoOjEuMDsiIHgxPSI1ODAiIHgyPSI1NjUiIHkxPSI5MTguNjI1IiB5Mj0iOTE4LjYyNSIvPjxsaW5lIHN0eWxlPSJzdHJva2U6IzE4MTgxODtzdHJva2Utd2lkdGg6MS4wOyIgeDE9IjU2NSIgeDI9IjU2NSIgeTE9IjkxOC42MjUiIHkyPSI5NzUuMTEzMyIvPjxwb2x5Z29uIGZpbGw9IiMxODE4MTgiIHBvaW50cz0iNTYxLDk2NS4xMTMzLDU2NSw5NzUuMTEzMyw1NjksOTY1LjExMzMsNTY1LDk2OS4xMTMzIiBzdHlsZT0ic3Ryb2tlOiMxODE4MTg7c3Ryb2tlLXdpZHRoOjEuMDsiLz48dGV4dCBmaWxsPSIjMDAwMDAwIiBmb250LWZhbWlseT0ic2Fucy1zZXJpZiIgZm9udC1zaXplPSIxMSIgbGVuZ3RoQWRqdXN0PSJzcGFjaW5nIiB0ZXh0TGVuZ3RoPSI0NCIgeD0iNTY1IiB5PSI5NTEuOTEwMiI+JiMyODg1NzsmIzIwOTg3OyYjMjA0NjI7JiMyNTkxMzs8L3RleHQ+PGxpbmUgc3R5bGU9InN0cm9rZTojMTgxODE4O3N0cm9rZS13aWR0aDoxLjA7IiB4MT0iNzU4IiB4Mj0iNzczIiB5MT0iOTE4LjYyNSIgeTI9IjkxOC42MjUiLz48bGluZSBzdHlsZT0ic3Ryb2tlOiMxODE4MTg7c3Ryb2tlLXdpZHRoOjEuMDsiIHgxPSI3NzMiIHgyPSI3NzMiIHkxPSI5MTguNjI1IiB5Mj0iOTc1LjExMzMiLz48cG9seWdvbiBmaWxsPSIjMTgxODE4IiBwb2ludHM9Ijc2OSw5NjUuMTEzMyw3NzMsOTc1LjExMzMsNzc3LDk2NS4xMTMzLDc3Myw5NjkuMTEzMyIgc3R5bGU9InN0cm9rZTojMTgxODE4O3N0cm9rZS13aWR0aDoxLjA7Ii8+PHRleHQgZmlsbD0iIzAwMDAwMCIgZm9udC1mYW1pbHk9InNhbnMtc2VyaWYiIGZvbnQtc2l6ZT0iMTEiIGxlbmd0aEFkanVzdD0ic3BhY2luZyIgdGV4dExlbmd0aD0iNDQiIHg9Ijc3MyIgeT0iOTUxLjkxMDIiPiYjMjg4NTc7JiMyMDk4NzsmIzIxMDI0OyYjMzg1MDA7PC90ZXh0PjxsaW5lIHN0eWxlPSJzdHJva2U6IzE4MTgxODtzdHJva2Utd2lkdGg6MS4wOyIgeDE9IjY2OSIgeDI9IjY2OSIgeTE9Ijg4Ni42MjUiIHkyPSI5MDYuNjI1Ii8+PHBvbHlnb24gZmlsbD0iIzE4MTgxOCIgcG9pbnRzPSI2NjUsODk2LjYyNSw2NjksOTA2LjYyNSw2NzMsODk2LjYyNSw2NjksOTAwLjYyNSIgc3R5bGU9InN0cm9rZTojMTgxODE4O3N0cm9rZS13aWR0aDoxLjA7Ii8+PGxpbmUgc3R5bGU9InN0cm9rZTojMTgxODE4O3N0cm9rZS13aWR0aDoxLjA7IiB4MT0iOTYyIiB4Mj0iOTYyIiB5MT0iODMzLjc4MTMiIHkyPSI4NTMuNzgxMyIvPjxwb2x5Z29uIGZpbGw9IiMxODE4MTgiIHBvaW50cz0iOTU4LDg0My43ODEzLDk2Miw4NTMuNzgxMyw5NjYsODQzLjc4MTMsOTYyLDg0Ny43ODEzIiBzdHlsZT0ic3Ryb2tlOiMxODE4MTg7c3Ryb2tlLXdpZHRoOjEuMDsiLz48bGluZSBzdHlsZT0ic3Ryb2tlOiMxODE4MTg7c3Ryb2tlLXdpZHRoOjEuMDsiIHgxPSI2MDQuNSIgeDI9IjM4MSIgeTE9Ijc1NS4zOTA2IiB5Mj0iNzU1LjM5MDYiLz48bGluZSBzdHlsZT0ic3Ryb2tlOiMxODE4MTg7c3Ryb2tlLXdpZHRoOjEuMDsiIHgxPSIzODEiIHgyPSIzODEiIHkxPSI3NTUuMzkwNiIgeTI9IjgwMC45Mzc1Ii8+PHBvbHlnb24gZmlsbD0iIzE4MTgxOCIgcG9pbnRzPSIzNzcsNzkwLjkzNzUsMzgxLDgwMC45Mzc1LDM4NSw3OTAuOTM3NSwzODEsNzk0LjkzNzUiIHN0eWxlPSJzdHJva2U6IzE4MTgxODtzdHJva2Utd2lkdGg6MS4wOyIvPjx0ZXh0IGZpbGw9IiMwMDAwMDAiIGZvbnQtZmFtaWx5PSJzYW5zLXNlcmlmIiBmb250LXNpemU9IjExIiBsZW5ndGhBZGp1c3Q9InNwYWNpbmciIHRleHRMZW5ndGg9IjY2IiB4PSIzODEiIHk9Ijc4Mi42NzU4Ij4mIzI4ODU3OyYjMjA5ODc7JiMzMzc1NjsmIzIxNjk3OyYjMjYwMzI7JiMyMjY4Njs8L3RleHQ+PGxpbmUgc3R5bGU9InN0cm9rZTojMTgxODE4O3N0cm9rZS13aWR0aDoxLjA7IiB4MT0iNjcyLjUiIHgyPSI5NjIiIHkxPSI3NTUuMzkwNiIgeTI9Ijc1NS4zOTA2Ii8+PGxpbmUgc3R5bGU9InN0cm9rZTojMTgxODE4O3N0cm9rZS13aWR0aDoxLjA7IiB4MT0iOTYyIiB4Mj0iOTYyIiB5MT0iNzU1LjM5MDYiIHkyPSI4MDAuOTM3NSIvPjxwb2x5Z29uIGZpbGw9IiMxODE4MTgiIHBvaW50cz0iOTU4LDc5MC45Mzc1LDk2Miw4MDAuOTM3NSw5NjYsNzkwLjkzNzUsOTYyLDc5NC45Mzc1IiBzdHlsZT0ic3Ryb2tlOiMxODE4MTg7c3Ryb2tlLXdpZHRoOjEuMDsiLz48dGV4dCBmaWxsPSIjMDAwMDAwIiBmb250LWZhbWlseT0ic2Fucy1zZXJpZiIgZm9udC1zaXplPSIxMSIgbGVuZ3RoQWRqdXN0PSJzcGFjaW5nIiB0ZXh0TGVuZ3RoPSI0NCIgeD0iOTYyIiB5PSI3ODIuNjc1OCI+JiMyODg1NzsmIzIwOTg3OyYjMjE0NjI7JiMyODA0MDs8L3RleHQ+PGxpbmUgc3R5bGU9InN0cm9rZTojMTgxODE4O3N0cm9rZS13aWR0aDoxLjA7IiB4MT0iNjM4LjUiIHgyPSI2MzguNSIgeTE9Ijc2Ny4zOTA2IiB5Mj0iNzc4LjU3MjkiLz48bGluZSBzdHlsZT0ic3Ryb2tlOiMxODE4MTg7c3Ryb2tlLXdpZHRoOjEuMDsiIHgxPSI2MzguNSIgeDI9IjY2OSIgeTE9Ijc3OC41NzI5IiB5Mj0iNzc4LjU3MjkiLz48bGluZSBzdHlsZT0ic3Ryb2tlOiMxODE4MTg7c3Ryb2tlLXdpZHRoOjEuMDsiIHgxPSI2NjkiIHgyPSI2NjkiIHkxPSI3NzguNTcyOSIgeTI9IjgwMC45Mzc1Ii8+PHBvbHlnb24gZmlsbD0iIzE4MTgxOCIgcG9pbnRzPSI2NjUsNzkwLjkzNzUsNjY5LDgwMC45Mzc1LDY3Myw3OTAuOTM3NSw2NjksNzk0LjkzNzUiIHN0eWxlPSJzdHJva2U6IzE4MTgxODtzdHJva2Utd2lkdGg6MS4wOyIvPjx0ZXh0IGZpbGw9IiMwMDAwMDAiIGZvbnQtZmFtaWx5PSJzYW5zLXNlcmlmIiBmb250LXNpemU9IjExIiBsZW5ndGhBZGp1c3Q9InNwYWNpbmciIHRleHRMZW5ndGg9IjY2IiB4PSI2MzguNSIgeT0iNzgzLjY3NTgiPiYjMjg4NTc7JiMyMDk4NzsmIzMzNzU2OyYjMjE2OTc7JiMyNjU5NzsmIzM1ODEwOzwvdGV4dD48bGluZSBzdHlsZT0ic3Ryb2tlOiMxODE4MTg7c3Ryb2tlLXdpZHRoOjEuMDsiIHgxPSI2MzguNSIgeDI9IjYzOC41IiB5MT0iNzIzLjM5MDYiIHkyPSI3NDMuMzkwNiIvPjxwb2x5Z29uIGZpbGw9IiMxODE4MTgiIHBvaW50cz0iNjM0LjUsNzMzLjM5MDYsNjM4LjUsNzQzLjM5MDYsNjQyLjUsNzMzLjM5MDYsNjM4LjUsNzM3LjM5MDYiIHN0eWxlPSJzdHJva2U6IzE4MTgxODtzdHJva2Utd2lkdGg6MS4wOyIvPjxsaW5lIHN0eWxlPSJzdHJva2U6IzE4MTgxODtzdHJva2Utd2lkdGg6MS4wOyIgeDE9IjQ2OC41IiB4Mj0iNDY4LjUiIHkxPSIxMjkwLjAzNTIiIHkyPSIxMzEwLjAzNTIiLz48cG9seWdvbiBmaWxsPSIjMTgxODE4IiBwb2ludHM9IjQ2NC41LDEzMDAuMDM1Miw0NjguNSwxMzEwLjAzNTIsNDcyLjUsMTMwMC4wMzUyLDQ2OC41LDEzMDQuMDM1MiIgc3R5bGU9InN0cm9rZTojMTgxODE4O3N0cm9rZS13aWR0aDoxLjA7Ii8+PGxpbmUgc3R5bGU9InN0cm9rZTojMTgxODE4O3N0cm9rZS13aWR0aDoxLjA7IiB4MT0iNDY4LjUiIHgyPSI0NjguNSIgeTE9IjEzNDIuODc4OSIgeTI9IjEzNzYuODIwMyIvPjxwb2x5Z29uIGZpbGw9IiMxODE4MTgiIHBvaW50cz0iNDY0LjUsMTM2Ni44MjAzLDQ2OC41LDEzNzYuODIwMyw0NzIuNSwxMzY2LjgyMDMsNDY4LjUsMTM3MC44MjAzIiBzdHlsZT0ic3Ryb2tlOiMxODE4MTg7c3Ryb2tlLXdpZHRoOjEuMDsiLz48bGluZSBzdHlsZT0ic3Ryb2tlOiMxODE4MTg7c3Ryb2tlLXdpZHRoOjEuMDsiIHgxPSI0NjguNSIgeDI9IjQ2OC41IiB5MT0iMTQwOS42NjQxIiB5Mj0iMTQzMS4zNjcyIi8+PHBvbHlnb24gZmlsbD0iIzE4MTgxOCIgcG9pbnRzPSI0NjQuNSwxNDIxLjM2NzIsNDY4LjUsMTQzMS4zNjcyLDQ3Mi41LDE0MjEuMzY3Miw0NjguNSwxNDI1LjM2NzIiIHN0eWxlPSJzdHJva2U6IzE4MTgxODtzdHJva2Utd2lkdGg6MS4wOyIvPjxsaW5lIHN0eWxlPSJzdHJva2U6IzE4MTgxODtzdHJva2Utd2lkdGg6MS4wOyIgeDE9IjY1Mi41IiB4Mj0iNjUyLjUiIHkxPSIxNDExLjM2NzIiIHkyPSIxNDMzLjA3MDMiLz48cG9seWdvbiBmaWxsPSIjMTgxODE4IiBwb2ludHM9IjY0OC41LDE0MjMuMDcwMyw2NTIuNSwxNDMzLjA3MDMsNjU2LjUsMTQyMy4wNzAzLDY1Mi41LDE0MjcuMDcwMyIgc3R5bGU9InN0cm9rZTojMTgxODE4O3N0cm9rZS13aWR0aDoxLjA7Ii8+PGxpbmUgc3R5bGU9InN0cm9rZTojMTgxODE4O3N0cm9rZS13aWR0aDoxLjA7IiB4MT0iODM4LjUiIHgyPSI4MzguNSIgeTE9IjE0MTEuMzY3MiIgeTI9IjE0MzMuMDcwMyIvPjxwb2x5Z29uIGZpbGw9IiMxODE4MTgiIHBvaW50cz0iODM0LjUsMTQyMy4wNzAzLDgzOC41LDE0MzMuMDcwMyw4NDIuNSwxNDIzLjA3MDMsODM4LjUsMTQyNy4wNzAzIiBzdHlsZT0ic3Ryb2tlOiMxODE4MTg7c3Ryb2tlLXdpZHRoOjEuMDsiLz48bGluZSBzdHlsZT0ic3Ryb2tlOiMxODE4MTg7c3Ryb2tlLXdpZHRoOjEuMDsiIHgxPSI2NjcuNSIgeDI9IjY1Mi41IiB5MT0iMTMyMi4wMzUyIiB5Mj0iMTMyMi4wMzUyIi8+PGxpbmUgc3R5bGU9InN0cm9rZTojMTgxODE4O3N0cm9rZS13aWR0aDoxLjA7IiB4MT0iNjUyLjUiIHgyPSI2NTIuNSIgeTE9IjEzMjIuMDM1MiIgeTI9IjEzNzguNTIzNCIvPjxwb2x5Z29uIGZpbGw9IiMxODE4MTgiIHBvaW50cz0iNjQ4LjUsMTM2OC41MjM0LDY1Mi41LDEzNzguNTIzNCw2NTYuNSwxMzY4LjUyMzQsNjUyLjUsMTM3Mi41MjM0IiBzdHlsZT0ic3Ryb2tlOiMxODE4MTg7c3Ryb2tlLXdpZHRoOjEuMDsiLz48dGV4dCBmaWxsPSIjMDAwMDAwIiBmb250LWZhbWlseT0ic2Fucy1zZXJpZiIgZm9udC1zaXplPSIxMSIgbGVuZ3RoQWRqdXN0PSJzcGFjaW5nIiB0ZXh0TGVuZ3RoPSI0NCIgeD0iNjUyLjUiIHk9IjEzNTUuMzIwMyI+JiMyODg1NzsmIzIwOTg3OyYjMjY1OTc7JiMzNTgxMDs8L3RleHQ+PGxpbmUgc3R5bGU9InN0cm9rZTojMTgxODE4O3N0cm9rZS13aWR0aDoxLjA7IiB4MT0iODIzLjUiIHgyPSI4MzguNSIgeTE9IjEzMjIuMDM1MiIgeTI9IjEzMjIuMDM1MiIvPjxsaW5lIHN0eWxlPSJzdHJva2U6IzE4MTgxODtzdHJva2Utd2lkdGg6MS4wOyIgeDE9IjgzOC41IiB4Mj0iODM4LjUiIHkxPSIxMzIyLjAzNTIiIHkyPSIxMzc4LjUyMzQiLz48cG9seWdvbiBmaWxsPSIjMTgxODE4IiBwb2ludHM9IjgzNC41LDEzNjguNTIzNCw4MzguNSwxMzc4LjUyMzQsODQyLjUsMTM2OC41MjM0LDgzOC41LDEzNzIuNTIzNCIgc3R5bGU9InN0cm9rZTojMTgxODE4O3N0cm9rZS13aWR0aDoxLjA7Ii8+PHRleHQgZmlsbD0iIzAwMDAwMCIgZm9udC1mYW1pbHk9InNhbnMtc2VyaWYiIGZvbnQtc2l6ZT0iMTEiIGxlbmd0aEFkanVzdD0ic3BhY2luZyIgdGV4dExlbmd0aD0iNDQiIHg9IjgzOC41IiB5PSIxMzU1LjMyMDMiPiYjMjg4NTc7JiMyMDk4NzsmIzIxNDYyOyYjMjgwNDA7PC90ZXh0PjxsaW5lIHN0eWxlPSJzdHJva2U6IzE4MTgxODtzdHJva2Utd2lkdGg6MS4wOyIgeDE9Ijc0NS41IiB4Mj0iNzQ1LjUiIHkxPSIxMjkwLjAzNTIiIHkyPSIxMzEwLjAzNTIiLz48cG9seWdvbiBmaWxsPSIjMTgxODE4IiBwb2ludHM9Ijc0MS41LDEzMDAuMDM1Miw3NDUuNSwxMzEwLjAzNTIsNzQ5LjUsMTMwMC4wMzUyLDc0NS41LDEzMDQuMDM1MiIgc3R5bGU9InN0cm9rZTojMTgxODE4O3N0cm9rZS13aWR0aDoxLjA7Ii8+PGxpbmUgc3R5bGU9InN0cm9rZTojMTgxODE4O3N0cm9rZS13aWR0aDoxLjA7IiB4MT0iNjA0LjUiIHgyPSI0NjguNSIgeTE9IjEyMTEuNjQ0NSIgeTI9IjEyMTEuNjQ0NSIvPjxsaW5lIHN0eWxlPSJzdHJva2U6IzE4MTgxODtzdHJva2Utd2lkdGg6MS4wOyIgeDE9IjQ2OC41IiB4Mj0iNDY4LjUiIHkxPSIxMjExLjY0NDUiIHkyPSIxMjU3LjE5MTQiLz48cG9seWdvbiBmaWxsPSIjMTgxODE4IiBwb2ludHM9IjQ2NC41LDEyNDcuMTkxNCw0NjguNSwxMjU3LjE5MTQsNDcyLjUsMTI0Ny4xOTE0LDQ2OC41LDEyNTEuMTkxNCIgc3R5bGU9InN0cm9rZTojMTgxODE4O3N0cm9rZS13aWR0aDoxLjA7Ii8+PHRleHQgZmlsbD0iIzAwMDAwMCIgZm9udC1mYW1pbHk9InNhbnMtc2VyaWYiIGZvbnQtc2l6ZT0iMTEiIGxlbmd0aEFkanVzdD0ic3BhY2luZyIgdGV4dExlbmd0aD0iNjYiIHg9IjQ2OC41IiB5PSIxMjM4LjkyOTciPiYjMjg4NTc7JiMyMDk4NzsmIzMzNzU2OyYjMjEzMzM7JiMyNjAzMjsmIzIyNjg2OzwvdGV4dD48bGluZSBzdHlsZT0ic3Ryb2tlOiMxODE4MTg7c3Ryb2tlLXdpZHRoOjEuMDsiIHgxPSI2NzIuNSIgeDI9Ijc0NS41IiB5MT0iMTIxMS42NDQ1IiB5Mj0iMTIxMS42NDQ1Ii8+PGxpbmUgc3R5bGU9InN0cm9rZTojMTgxODE4O3N0cm9rZS13aWR0aDoxLjA7IiB4MT0iNzQ1LjUiIHgyPSI3NDUuNSIgeTE9IjEyMTEuNjQ0NSIgeTI9IjEyNTcuMTkxNCIvPjxwb2x5Z29uIGZpbGw9IiMxODE4MTgiIHBvaW50cz0iNzQxLjUsMTI0Ny4xOTE0LDc0NS41LDEyNTcuMTkxNCw3NDkuNSwxMjQ3LjE5MTQsNzQ1LjUsMTI1MS4xOTE0IiBzdHlsZT0ic3Ryb2tlOiMxODE4MTg7c3Ryb2tlLXdpZHRoOjEuMDsiLz48dGV4dCBmaWxsPSIjMDAwMDAwIiBmb250LWZhbWlseT0ic2Fucy1zZXJpZiIgZm9udC1zaXplPSIxMSIgbGVuZ3RoQWRqdXN0PSJzcGFjaW5nIiB0ZXh0TGVuZ3RoPSI2NiIgeD0iNzQ1LjUiIHk9IjEyMzguOTI5NyI+JiMyODg1NzsmIzIwOTg3OyYjMzM3NTY7JiMyMTMzMzsmIzI2NTk3OyYjMzU4MTA7PC90ZXh0PjxsaW5lIHN0eWxlPSJzdHJva2U6IzE4MTgxODtzdHJva2Utd2lkdGg6MS4wOyIgeDE9IjYzOC41IiB4Mj0iNjM4LjUiIHkxPSIxMTc5LjY0NDUiIHkyPSIxMTk5LjY0NDUiLz48cG9seWdvbiBmaWxsPSIjMTgxODE4IiBwb2ludHM9IjYzNC41LDExODkuNjQ0NSw2MzguNSwxMTk5LjY0NDUsNjQyLjUsMTE4OS42NDQ1LDYzOC41LDExOTMuNjQ0NSIgc3R5bGU9InN0cm9rZTojMTgxODE4O3N0cm9rZS13aWR0aDoxLjA7Ii8+PGxpbmUgc3R5bGU9InN0cm9rZTojMTgxODE4O3N0cm9rZS13aWR0aDoxLjA7IiB4MT0iMzM5IiB4Mj0iMzM5IiB5MT0iMTcxOC42OTUzIiB5Mj0iMTc0OC45OTIyIi8+PHBvbHlnb24gZmlsbD0iIzE4MTgxOCIgcG9pbnRzPSIzMzUsMTczOC45OTIyLDMzOSwxNzQ4Ljk5MjIsMzQzLDE3MzguOTkyMiwzMzksMTc0Mi45OTIyIiBzdHlsZT0ic3Ryb2tlOiMxODE4MTg7c3Ryb2tlLXdpZHRoOjEuMDsiLz48bGluZSBzdHlsZT0ic3Ryb2tlOiMxODE4MTg7c3Ryb2tlLXdpZHRoOjEuMDsiIHgxPSIzMzkiIHgyPSIzMzkiIHkxPSIxNzgxLjgzNTkiIHkyPSIxODE2LjgzNTkiLz48cG9seWdvbiBmaWxsPSIjMTgxODE4IiBwb2ludHM9IjMzNSwxODA2LjgzNTksMzM5LDE4MTYuODM1OSwzNDMsMTgwNi44MzU5LDMzOSwxODEwLjgzNTkiIHN0eWxlPSJzdHJva2U6IzE4MTgxODtzdHJva2Utd2lkdGg6MS4wOyIvPjxsaW5lIHN0eWxlPSJzdHJva2U6IzE4MTgxODtzdHJva2Utd2lkdGg6MS4wOyIgeDE9IjQ5MyIgeDI9IjQ5MyIgeTE9IjE3MTguNjk1MyIgeTI9IjE3NDguOTkyMiIvPjxwb2x5Z29uIGZpbGw9IiMxODE4MTgiIHBvaW50cz0iNDg5LDE3MzguOTkyMiw0OTMsMTc0OC45OTIyLDQ5NywxNzM4Ljk5MjIsNDkzLDE3NDIuOTkyMiIgc3R5bGU9InN0cm9rZTojMTgxODE4O3N0cm9rZS13aWR0aDoxLjA7Ii8+PGxpbmUgc3R5bGU9InN0cm9rZTojMTgxODE4O3N0cm9rZS13aWR0aDoxLjA7IiB4MT0iMzU2IiB4Mj0iMzM5IiB5MT0iMTY0MC4zMDQ3IiB5Mj0iMTY0MC4zMDQ3Ii8+PGxpbmUgc3R5bGU9InN0cm9rZTojMTgxODE4O3N0cm9rZS13aWR0aDoxLjA7IiB4MT0iMzM5IiB4Mj0iMzM5IiB5MT0iMTY0MC4zMDQ3IiB5Mj0iMTY4NS44NTE2Ii8+PHBvbHlnb24gZmlsbD0iIzE4MTgxOCIgcG9pbnRzPSIzMzUsMTY3NS44NTE2LDMzOSwxNjg1Ljg1MTYsMzQzLDE2NzUuODUxNiwzMzksMTY3OS44NTE2IiBzdHlsZT0ic3Ryb2tlOiMxODE4MTg7c3Ryb2tlLXdpZHRoOjEuMDsiLz48dGV4dCBmaWxsPSIjMDAwMDAwIiBmb250LWZhbWlseT0ic2Fucy1zZXJpZiIgZm9udC1zaXplPSIxMSIgbGVuZ3RoQWRqdXN0PSJzcGFjaW5nIiB0ZXh0TGVuZ3RoPSI0NCIgeD0iMzM5IiB5PSIxNjY3LjU4OTgiPiYjMjg4NTc7JiMyMDk4NzsmIzI1NTUyOyYjMjAxMzI7PC90ZXh0PjxsaW5lIHN0eWxlPSJzdHJva2U6IzE4MTgxODtzdHJva2Utd2lkdGg6MS4wOyIgeDE9IjQ0NiIgeDI9IjQ5MyIgeTE9IjE2NDAuMzA0NyIgeTI9IjE2NDAuMzA0NyIvPjxsaW5lIHN0eWxlPSJzdHJva2U6IzE4MTgxODtzdHJva2Utd2lkdGg6MS4wOyIgeDE9IjQ5MyIgeDI9IjQ5MyIgeTE9IjE2NDAuMzA0NyIgeTI9IjE2ODUuODUxNiIvPjxwb2x5Z29uIGZpbGw9IiMxODE4MTgiIHBvaW50cz0iNDg5LDE2NzUuODUxNiw0OTMsMTY4NS44NTE2LDQ5NywxNjc1Ljg1MTYsNDkzLDE2NzkuODUxNiIgc3R5bGU9InN0cm9rZTojMTgxODE4O3N0cm9rZS13aWR0aDoxLjA7Ii8+PHRleHQgZmlsbD0iIzAwMDAwMCIgZm9udC1mYW1pbHk9InNhbnMtc2VyaWYiIGZvbnQtc2l6ZT0iMTEiIGxlbmd0aEFkanVzdD0ic3BhY2luZyIgdGV4dExlbmd0aD0iNDQiIHg9IjQ5MyIgeT0iMTY2Ny41ODk4Ij4mIzI4ODU3OyYjMjA5ODc7JiMyMTQ2MjsmIzI4MDQwOzwvdGV4dD48bGluZSBzdHlsZT0ic3Ryb2tlOiMxODE4MTg7c3Ryb2tlLXdpZHRoOjEuMDsiIHgxPSI0MDEiIHgyPSI0MDEiIHkxPSIxNjA4LjMwNDciIHkyPSIxNjI4LjMwNDciLz48cG9seWdvbiBmaWxsPSIjMTgxODE4IiBwb2ludHM9IjM5NywxNjE4LjMwNDcsNDAxLDE2MjguMzA0Nyw0MDUsMTYxOC4zMDQ3LDQwMSwxNjIyLjMwNDciIHN0eWxlPSJzdHJva2U6IzE4MTgxODtzdHJva2Utd2lkdGg6MS4wOyIvPjxsaW5lIHN0eWxlPSJzdHJva2U6IzE4MTgxODtzdHJva2Utd2lkdGg6MS4wOyIgeDE9Ijc5Mi41IiB4Mj0iNzkyLjUiIHkxPSIxNjA4LjMwNDciIHkyPSIxNjI4LjMwNDciLz48cG9seWdvbiBmaWxsPSIjMTgxODE4IiBwb2ludHM9Ijc4OC41LDE2MTguMzA0Nyw3OTIuNSwxNjI4LjMwNDcsNzk2LjUsMTYxOC4zMDQ3LDc5Mi41LDE2MjIuMzA0NyIgc3R5bGU9InN0cm9rZTojMTgxODE4O3N0cm9rZS13aWR0aDoxLjA7Ii8+PGxpbmUgc3R5bGU9InN0cm9rZTojMTgxODE4O3N0cm9rZS13aWR0aDoxLjA7IiB4MT0iNzkyLjUiIHgyPSI3OTIuNSIgeTE9IjE2NjEuMTQ4NCIgeTI9IjE2OTYuMTQ4NCIvPjxwb2x5Z29uIGZpbGw9IiMxODE4MTgiIHBvaW50cz0iNzg4LjUsMTY4Ni4xNDg0LDc5Mi41LDE2OTYuMTQ4NCw3OTYuNSwxNjg2LjE0ODQsNzkyLjUsMTY5MC4xNDg0IiBzdHlsZT0ic3Ryb2tlOiMxODE4MTg7c3Ryb2tlLXdpZHRoOjEuMDsiLz48bGluZSBzdHlsZT0ic3Ryb2tlOiMxODE4MTg7c3Ryb2tlLXdpZHRoOjEuMDsiIHgxPSI2MzUiIHgyPSI2MzUiIHkxPSIxODQ5LjY3OTciIHkyPSIxODY5LjY3OTciLz48cG9seWdvbiBmaWxsPSIjMTgxODE4IiBwb2ludHM9IjYzMSwxODU5LjY3OTcsNjM1LDE4NjkuNjc5Nyw2MzksMTg1OS42Nzk3LDYzNSwxODYzLjY3OTciIHN0eWxlPSJzdHJva2U6IzE4MTgxODtzdHJva2Utd2lkdGg6MS4wOyIvPjxsaW5lIHN0eWxlPSJzdHJva2U6IzE4MTgxODtzdHJva2Utd2lkdGg6MS4wOyIgeDE9Ijc2NSIgeDI9Ijc2NSIgeTE9IjE4NDkuNjc5NyIgeTI9IjE4NjkuNjc5NyIvPjxwb2x5Z29uIGZpbGw9IiMxODE4MTgiIHBvaW50cz0iNzYxLDE4NTkuNjc5Nyw3NjUsMTg2OS42Nzk3LDc2OSwxODU5LjY3OTcsNzY1LDE4NjMuNjc5NyIgc3R5bGU9InN0cm9rZTojMTgxODE4O3N0cm9rZS13aWR0aDoxLjA7Ii8+PGxpbmUgc3R5bGU9InN0cm9rZTojMTgxODE4O3N0cm9rZS13aWR0aDoxLjA7IiB4MT0iOTMyIiB4Mj0iOTMyIiB5MT0iMTg0OS42Nzk3IiB5Mj0iMTg2OS42Nzk3Ii8+PHBvbHlnb24gZmlsbD0iIzE4MTgxOCIgcG9pbnRzPSI5MjgsMTg1OS42Nzk3LDkzMiwxODY5LjY3OTcsOTM2LDE4NTkuNjc5Nyw5MzIsMTg2My42Nzk3IiBzdHlsZT0ic3Ryb2tlOiMxODE4MTg7c3Ryb2tlLXdpZHRoOjEuMDsiLz48bGluZSBzdHlsZT0ic3Ryb2tlOiMxODE4MTg7c3Ryb2tlLXdpZHRoOjEuMDsiIHgxPSI3MTQuNSIgeDI9IjYzNSIgeTE9IjE3NzEuMjg5MSIgeTI9IjE3NzEuMjg5MSIvPjxsaW5lIHN0eWxlPSJzdHJva2U6IzE4MTgxODtzdHJva2Utd2lkdGg6MS4wOyIgeDE9IjYzNSIgeDI9IjYzNSIgeTE9IjE3NzEuMjg5MSIgeTI9IjE4MTYuODM1OSIvPjxwb2x5Z29uIGZpbGw9IiMxODE4MTgiIHBvaW50cz0iNjMxLDE4MDYuODM1OSw2MzUsMTgxNi44MzU5LDYzOSwxODA2LjgzNTksNjM1LDE4MTAuODM1OSIgc3R5bGU9InN0cm9rZTojMTgxODE4O3N0cm9rZS13aWR0aDoxLjA7Ii8+PHRleHQgZmlsbD0iIzAwMDAwMCIgZm9udC1mYW1pbHk9InNhbnMtc2VyaWYiIGZvbnQtc2l6ZT0iMTEiIGxlbmd0aEFkanVzdD0ic3BhY2luZyIgdGV4dExlbmd0aD0iNDQiIHg9IjYzNSIgeT0iMTc5OC41NzQyIj4mIzI4ODU3OyYjMjA5ODc7JiMyNTE3MTsmIzIxMzMzOzwvdGV4dD48bGluZSBzdHlsZT0ic3Ryb2tlOiMxODE4MTg7c3Ryb2tlLXdpZHRoOjEuMDsiIHgxPSI4NzAuNSIgeDI9IjkzMiIgeTE9IjE3NzEuMjg5MSIgeTI9IjE3NzEuMjg5MSIvPjxsaW5lIHN0eWxlPSJzdHJva2U6IzE4MTgxODtzdHJva2Utd2lkdGg6MS4wOyIgeDE9IjkzMiIgeDI9IjkzMiIgeTE9IjE3NzEuMjg5MSIgeTI9IjE4MTYuODM1OSIvPjxwb2x5Z29uIGZpbGw9IiMxODE4MTgiIHBvaW50cz0iOTI4LDE4MDYuODM1OSw5MzIsMTgxNi44MzU5LDkzNiwxODA2LjgzNTksOTMyLDE4MTAuODM1OSIgc3R5bGU9InN0cm9rZTojMTgxODE4O3N0cm9rZS13aWR0aDoxLjA7Ii8+PHRleHQgZmlsbD0iIzAwMDAwMCIgZm9udC1mYW1pbHk9InNhbnMtc2VyaWYiIGZvbnQtc2l6ZT0iMTEiIGxlbmd0aEFkanVzdD0ic3BhY2luZyIgdGV4dExlbmd0aD0iODgiIHg9IjkzMiIgeT0iMTc5OC41NzQyIj4mIzI4ODU3OyYjMjA5ODc7JiMzNTc0NjsmIzIxMzMzOyYjMjI4NzE7JiMzOTE4NDsmIzI1MTcxOyYjMjEzNjA7PC90ZXh0PjxsaW5lIHN0eWxlPSJzdHJva2U6IzE4MTgxODtzdHJva2Utd2lkdGg6MS4wOyIgeDE9Ijc5Mi41IiB4Mj0iNzkyLjUiIHkxPSIxNzgzLjI4OTEiIHkyPSIxNzk0LjQ3MTQiLz48bGluZSBzdHlsZT0ic3Ryb2tlOiMxODE4MTg7c3Ryb2tlLXdpZHRoOjEuMDsiIHgxPSI3OTIuNSIgeDI9Ijc2NSIgeTE9IjE3OTQuNDcxNCIgeTI9IjE3OTQuNDcxNCIvPjxsaW5lIHN0eWxlPSJzdHJva2U6IzE4MTgxODtzdHJva2Utd2lkdGg6MS4wOyIgeDE9Ijc2NSIgeDI9Ijc2NSIgeTE9IjE3OTQuNDcxNCIgeTI9IjE4MTYuODM1OSIvPjxwb2x5Z29uIGZpbGw9IiMxODE4MTgiIHBvaW50cz0iNzYxLDE4MDYuODM1OSw3NjUsMTgxNi44MzU5LDc2OSwxODA2LjgzNTksNzY1LDE4MTAuODM1OSIgc3R5bGU9InN0cm9rZTojMTgxODE4O3N0cm9rZS13aWR0aDoxLjA7Ii8+PHRleHQgZmlsbD0iIzAwMDAwMCIgZm9udC1mYW1pbHk9InNhbnMtc2VyaWYiIGZvbnQtc2l6ZT0iMTEiIGxlbmd0aEFkanVzdD0ic3BhY2luZyIgdGV4dExlbmd0aD0iNzciIHg9Ijc2NSIgeT0iMTc5OS41NzQyIj4mIzI4ODU3OyYjMjA5ODc7JiMyNTE3MTsmIzIxMzMzOyYjMjY0MjY7JiMzNTc3NDsmIzMyNjIyOzwvdGV4dD48bGluZSBzdHlsZT0ic3Ryb2tlOiMxODE4MTg7c3Ryb2tlLXdpZHRoOjEuMDsiIHgxPSI3OTIuNSIgeDI9Ijc5Mi41IiB5MT0iMTcyOC45OTIyIiB5Mj0iMTc1OS4yODkxIi8+PHBvbHlnb24gZmlsbD0iIzE4MTgxOCIgcG9pbnRzPSI3ODguNSwxNzQ5LjI4OTEsNzkyLjUsMTc1OS4yODkxLDc5Ni41LDE3NDkuMjg5MSw3OTIuNSwxNzUzLjI4OTEiIHN0eWxlPSJzdHJva2U6IzE4MTgxODtzdHJva2Utd2lkdGg6MS4wOyIvPjxsaW5lIHN0eWxlPSJzdHJva2U6IzE4MTgxODtzdHJva2Utd2lkdGg6MS4wOyIgeDE9IjYwNC41IiB4Mj0iNDAxIiB5MT0iMTUyOS45MTQxIiB5Mj0iMTUyOS45MTQxIi8+PGxpbmUgc3R5bGU9InN0cm9rZTojMTgxODE4O3N0cm9rZS13aWR0aDoxLjA7IiB4MT0iNDAxIiB4Mj0iNDAxIiB5MT0iMTUyOS45MTQxIiB5Mj0iMTU3NS40NjA5Ii8+PHBvbHlnb24gZmlsbD0iIzE4MTgxOCIgcG9pbnRzPSIzOTcsMTU2NS40NjA5LDQwMSwxNTc1LjQ2MDksNDA1LDE1NjUuNDYwOSw0MDEsMTU2OS40NjA5IiBzdHlsZT0ic3Ryb2tlOiMxODE4MTg7c3Ryb2tlLXdpZHRoOjEuMDsiLz48dGV4dCBmaWxsPSIjMDAwMDAwIiBmb250LWZhbWlseT0ic2Fucy1zZXJpZiIgZm9udC1zaXplPSIxMSIgbGVuZ3RoQWRqdXN0PSJzcGFjaW5nIiB0ZXh0TGVuZ3RoPSI2NiIgeD0iNDAxIiB5PSIxNTU3LjE5OTIiPiYjMjg4NTc7JiMyMDk4NzsmIzM1NzQ2OyYjMjEzMzM7JiMyNjAzMjsmIzIyNjg2OzwvdGV4dD48bGluZSBzdHlsZT0ic3Ryb2tlOiMxODE4MTg7c3Ryb2tlLXdpZHRoOjEuMDsiIHgxPSI2NzIuNSIgeDI9Ijc5Mi41IiB5MT0iMTUyOS45MTQxIiB5Mj0iMTUyOS45MTQxIi8+PGxpbmUgc3R5bGU9InN0cm9rZTojMTgxODE4O3N0cm9rZS13aWR0aDoxLjA7IiB4MT0iNzkyLjUiIHgyPSI3OTIuNSIgeTE9IjE1MjkuOTE0MSIgeTI9IjE1NzUuNDYwOSIvPjxwb2x5Z29uIGZpbGw9IiMxODE4MTgiIHBvaW50cz0iNzg4LjUsMTU2NS40NjA5LDc5Mi41LDE1NzUuNDYwOSw3OTYuNSwxNTY1LjQ2MDksNzkyLjUsMTU2OS40NjA5IiBzdHlsZT0ic3Ryb2tlOiMxODE4MTg7c3Ryb2tlLXdpZHRoOjEuMDsiLz48dGV4dCBmaWxsPSIjMDAwMDAwIiBmb250LWZhbWlseT0ic2Fucy1zZXJpZiIgZm9udC1zaXplPSIxMSIgbGVuZ3RoQWRqdXN0PSJzcGFjaW5nIiB0ZXh0TGVuZ3RoPSI2NiIgeD0iNzkyLjUiIHk9IjE1NTcuMTk5MiI+JiMyODg1NzsmIzIwOTg3OyYjMzU3NDY7JiMyMTMzMzsmIzI2NTk3OyYjMzU4MTA7PC90ZXh0PjxsaW5lIHN0eWxlPSJzdHJva2U6IzE4MTgxODtzdHJva2Utd2lkdGg6MS4wOyIgeDE9IjYzOC41IiB4Mj0iNjM4LjUiIHkxPSIxNDk3LjkxNDEiIHkyPSIxNTE3LjkxNDEiLz48cG9seWdvbiBmaWxsPSIjMTgxODE4IiBwb2ludHM9IjYzNC41LDE1MDcuOTE0MSw2MzguNSwxNTE3LjkxNDEsNjQyLjUsMTUwNy45MTQxLDYzOC41LDE1MTEuOTE0MSIgc3R5bGU9InN0cm9rZTojMTgxODE4O3N0cm9rZS13aWR0aDoxLjA7Ii8+PGxpbmUgc3R5bGU9InN0cm9rZTojMTgxODE4O3N0cm9rZS13aWR0aDoxLjA7IiB4MT0iNDc2LjUiIHgyPSIxMjkiIHkxPSIzMTAuMDc4MSIgeTI9IjMxMC4wNzgxIi8+PGxpbmUgc3R5bGU9InN0cm9rZTojMTgxODE4O3N0cm9rZS13aWR0aDoxLjA7IiB4MT0iMTI5IiB4Mj0iMTI5IiB5MT0iMzEwLjA3ODEiIHkyPSIzNTUuNjI1Ii8+PHBvbHlnb24gZmlsbD0iIzE4MTgxOCIgcG9pbnRzPSIxMjUsMzQ1LjYyNSwxMjksMzU1LjYyNSwxMzMsMzQ1LjYyNSwxMjksMzQ5LjYyNSIgc3R5bGU9InN0cm9rZTojMTgxODE4O3N0cm9rZS13aWR0aDoxLjA7Ii8+PHRleHQgZmlsbD0iIzAwMDAwMCIgZm9udC1mYW1pbHk9InNhbnMtc2VyaWYiIGZvbnQtc2l6ZT0iMTEiIGxlbmd0aEFkanVzdD0ic3BhY2luZyIgdGV4dExlbmd0aD0iNjYiIHg9IjEyOSIgeT0iMzM3LjM2MzMiPiYjMjg4NTc7JiMyMDk4NzsmIzM5MDM4OyYjMjM0NTg7JiMyNjAzMjsmIzIyNjg2OzwvdGV4dD48bGluZSBzdHlsZT0ic3Ryb2tlOiMxODE4MTg7c3Ryb2tlLXdpZHRoOjEuMDsiIHgxPSI1NDQuNSIgeDI9IjYzOC41IiB5MT0iMzEwLjA3ODEiIHkyPSIzMTAuMDc4MSIvPjxsaW5lIHN0eWxlPSJzdHJva2U6IzE4MTgxODtzdHJva2Utd2lkdGg6MS4wOyIgeDE9IjYzOC41IiB4Mj0iNjM4LjUiIHkxPSIzMTAuMDc4MSIgeTI9IjM1NS42MjUiLz48cG9seWdvbiBmaWxsPSIjMTgxODE4IiBwb2ludHM9IjYzNC41LDM0NS42MjUsNjM4LjUsMzU1LjYyNSw2NDIuNSwzNDUuNjI1LDYzOC41LDM0OS42MjUiIHN0eWxlPSJzdHJva2U6IzE4MTgxODtzdHJva2Utd2lkdGg6MS4wOyIvPjx0ZXh0IGZpbGw9IiMwMDAwMDAiIGZvbnQtZmFtaWx5PSJzYW5zLXNlcmlmIiBmb250LXNpemU9IjExIiBsZW5ndGhBZGp1c3Q9InNwYWNpbmciIHRleHRMZW5ndGg9IjY2IiB4PSI2MzguNSIgeT0iMzM3LjM2MzMiPiYjMjg4NTc7JiMyMDk4NzsmIzM5MDM4OyYjMjM0NTg7JiMyNjU5NzsmIzM1ODEwOzwvdGV4dD48bGluZSBzdHlsZT0ic3Ryb2tlOiMxODE4MTg7c3Ryb2tlLXdpZHRoOjEuMDsiIHgxPSI1MTAuNSIgeDI9IjUxMC41IiB5MT0iMjc4LjA3ODEiIHkyPSIyOTguMDc4MSIvPjxwb2x5Z29uIGZpbGw9IiMxODE4MTgiIHBvaW50cz0iNTA2LjUsMjg4LjA3ODEsNTEwLjUsMjk4LjA3ODEsNTE0LjUsMjg4LjA3ODEsNTEwLjUsMjkyLjA3ODEiIHN0eWxlPSJzdHJva2U6IzE4MTgxODtzdHJva2Utd2lkdGg6MS4wOyIvPjwhLS1TUkM9W25QUFRSamYwNENWVkVPS1Z1R2hYRDU1MjVBR2doR2ZJTm81ajRmQllPWEtDZjdtNTJhY2FBaVBMOHlmN1dDRktpeFBscVZORU9nLW5KR1lEckJWVGNWc0ZQc1BfcDlCOXhoX0ZuYzl4ZTl3M0RoQU0zSldSc0R5eFM3RGdRSnN4aHkzYTV2SHFPcG1wclFCVHdZTFpjR19meEM1bnQzb1RtQ01DTDItQ3NJV0hFelpGZkJZOW9hMU1PVlg0MG9MWWFoSTdJeEZJOEdLNTFkRnBzb1N5YWdKRUpGUmprdDNublBJOWhNTVJWMWIwR0lVTlBVZVhwSWJEcVVlTVNIaU1taXhiTGNBcHlLWjVRQzB3TjQ3Z3YxMEJzUmJxa3hpMGhVU2g3S3NhZ2FFbHBIOTAweW5MZm00eVlERUh4V3l1bHFRZGlVb0lfMTBjOHNGUFdlU3d5bmpGRHJIMFluUUY0NUtkaWNQcngtYlBRcmMxSGppT05uZFpkM2N6aXFoRGc2UFdIZnMxRFVtOTZWNjhwMW9INXpvTEdQN1hRdjY3a0ZwaXpQeGZzRVVtOE1ZVy1UQXh6TnNXbFozeEtzWlVHdzU2NHBWNjNxdUVHZGg2S1lFTFlNRHFnY09SS1B6YTNiUUpKbVE1Nl9rd3BzTXUyU2hJSHJCU3g2Z01yWVZyOElZdE4ySDlzVUZLSVBwUUtFejY0Qk5rSG9LZnpJUUphYk9kOF9sa2J2bVNmZV9NQ1l2TG9RWjBZVHZxVF9fRWZIRW1kRlZfOTliOXUxOEQ0TG9ZcS1NSWIxSFpzY1QtSEQyWGl3M3BjMmlld1Rya25RTmFKeWEzcXBNR29xTDRJYjN3X0lVTnZzajVUalZjcHphTU84ZmJ4R0FjZzAtMEFLTUo2VEg1YVVjMEFSc0NwRHQwejIzeFZ1WkFRWTgwMTl0bFZhUGI1UC1ESzIxYURNbnNlVzN6Qm9RSTlrMGRhWGJ5SEY5Mm4zR3lCa2NRcEtuSTZ2MWNQdXFmQnhKcEtyZVphdHVlbTZKYS03RGxRbEZEU3dMdE53em1TLW56M2RkbG5PbDNEdG5qa0ZaeG5leFd6UXJ0WU9zUkxQVTRXTUZDaGNYUmtQOUQ2LW5PU2ppLWw0TzdXdEtCbDBZNjhCM081NE9BbGdMeXBLV1hqUDVUVXdIUnlVc2JNc1pncUNmUG1ybG95R21keUNPOVhtYXlEemxtaHZEUl83Rl9oeUJ3dm50TTVrUFNNeUxZNnpTTjlVUWo2REdlUlVvbV9sOVNHZlotMm0wMF0tLT48L2c+PC9zdmc+;" vertex="1" parent="1">
            <mxGeometry x="5920" y="5460" width="1032" height="1902" as="geometry" />
          </mxCell>
        </UserObject>
      </root>
    </mxGraphModel>
  </diagram>
</mxfile>
